<mxfile host="app.diagrams.net" agent="Mozilla/5.0 (Windows NT 10.0; Win64; x64) AppleWebKit/537.36 (KHTML, like Gecko) Chrome/131.0.0.0 Safari/537.36 Edg/131.0.0.0" version="24.8.3">
  <diagram id="C5RBs43oDa-KdzZeNtuy" name="Page-1">
    <mxGraphModel dx="1435" dy="721" grid="1" gridSize="10" guides="1" tooltips="1" connect="1" arrows="1" fold="1" page="1" pageScale="1" pageWidth="827" pageHeight="1169" math="0" shadow="0">
      <root>
        <mxCell id="WIyWlLk6GJQsqaUBKTNV-0" />
        <mxCell id="WIyWlLk6GJQsqaUBKTNV-1" parent="WIyWlLk6GJQsqaUBKTNV-0" />
        <mxCell id="HwRneCmfS8zgWGRZoJI7-96" value="" style="whiteSpace=wrap;html=1;rounded=0;fillColor=#ffe6cc;strokeColor=#d79b00;strokeWidth=3;" vertex="1" parent="WIyWlLk6GJQsqaUBKTNV-1">
          <mxGeometry x="120" y="200" width="719" height="440" as="geometry" />
        </mxCell>
        <mxCell id="HwRneCmfS8zgWGRZoJI7-97" value="" style="whiteSpace=wrap;html=1;dashed=1;strokeWidth=3;" vertex="1" parent="WIyWlLk6GJQsqaUBKTNV-1">
          <mxGeometry x="139" y="260" width="680" height="360" as="geometry" />
        </mxCell>
        <mxCell id="HwRneCmfS8zgWGRZoJI7-98" value="&lt;font style=&quot;font-size: 25px;&quot;&gt;WAPHL-Data&lt;/font&gt;" style="text;html=1;align=center;verticalAlign=middle;resizable=0;points=[];autosize=1;strokeColor=none;fillColor=none;fontStyle=1;fontSize=25;" vertex="1" parent="WIyWlLk6GJQsqaUBKTNV-1">
          <mxGeometry x="139" y="210" width="170" height="40" as="geometry" />
        </mxCell>
        <mxCell id="HwRneCmfS8zgWGRZoJI7-136" value="" style="endArrow=classic;html=1;rounded=0;exitX=1;exitY=0.5;exitDx=0;exitDy=0;entryX=0;entryY=0.5;entryDx=0;entryDy=0;entryPerimeter=0;exitPerimeter=0;" edge="1" parent="WIyWlLk6GJQsqaUBKTNV-1" source="HwRneCmfS8zgWGRZoJI7-139" target="HwRneCmfS8zgWGRZoJI7-152">
          <mxGeometry width="50" height="50" relative="1" as="geometry">
            <mxPoint x="582" y="439" as="sourcePoint" />
            <mxPoint x="632" y="389" as="targetPoint" />
            <Array as="points">
              <mxPoint x="402" y="309" />
              <mxPoint x="402" y="429" />
            </Array>
          </mxGeometry>
        </mxCell>
        <mxCell id="HwRneCmfS8zgWGRZoJI7-137" value="" style="group" vertex="1" connectable="0" parent="WIyWlLk6GJQsqaUBKTNV-1">
          <mxGeometry x="282" y="249" width="161.2" height="80" as="geometry" />
        </mxCell>
        <mxCell id="HwRneCmfS8zgWGRZoJI7-138" value="" style="group" vertex="1" connectable="0" parent="HwRneCmfS8zgWGRZoJI7-137">
          <mxGeometry y="40" width="120" height="75" as="geometry" />
        </mxCell>
        <mxCell id="HwRneCmfS8zgWGRZoJI7-139" value="" style="sketch=0;aspect=fixed;pointerEvents=1;shadow=0;dashed=0;html=1;strokeColor=none;labelPosition=center;verticalLabelPosition=bottom;verticalAlign=top;align=center;fillColor=#000000;shape=mxgraph.azure.script_file" vertex="1" parent="HwRneCmfS8zgWGRZoJI7-138">
          <mxGeometry x="41.19999999999999" width="37.6" height="40" as="geometry" />
        </mxCell>
        <mxCell id="HwRneCmfS8zgWGRZoJI7-140" value="WAPHL-Prod2Res&lt;div&gt;&lt;span style=&quot;font-weight: normal;&quot;&gt;(Workflow)&lt;/span&gt;&lt;/div&gt;" style="text;html=1;align=center;verticalAlign=middle;resizable=0;points=[];autosize=1;strokeColor=none;fillColor=none;fontStyle=1" vertex="1" parent="HwRneCmfS8zgWGRZoJI7-138">
          <mxGeometry y="35" width="120" height="40" as="geometry" />
        </mxCell>
        <mxCell id="HwRneCmfS8zgWGRZoJI7-141" value="" style="group" vertex="1" connectable="0" parent="WIyWlLk6GJQsqaUBKTNV-1">
          <mxGeometry x="282.5" y="529" width="125" height="80" as="geometry" />
        </mxCell>
        <mxCell id="HwRneCmfS8zgWGRZoJI7-142" value="" style="sketch=0;aspect=fixed;pointerEvents=1;shadow=0;dashed=0;html=1;strokeColor=none;labelPosition=center;verticalLabelPosition=bottom;verticalAlign=top;align=center;fillColor=#000000;shape=mxgraph.azure.script_file" vertex="1" parent="HwRneCmfS8zgWGRZoJI7-141">
          <mxGeometry x="41.19999999999999" width="37.6" height="40" as="geometry" />
        </mxCell>
        <mxCell id="HwRneCmfS8zgWGRZoJI7-143" value="WAPHL-Terra2Res&lt;div&gt;&lt;span style=&quot;font-weight: normal;&quot;&gt;(Workflow)&lt;/span&gt;&lt;/div&gt;" style="text;html=1;align=center;verticalAlign=middle;resizable=0;points=[];autosize=1;strokeColor=none;fillColor=none;fontStyle=1" vertex="1" parent="HwRneCmfS8zgWGRZoJI7-141">
          <mxGeometry x="-5" y="35" width="130" height="40" as="geometry" />
        </mxCell>
        <mxCell id="HwRneCmfS8zgWGRZoJI7-144" value="" style="group" vertex="1" connectable="0" parent="WIyWlLk6GJQsqaUBKTNV-1">
          <mxGeometry x="167" y="530" width="110" height="75" as="geometry" />
        </mxCell>
        <mxCell id="HwRneCmfS8zgWGRZoJI7-145" value="" style="sketch=0;points=[[0,0,0],[0.25,0,0],[0.5,0,0],[0.75,0,0],[1,0,0],[0,1,0],[0.25,1,0],[0.5,1,0],[0.75,1,0],[1,1,0],[0,0.25,0],[0,0.5,0],[0,0.75,0],[1,0.25,0],[1,0.5,0],[1,0.75,0]];outlineConnect=0;fontColor=#232F3E;fillColor=#7AA116;strokeColor=#ffffff;dashed=0;verticalLabelPosition=bottom;verticalAlign=top;align=center;html=1;fontSize=12;fontStyle=0;aspect=fixed;shape=mxgraph.aws4.resourceIcon;resIcon=mxgraph.aws4.s3;" vertex="1" parent="HwRneCmfS8zgWGRZoJI7-144">
          <mxGeometry x="36" width="38" height="38" as="geometry" />
        </mxCell>
        <mxCell id="HwRneCmfS8zgWGRZoJI7-146" value="waphl-production&lt;div&gt;&lt;span style=&quot;font-weight: normal;&quot;&gt;(S3 Bucket)&lt;/span&gt;&lt;/div&gt;" style="text;html=1;align=center;verticalAlign=middle;resizable=0;points=[];autosize=1;strokeColor=none;fillColor=none;fontStyle=1" vertex="1" parent="HwRneCmfS8zgWGRZoJI7-144">
          <mxGeometry y="35" width="110" height="40" as="geometry" />
        </mxCell>
        <mxCell id="HwRneCmfS8zgWGRZoJI7-151" value="" style="group" vertex="1" connectable="0" parent="WIyWlLk6GJQsqaUBKTNV-1">
          <mxGeometry x="407" y="409" width="110" height="73" as="geometry" />
        </mxCell>
        <mxCell id="HwRneCmfS8zgWGRZoJI7-152" value="" style="sketch=0;points=[[0,0,0],[0.25,0,0],[0.5,0,0],[0.75,0,0],[1,0,0],[0,1,0],[0.25,1,0],[0.5,1,0],[0.75,1,0],[1,1,0],[0,0.25,0],[0,0.5,0],[0,0.75,0],[1,0.25,0],[1,0.5,0],[1,0.75,0]];outlineConnect=0;fontColor=#232F3E;fillColor=#7AA116;strokeColor=#ffffff;dashed=0;verticalLabelPosition=bottom;verticalAlign=top;align=center;html=1;fontSize=12;fontStyle=0;aspect=fixed;shape=mxgraph.aws4.resourceIcon;resIcon=mxgraph.aws4.s3;" vertex="1" parent="HwRneCmfS8zgWGRZoJI7-151">
          <mxGeometry x="36" width="38" height="38" as="geometry" />
        </mxCell>
        <mxCell id="HwRneCmfS8zgWGRZoJI7-153" value="waphl-results&lt;div&gt;&lt;span style=&quot;font-weight: normal;&quot;&gt;(S3 Bucket)&lt;/span&gt;&lt;/div&gt;" style="text;html=1;align=center;verticalAlign=middle;resizable=0;points=[];autosize=1;strokeColor=none;fillColor=none;fontStyle=1" vertex="1" parent="HwRneCmfS8zgWGRZoJI7-151">
          <mxGeometry x="10" y="33" width="90" height="40" as="geometry" />
        </mxCell>
        <mxCell id="HwRneCmfS8zgWGRZoJI7-154" value="" style="edgeStyle=orthogonalEdgeStyle;rounded=0;orthogonalLoop=1;jettySize=auto;html=1;entryX=0;entryY=0.5;entryDx=0;entryDy=0;entryPerimeter=0;endArrow=none;endFill=0;" edge="1" parent="HwRneCmfS8zgWGRZoJI7-151">
          <mxGeometry relative="1" as="geometry">
            <mxPoint x="74" y="18.620000000000005" as="sourcePoint" />
            <mxPoint x="156" y="18.620000000000005" as="targetPoint" />
          </mxGeometry>
        </mxCell>
        <mxCell id="HwRneCmfS8zgWGRZoJI7-155" value="" style="group" vertex="1" connectable="0" parent="WIyWlLk6GJQsqaUBKTNV-1">
          <mxGeometry x="522" y="409" width="120" height="80" as="geometry" />
        </mxCell>
        <mxCell id="HwRneCmfS8zgWGRZoJI7-156" value="" style="sketch=0;aspect=fixed;pointerEvents=1;shadow=0;dashed=0;html=1;strokeColor=none;labelPosition=center;verticalLabelPosition=bottom;verticalAlign=top;align=center;fillColor=#000000;shape=mxgraph.azure.script_file" vertex="1" parent="HwRneCmfS8zgWGRZoJI7-155">
          <mxGeometry x="41.19999999999999" width="37.6" height="40" as="geometry" />
        </mxCell>
        <mxCell id="HwRneCmfS8zgWGRZoJI7-157" value="WAPHL-Res2Tbls&lt;div&gt;&lt;span style=&quot;font-weight: normal;&quot;&gt;(Workflow)&lt;/span&gt;&lt;/div&gt;" style="text;html=1;align=center;verticalAlign=middle;resizable=0;points=[];autosize=1;strokeColor=none;fillColor=none;fontStyle=1" vertex="1" parent="HwRneCmfS8zgWGRZoJI7-155">
          <mxGeometry y="35" width="120" height="40" as="geometry" />
        </mxCell>
        <mxCell id="HwRneCmfS8zgWGRZoJI7-158" value="" style="group" vertex="1" connectable="0" parent="WIyWlLk6GJQsqaUBKTNV-1">
          <mxGeometry x="643" y="409" width="140" height="75" as="geometry" />
        </mxCell>
        <mxCell id="HwRneCmfS8zgWGRZoJI7-159" value="" style="sketch=0;outlineConnect=0;fontColor=#232F3E;gradientColor=none;fillColor=#8C4FFF;strokeColor=none;dashed=0;verticalLabelPosition=bottom;verticalAlign=top;align=center;html=1;fontSize=12;fontStyle=0;aspect=fixed;pointerEvents=1;shape=mxgraph.aws4.glue_data_catalog;" vertex="1" parent="HwRneCmfS8zgWGRZoJI7-158">
          <mxGeometry x="40" width="36.93" height="40" as="geometry" />
        </mxCell>
        <mxCell id="HwRneCmfS8zgWGRZoJI7-160" value="waphl_data&lt;div&gt;&lt;span style=&quot;font-weight: normal;&quot;&gt;(Glue Data Catalog)&lt;/span&gt;&lt;/div&gt;" style="text;html=1;align=center;verticalAlign=middle;resizable=0;points=[];autosize=1;strokeColor=none;fillColor=none;fontStyle=1" vertex="1" parent="HwRneCmfS8zgWGRZoJI7-158">
          <mxGeometry x="-5" y="35" width="130" height="40" as="geometry" />
        </mxCell>
        <mxCell id="HwRneCmfS8zgWGRZoJI7-161" value="" style="edgeStyle=orthogonalEdgeStyle;rounded=0;orthogonalLoop=1;jettySize=auto;html=1;entryX=0;entryY=0.5;entryDx=0;entryDy=0;entryPerimeter=0;endArrow=classic;endFill=1;" edge="1" parent="HwRneCmfS8zgWGRZoJI7-158">
          <mxGeometry relative="1" as="geometry">
            <mxPoint x="-42" y="19.620000000000005" as="sourcePoint" />
            <mxPoint x="40" y="19.620000000000005" as="targetPoint" />
          </mxGeometry>
        </mxCell>
        <mxCell id="HwRneCmfS8zgWGRZoJI7-162" value="" style="group" vertex="1" connectable="0" parent="WIyWlLk6GJQsqaUBKTNV-1">
          <mxGeometry x="527" y="528" width="115" height="75" as="geometry" />
        </mxCell>
        <mxCell id="HwRneCmfS8zgWGRZoJI7-163" value="" style="shape=image;html=1;verticalAlign=top;verticalLabelPosition=bottom;labelBackgroundColor=#ffffff;imageAspect=0;aspect=fixed;image=https://cdn0.iconfinder.com/data/icons/evericons-24px-vol-1/24/file-text-128.png" vertex="1" parent="HwRneCmfS8zgWGRZoJI7-162">
          <mxGeometry x="33.5" width="43" height="43" as="geometry" />
        </mxCell>
        <mxCell id="HwRneCmfS8zgWGRZoJI7-164" value="Table Summaries&lt;div&gt;&lt;span style=&quot;font-weight: normal;&quot;&gt;(.csv, etc.,)&lt;/span&gt;&lt;/div&gt;" style="text;html=1;align=center;verticalAlign=middle;resizable=0;points=[];autosize=1;strokeColor=none;fillColor=none;fontStyle=1" vertex="1" parent="HwRneCmfS8zgWGRZoJI7-162">
          <mxGeometry x="-5" y="35" width="120" height="40" as="geometry" />
        </mxCell>
        <mxCell id="HwRneCmfS8zgWGRZoJI7-165" value="" style="edgeStyle=orthogonalEdgeStyle;rounded=0;orthogonalLoop=1;jettySize=auto;html=1;entryX=0;entryY=0.5;entryDx=0;entryDy=0;entryPerimeter=0;endArrow=none;endFill=0;" edge="1" parent="WIyWlLk6GJQsqaUBKTNV-1" source="HwRneCmfS8zgWGRZoJI7-150" target="HwRneCmfS8zgWGRZoJI7-139">
          <mxGeometry relative="1" as="geometry" />
        </mxCell>
        <mxCell id="HwRneCmfS8zgWGRZoJI7-166" value="" style="edgeStyle=orthogonalEdgeStyle;rounded=0;orthogonalLoop=1;jettySize=auto;html=1;entryX=0;entryY=0.5;entryDx=0;entryDy=0;entryPerimeter=0;endArrow=none;endFill=0;exitX=1;exitY=0.5;exitDx=0;exitDy=0;exitPerimeter=0;" edge="1" parent="WIyWlLk6GJQsqaUBKTNV-1" source="HwRneCmfS8zgWGRZoJI7-145" target="HwRneCmfS8zgWGRZoJI7-142">
          <mxGeometry relative="1" as="geometry">
            <mxPoint x="251" y="279" as="sourcePoint" />
            <mxPoint x="333" y="279" as="targetPoint" />
          </mxGeometry>
        </mxCell>
        <mxCell id="HwRneCmfS8zgWGRZoJI7-167" value="" style="endArrow=classic;html=1;rounded=0;exitX=1;exitY=0.5;exitDx=0;exitDy=0;entryX=0;entryY=0.5;entryDx=0;entryDy=0;entryPerimeter=0;exitPerimeter=0;" edge="1" parent="WIyWlLk6GJQsqaUBKTNV-1" source="HwRneCmfS8zgWGRZoJI7-142" target="HwRneCmfS8zgWGRZoJI7-152">
          <mxGeometry width="50" height="50" relative="1" as="geometry">
            <mxPoint x="371" y="279" as="sourcePoint" />
            <mxPoint x="453" y="438" as="targetPoint" />
            <Array as="points">
              <mxPoint x="402" y="549" />
              <mxPoint x="402" y="429" />
            </Array>
          </mxGeometry>
        </mxCell>
        <mxCell id="HwRneCmfS8zgWGRZoJI7-168" value="" style="edgeStyle=orthogonalEdgeStyle;rounded=0;orthogonalLoop=1;jettySize=auto;html=1;endArrow=classic;endFill=1;entryX=1;entryY=0.5;entryDx=0;entryDy=0;" edge="1" parent="WIyWlLk6GJQsqaUBKTNV-1" source="HwRneCmfS8zgWGRZoJI7-159" target="HwRneCmfS8zgWGRZoJI7-163">
          <mxGeometry relative="1" as="geometry">
            <mxPoint x="782" y="439" as="sourcePoint" />
            <mxPoint x="662" y="549" as="targetPoint" />
            <Array as="points">
              <mxPoint x="762" y="429" />
              <mxPoint x="762" y="550" />
            </Array>
          </mxGeometry>
        </mxCell>
        <mxCell id="HwRneCmfS8zgWGRZoJI7-169" value="" style="edgeStyle=orthogonalEdgeStyle;rounded=0;orthogonalLoop=1;jettySize=auto;html=1;endArrow=classic;endFill=1;" edge="1" parent="WIyWlLk6GJQsqaUBKTNV-1" source="HwRneCmfS8zgWGRZoJI7-163" target="HwRneCmfS8zgWGRZoJI7-153">
          <mxGeometry relative="1" as="geometry">
            <mxPoint x="730" y="439" as="sourcePoint" />
            <mxPoint x="672" y="559" as="targetPoint" />
            <Array as="points">
              <mxPoint x="462" y="549" />
            </Array>
          </mxGeometry>
        </mxCell>
        <mxCell id="HwRneCmfS8zgWGRZoJI7-148" value="" style="group" vertex="1" connectable="0" parent="WIyWlLk6GJQsqaUBKTNV-1">
          <mxGeometry x="187" y="287" width="70" height="72" as="geometry" />
        </mxCell>
        <mxCell id="HwRneCmfS8zgWGRZoJI7-149" value="Terra.bio" style="text;html=1;align=center;verticalAlign=middle;resizable=0;points=[];autosize=1;strokeColor=none;fillColor=none;fontStyle=1" vertex="1" parent="HwRneCmfS8zgWGRZoJI7-148">
          <mxGeometry y="42" width="70" height="30" as="geometry" />
        </mxCell>
        <mxCell id="HwRneCmfS8zgWGRZoJI7-150" value="" style="shape=image;verticalLabelPosition=bottom;labelBackgroundColor=default;verticalAlign=top;aspect=fixed;imageAspect=0;image=data:image/png,iVBORw0KGgoAAAANSUhEUgAAAlYAAAKXCAYAAABAEQQOAAAAAXNSR0IArs4c6QAAAARnQU1BAACxjwv8YQUAAAAJcEhZcwAAFxEAABcRAcom8z8AAP+lSURBVHhe7J0HfFxVdv/ZTbLJJptsNtn8k2w2fTebsKFp5o3kIo3qvDeSbZoNLFl670tfqoClY1uaombLFQy4YeOCjW3cccOAwYBNL6bY2Lh3G9//+Z337uhpPDaWNKNp5/D5fWYk4Zn37rvvnu8799xzjxMTExNLtflr/X9WWF/+90a0+mRvg3mGLxy81he1bjQigdt9ISvkDQcmG5Gqub5IYA797sVjUrhqlhEl8XtzihEyR3kj1mOkW4yQdZWv0TzPGw4GT6yv+V9Py4AfO4ciJiYmJiYmJpb59ouQ9acnPFLzk1MilT8rCFn/6a2v+t+icMDnG2wFfKGq/kbEuoCg53fesPmoEQ62GBFzGGmUL2xOpd8tM6KBNwmS3iC9diwiGHvdGwm8zj+HzRVG2JpL3zGRvmOEN2w1GVGzzogG7/dErOt80erfeOqtak842MsXDpzkrTN/5amv/JeTQ9bf+aP+Hx1XW/t95zTExMTExMTExNJn6rjjvmdEKv7WFyo//pR6q8KoD5xLwHSTUW8+4Q0FRhihwPMEPLONhuA8Ap4lBD6r6Oc1pLXeiPke/b+f0u830PtvWGFzU0dFn/E1gdUX9Dkf08/vkt6h362m371K3/Oy0WC9RH+bQe+f9YStKIHfvQR3l9H39QP8eRsC/3x87YAfOKckJiYmJiYmJtY9hsiUp6XPT33hqn/3NQVO8oWD5YUR6xxM7XlD1kCCqacJauYbIfN9I2xuIR3yNQaVr6la+RroNU5GFLKSIPuzDvsO+u5CfDe90nHtI7D7nCBrpT19aDX7Ita9vgbrksL6mmpPuMZnRIL/haibL2T91XEDBvyRc9piYmJiYmJiYsk1Aqo/7xHu898EU6d5wsHbvJFgI8HJRIKq2QQ1S71h820jbH1GAAOgOgigKRraRxW19lVFw0j0vnBIjSpsITXbYuBqdEEXIKwzos/B9/Hn4vMh+i58Zw/6bqiIfjboO+jYdhFgradjfZ+O9TX69/Pp+KcZEWsUgdYfjHD1hUUhy09w9XPn1MXExMTExMTEumbH1x7/A8/APj8tbDL/rSDSp6Cwqaaa4OM6b9ga6o2YSwmsvqb3BzXcxKJG8ZEj5/dtios2RZKg+M9kHdvx+JpIOH4CLoKtd7zh4HO+SPAR+twLCqNW76Jo4Bc9I5U/6/lYv7+kZvme3TpiYmJiYmJiYsdo/lr/HxuRiv/yhKz+Rjh4jwfJ5k3Vk4yG4CICkA+8EWsnokSIRnE0qNWJRukoFAEMg0siCEqXCLYYrAiiOLrVUqOKhjgRreFORCtsHqT/90sjYr5hRIKz6edn7Hwx8xqjrqoECe9OE4mJiYmJiYmJHdlQFgERKu/giv8wolUlBCJXEWSM8oatt+h1p9EY/JbA5JANKU70x6W2KFAc0GSaXBGtxNEs++++iHWIgOqgETK/IL1UGLYe9kUJNKPVJ2OasHdjzU88LZ4/cZpPTExMTExMTMw2K2T9qW9Q4CQCifO8IesBL0ohNAbnEEh86A2bBxGR6jGinyoa1ocjPciLyriIVFcFmCK4Kmyu5uhbDycaV4hzDZubCbpeK2wMTvZGrGZqkzu9kcCZ3saa/3CaUExMTExMTCyfDdEWT0vlj/0h6+cEU34fimuGLYDDRwQOu43G6gMEE4di0SnkUtFrVkSlOisdydIRLEdOFOvbwobgfvr/dhKArjEi5pOesHWJL1xzEkpOnPhE1V9ITSwxMTExMbH8tO+hUKY3EjzTFw7eSWA1orAxuMAXtr4CQOncKY5OASwSQUi+CKCFfDKsMBzRj9sFoEUA+jH9/QVv2BpUGA5e5gsFynpG+v3MaV8xMTExMTGxnDZ13PeKBhX9EFEq70DrFCNiXklw8LQRttaSdhQ2BffFco4QnYpFqBLARr6J2qCtXZy6WFHrWwLTPUbI+sIXMed7w4FBRrT6LF/IOv4XIeuvsADAaXkxMTExMTGxXLOCweY/+gZXlfvC1iXeOmugL2LNIKD6DJDAK+MQoWqu4QhNQrgQxQTIQlsVDXXaLGLtIEhdZYTN8UbIvM8bNs/whAP/PUAquouJiYmJieWODRg34I/8I/x/1iNa9q+2szfrfCFrATn/z33R4E5vxPyWozAokeAU6pQI1TEoFsFyolfcbqjsbm4z6s01vrA5BptBFzbWeGT1oJiYmJiYWA4Ypv2MweavfXWB04xw4PdckylqvWmErT1FqOE0tI/yNVfbUJAIHkTHJkCWros1tEb58HPU+szLEUHzCV80cLGn3uptRP3/4FwaMTExMTExsWwxRKmKBgX+xhMO+Ixw1fVGyHzWy9vNmJuNaHBvW6RFIlRJUyw3zWnTBusggdV2avNPjGjgJW8k8Jgnap5aWHfqvyGCiHw353KJiYmJiYmJZapxgc9QWU9ESYyo+YQRMV8kx/8lpqt4r75YDaoEcCBKjgiy0M6FTnsbkcAub4P1OsHWaF84eJsvHDiNrs2v/SMu+DPnsomJiYmJiYllmH2vxxOn/z8jFLB80apHyZnPt6MlwW0EUd9yJIXzqBChkqm/lErnX6G9SQyxDcE9RiPvrfiWL2KNo2tzfWGoxoONrZ3rJyYmJiYmJpZu+0XI+lNjYPC/vGGz0ltvXU0OvcVosF4lsNqL6uHYCw/74kmEKk1yIKuQrgOq1gO0vBFzvTccnGmErYc9YfM3hfVWb0995b84l1RMTExMTEwsHeZpufzPjbrqkz31wSsJrEaSo37V1xj8wmgM7mZnjq1ZEDVBzo+AVfqE/Cu6Dnw9sFggYh2i67HFCFkfeUPWS76wGTbqA+d6GytkexwxMTExMbHutoJm8x+99ZZhhKrPMsLB+41IcAqB1eeY5uNaVEOkWnrGqsHi6VhelYn8q7CFLXLWkJ42IuZNRrSyorC+8pf/WuuX/CsxMTExMbFUm7fh1H8maDqNHPFjvnBwJgHVu76otRH1qDgiguR0nvoTsMpI6alBRLDartVeX8T8iq7hKl+46ikjGrjqlHrrREzzOpddTExMTExMLFmGzX2NgRX/5WsIlPmiwWuNsDWc9KYRsvYjOmWv9JPpvqwUQRbgCtGrwibAsPk1XcdpRti8h6D5jMJQwFMwuPgfna4gJiYmJiYm1hUrGtv/h0URs8CoM6/naEbEWkmO91Nv1NrNeTsAq2YnjyqR4xZlthDBanTyrzA1iHysxuqvvRHrLW/EtAuMhgOnYTsip0uIiYmJiYmJddC+d+ITVf+vIBI8gZxrP3KsteSAZ5GT/YankABSmEISmMotachC9IrkDZsHjYj5jtFgDjPCgcs84WCvgpD1n8dHB/zI6SdiYmJiYmJi32U9I5U/M+qDfZCY7o0GnyOgetPXGNyEqFSRnvrj3JwEzlmU1eL8K2zu7EQiCZ73+pqrP/aGA0s8YXOYN2Reg4ULmB52uouYmJiYmJhYvBUN6v9D78DAP3uaAj5fKHCxr6G6EeUTyNnu5Ck/wFSDA1MCVLkvvs52kjvXImsMIoK1gf72gi9Sfa+3zux3Sl31/6DS/nG1td93upGYmJiYmJgYqm8bdVUn+8LWJb5woMmImIt8zdXvkxPdxYnNcKzIv5Gpv/ySMzWIrYh4w2xc/2jwayNavcqoD07x1lt/8Iasvj0j/X7mdCUxMTExMbH8NGyUjGiDJ9znv31hs4Yc6e1GJDDZiJpfYIUfKnXDqXLZBIlS5bec6BXAinOwmgiyQ9Z+I2S+STDe5AsHzzciQe8JIevnMkUoJiYmJpaXhi1MPOHgab5680Gj3prsiwZXeCPmV74GSxW19mFJHpXILTv/yolgYWo4GtzrjVjvGWFrlhExGzz15pUFddWFktwuJiYmJpYXduLoqr/AsvmiZrPAiFRd4A1XDzXCwbe9IesAR6cQkYA4SuVEqhI4WFEeKy56hT6D1YPesPWlJ2LNKIhY93rDwaARCf5X0aDA3/hr/X/sdD8xMTExMbHcMU9L5Y+NiNnjlLB5hTdqhrlGUST4PukARyBa+9plFMhRJnSoIpFbBFh6UUMs/6oB+VeIfFpPE6zfi1IdhXXmvzldUExMTExMLLsNeVS+kPVXPUNl/+mJWtXk9O73RKzZ5Pi+xB5xOurAr3CMEqESdUTu6BX3JX49RH1rB1fmjwZbfVHr4sKBAQ/qomHlqdM1xcTExMTEss6+hzwqIxSwPGHzNiNiPkkQtcLbEPyGV/ohSoXNkjGdk8hpikQdEKaPC1uoXyE/j/oVwN1oDL5f2BSc6as3w95Q4GIkuAP0nf4pJiYmJiaW+eYf4f8zrPZD+QRPXeB8JBWTVpDz20KO7qATVbAleVSiZMoVveL3jcFDhY3B/dT/1nvDmHq27iqMBKt8T/T9956P9fxLyb8SExMTE8toQ7KwJxzwGfXWBeTIHjXC5hRyZu94I+YezoVp7WNX0wZQJXKMIlGSBLgqHNpH9Rjel/OwvGFrE/3+ZeqTw31h81bfYLPmlEGBX2C62um+YmJiYmJiGWC1td8vGlT0w5PqzH/DtJ8RNe/2ha2p5MA+ILjaTRB1wGiwHV0sSpXAEYpESRWS29HfECElMcyHzX2+kLmJwOoVb8gcgulBXzhwEqYHj68d8AOnR4uJiYmJiaXPkEdFjilATuoWclYjvVFrCTm2jXBqsXpDcGyJnJ9I1B3SKwiH1HB/JMDaT79/n8B/qhEJPOSJmr/xhMt9noH+nzrdWkxMTExMrPsMuSn+qP9HTtX035AafSGOAmzyRqw9RjR4yI4UOOUTJI9KlG7ZOVe20Ccbqg8YEXObL2q+640EJpPu9dRb1Sc1mf/Gqwdrj5P9B8XExMTEUm+oR1UQMQu8DYGzjZB5Hz39j/dFgmvJSR3AaixEBXzIo4LzSuTgRKI0C8CPLZPsVanop+ZGX6O1BBHXgnDgZvrZLECJkJbL/8Tp9mJiYmJiYsk1OJnC+r5/X9AQKPM2mHcY0cDz3rD5LjmhLb5o0K5J1VTdFhGQKJUoU+WOXkER61BhU3CXEbY2Un9e4QmbLfTAcKEvXHOShfIMtbUSvRITExMTS5Ip9T0kpnvDNZUES1cZUbOBnu4XeKPmJnJGnEeFVVcMU4mcmEiUySLIKkRdNdS/or7sjZgHqW+/6wubz3lD1gOF9dY53nrLKBoa+BvnjhATExMTE+uk1fr/GHuueeqC53vD1lA8zZMj+tLXFNyhE4J1lEoiVKJslY62ArC4L0fM/dTPv6E+/64RsqbR+/sLI4EqT4skt4uJiYmJdcJODll/hyrVnpB5qhGu/r03EhxHzuZDwBP29OO92QSmRDkoDVlFQ/owaBlhayv9fpk3bDbSPXCpN1Tp94Wr/l3yr8TExMTEjsmwpxpWR/nCwQcNFPgMWe/QE/vX5Fz281N9c439ZC9Tf6JcFCKx9NCAPs5gxXXXgjsJrD4nLaV7ws6/ClnHo36bc9uIiYmJiYm5rLb2+96BgX/2DK7qZYQDl5GDafaGrVewmS2cS1FLH3qKJwcjMCXKJzFk0UMEHiaw/yD/3vyINN4XCt7hCwdOQ4FRI1Lxt86dJCYmJiaW9zbuuD/C1EZhBEm6VY2+UGCJL2J9iqd0X4MToWqWPCpRnkrnX+lIbdTaT/fBeiNsvoEEdyNcdU9hfaCqcGjfv3fuKDExMTGxfLTejb1/QiD1v95wVdAbMW8ghzGGXj+iV7taOpwIgZXAlOhY5Y1X2JYnCdKf5f78RMeQUjkrCLEKlqcJI4FtRtRcSg8dYW/UutgbCvT0hayfS/6VmJiYWJ4Z9kbzRCpK6Wn7bnIOE8lJrTQarM8Jog4gOsXlE+A4ZOpP1EG5wScmNxh1Rok+k5To+1MqZ2qQo1e6xEhDcHthQ/BDI2LO94asUEF94NyT62t+KbWvxMTExHLcfhGy/hRP0wWDzQJvOHi2r8kaSM5gGWknT3Xop3CJUImOoBjUEOwcFlFy/p9C6j9QEalHg6V6kno1Wqp3J4V/i8/AZxVBzuf7nGPBdxe4j8M5Fn08KROOgcAKkIVVsvS7Q/Sd7xFcPe0JBW/yRIJVp9RV/o/UvxITExPLRaut/eNCGuTJ6fzWCFn15ARm+5qCa40GazuS0pGYy0/g9DQuYCU6kjSw6EiSG6oAOz0aTIIhU/mbTVVKKidVtpjKHGqqYCeFf1s1xP6sMhI+u6TJVL3ouwqjJn93WsAKwtRgs1OagQCLfof6V+voGFbSffasLxy809tYU+lp6SP1r8TExMSy3tRx38NqpcL6yl96B9dU+sLWjUY4+IwRtj6EU+B9/ZCUjuXkAlMikgYSVhys4O+IEiWKRPkJdAA9FQRADFGtpqoh9RkWUKcOD6gzRgTUgJG2+ndQ+LenkfrSZ+HzqulzLQe28J2ALMAcjkNHtuIjWrHzcH4Xf95dFu4fuo90mQZEgL0Rc5sRCS71RoKD6fVcI1p1ctGg8n9C5Ni5Q8XExMTEssmMaPU/eBuDQRr47+Kn54i1HE/T9PO3vAEttqLBZslcpyfOUYjyUkeDqqKoE40ikClvMVWAwAYA1WeYyfB0OsEPdCaAaBRBFOmsUVXqbNI5o6vUb57snPBvzybhswaQ8NkauPB9+G5AF4ALUFdBx4Zj7NlgElyZykPH7j6XlIAVBJgDWLXYU4MALG/U2k6/X0PHMccIVUWMuqoLMT0o+VdiYmJiWWJ4Gi6sL//7gkjwBE/U/I0RMSPkTF7xhqwdhajHAyHhVqJUeasYPJHi4QlRnvj8KMAUokKYijMJpqpbbZAB1ACezhkdUP9HAOTWuSnWYd8H8KLjOIOAqx8dW5COEVOQmI7sTceOacMiCPCjz9+BLCi+jbok3FeIXqFMA99z9IrfhQPrfGFrAlbgehssf0HI+s8THun9E+fWFRMTExPLNMMS75ND1vEFkcC59JT+ODmMaTTQr6VBfVfsKZrzqCRCla/SIAGoAFAhNwnC7wBUAClAFKbYKgmiMOVWQ6DSz4lIIUrUf6QdPUIkiSHnqSp1nqPfuoTfxxQHQp2S81nu73B/L/4fHBOODceoo1mYPgwOJdAaEmDQwjkyXDltoAErUXt1SQArLAoZYt97PnxvQ/ALeth5meDqKQ9W5IYCVu+HrL9zbmExMTExsQyw76F0Qo9o2b8a0eqSAnoa9jQEnyGwep8G770GBnMnSiW5VPmhGDyREoGDOyqFVXYAjeJGi6HDhikbRpDXhCk3TMPpKJE7apQtYthi0KpSNYhk0Tn6m+zz5giWc0+42023VZeFz9bRKwe08Dtv2NxBgPWat8EK0fUY4K0zf4V8yONrB/zAua/FxMTExNJheNr1DQ6Wc2J6xGwlp7DAaAx+Rq+HkEfFq/2cwTzhwC/KKTEYOJEYd0QK7wEQmN6zk80tO09qaNvUHqI7gKkzCUKQyxQDqrjIEEeHIPzNBTCZIB3Zcke03NGsAU4kqy+dq0kAiTZAewCw0H663ZIKV44AVhw5brXvSzz4FDZXv02QNdUXNh/0RKv6Y6HJgHED/si5vcXExMTEusPwVNu7seYnnoGB//aFrP4EVYPodQm9biKA+lYX9sRALrlUuSeGJ7fiQAAAFYtIkQBTWL2HMgU66RyJ3pjeQ6K5ntI7mjIRoo5F8cetf0ZSPADSBix76tMNWO521j8nRa7oFe5RAqtDBFgH6aHoPdKT9LsrPfVWb9SbOz464EdY2evc9mJiYmJiqbDjxw34wSkNlf/D0wf0lEsD9HO+xuAbNGjv5EKFztMwD9yJBnZR1soNUjqyAsUiUvS3toiUvTquakiAp/YwBQaIOHWEzpOyV+wBMHRkJxsiUl0RzsUdxcK5ow044Z3aBpE7tBnaD3CqVxMmHa4g+nxM0Re19lVFw/ry99H3fEz37WwjZLb66q0bfeFgeY8nqv6fc+uLiYmJiSXNamu/72np8+c9I/1+5m2o7klPuNfQ4Pw0PeF+QE+4ewisDnIulfMkzFDlevIWZZ9iEOWS/hsASkeldGSKk84JCMpbLCciZU/tISoTK3cAEUxA8cDhlvtvuahE56khC22G6dGSJmpXalO0r/t66GuQFNFn8/2KVYP2gpJD9PM+I2RtNcLWMvq+gUa9dXpRNPAL5FFK/pWYmJhYkuyUSOXPPPWBKuRR0WA7hAbk2TQIf4bBuMdweuJt7aNQPV1gKvulHbg7IsVRE5I7ItW2co9AgITyAn1IevUeVsXpHKl8iUh1VPr8Y21C79FmiGAheR/RPkT+0OZof44MOtcp2QJgcQX3YXQ/8/Y4wb1GlCPRz3oi5n2nhINnn9JgnYgHLGdYEBMTExPriPlr/X9cNKj/D08ZFPiFtz54prfeDBNYvUJPsluMBmu3ETW/tZ90dV2qxAO2KHOlIcot/TeOSpHcEaniJothChXHAVKY2sNKNyRkAwgQleLIFAGCOyqlAcItN2DkuxK1C9rxDGpbRP7Q5mh/fc3cr0lTXPSKFQ3u90bMbZ6o+a4nak3wRKtv9ISDvVD4l8aHP5P8KzExMbFjtF891vMvCwZVnECDaj9vyLzDCFlPE0i9TU+xB3ogJwMRKlRMB1AlGqRFGSsNUO5olM6Rwt9jEKUrnDsgxfWkWk2GKb1yT+dIAQh0VCo+IuUGCNF3S7clhKKjiPyhzTG9iiihTm7nKCK9uq9tMoUFKNhyiqNXBFn0XV8Z0eBcI2I2+MLBa416qwIJ7s6QISYmJiaWyPzz/H+Mp1Ff2Cz2hgK/MyKB0QRXq7xhc5Mvau3n6BQNuBKlyg5piHLL/XcdlUK+FPJ5epF00rlOOLfzpJytYeKiUm4YSCQ3MIiOXe42RDuj3XEN2qJX2Cqn/bVMuuIqt9O9jvyrXTQWfEVaSmNEuChUfVbPkPWfRTf2/2GtbJEjJiYm1t4KBpv/yGH+cOAycsAhX4M1y4ian9IT6iHUvuGVfjTIJhyERRmjGEQ5USh3RAq/x9ReD3LMes89zpNCCYShpgqS2jYtbpvig7PXURQtyZFKvbh9nbbGz6jthXpfKDCKiCKuJa5pqqNXgCzOv0K0msYBGhP2Edi9ZYTNZ3z15m3ekNWXxopfc3kGMTExsTy37/lrL/gzrPqhAfR0T8h6nBzyPBo419FTKjZvPdj+qVWm/jJRGqYS/U2rkIQk6GKe3rMTzg+LSLmiUnoFX8zBJ5AbAkSpkbutAVi4NqfT9UJEUU8NHsv175LoO3gcQLQawvuItc8ImZsJqlb5wtYYL3ZcoAezk4dZfycbPIuJieWlYXUPnjKL6GkTT51G2BpNUPU6QRXv69cD9aiQRyUwlVHSTvRIEanYtF6jnSeFbWJQlBNRKRSitKuc29urICIFRw2HLav2Ml+4LrhGv3nSjihiAQFPDdJ15r7h9IP4PpNs4SGLa9YNwepB+t5ocB2NGy/S9w/yhgIXe+ore3sbAv98XO1xAlhiYmL5YX0IqjzhgI+eOG8ywsFnvCHzDSMS/NobtXZzNWZ6KoXwZCp5VNkhG6jsKSK95x42/kX5gzMIoDCNhKiUO1eqXUQqAVAJVGWW3NcFEUWAsT01GCCQtuGqO8CKI1hYNcj5lkECK+sg/X4rjSefGKHAPCNs1hVGrHOwPc7lLZf/iTPsiImJieWeFQ82/7GwrqqwsL7qHG/EfIQGw9lee7WP4n396CmUp/wSDaaiblF8REpHo7TDbFf+gJwp8qQAUrrKOdeTcvKkuDgnIlLkiCUilTvCNeNrSK8A5X7DqxikkdTu7kPufpUyOVOEnIeJCHc4sJf67lu+sDmG3t9MoGWdHCo//qQ6/187w5CYmJhY9lutOu77nvo+/+KrC55m1Acep0FvFj1VfmBETNSk4r39bKiSqb9MUQywHCEi1SPqikg5K/cAUadxsrldlFNHpgBUiGqwIz4CUAlUZaf0tfut87MNVwHqE3bkCn2l28AK0SsNVwRW/GDWENxDD27raZx5xRMJjPaEq270hix/j0beHkdqX4mJiWWvoR6Vt9H8VWEkUGVEAtcZYWs4AdWbNODtL3KeMDEgynRf9ykGS65IlBYDFAkRKXvjYgKpJnc9KWffvVhECknnAZ7Sg5PV8BQPUPGOWZQbcl/fs0bbfcJ0ktr1ikH0s26DLBIgi6NXJPRlb9T8gh7eZhvhYJ03ErjolDqzB1YgO0OUmJiYWPYY9vYqiFYVGlHzeiNSNdqImMu9keA6VE3H9jM88CFHQvKoul0xuHIJvwdQIemcQYpLINi1i/Q2MZjac0ekkCelHaxAVX7KfY3RJ9BHMB0MuGKw6WawQsRbR6+Qp0lg9a2vwdpMf/uQjuMlb8jefxD7jjpDlZiYmFgGW23t93lfv3DA520Ink2D2UNGY/BFelJcT4NbWx4EYCrRoChKihiWXJEod0QKf9e1pHo5yeZ63z3kSaGeFK/cc2AKIKUBKhE4CTyJIHdfQCRTwxXKbOj+GN9PUy7q55gaRO2rwpY+yghb++k43jIiwWG+cPUVp9RVldBY9d+elsofOyOYmJiYWGbZKdHqf/XUVw2gwWuQN2y+SAPbOzSwbcIAV9hiJ5jaU38CVqkUOzItDVUk5L4gwRgODxEpbBVjlz+wt4nB5rtwijoqpVfuwWFqqIoHq3gHK8pP6f6AKWHk1tmRK7uvpSVyBQGsMDXY7EwNIoIVsfbQ8XzqDVlLaIwaST/f4gubxT1b+/2lM4yJiYmJpdf80QE/8oX7/vspdX16GPXmlTRQjaABbQ29HuAIFQY0JJTSIJdw8BN1WHBQLAea3MLfOSLFEGVP7fUm6agUlsZbBFOcdI6IFDlAXUsqJpejhBI5UpEokdx9BpCOnCv0P/RLj9Nn3X25W4UkdxqLeKEMP9yZXxvh4DysUC6MBM701lf9L7bU8rR4pESDmJhYegxFPj1NNT4aMK/zhsxWPAUaDdYnRtTchwgVCvgxWMnUX1IVD1buAp1FWLnnQFRs8+JhJicWY2oPUan+JJ0npZ2hOyIlUSlRV8T9iXQOCfBe1WKXYkD/1P00Ub9OuRDBAljRmITFM76Gavx+izdsvuMLBV6g10eNkMn7Dx6nlKweFBMT6yarrf3+ySHr75CbUNRg9fVFrVpvJPgiQdUGPAVyYU97ybNEqTqpGDhBDjSxQyLh7+6Ve21RKWf1HjkxVDjXESlA1NmjAzGHF694pygSdVXuvnUWwbtdigEV2u3+m/bIFcYlQBaBVWy7rLB5wIiYa+jvo4yQdZWvsaa4R7TsX098ouovnJFPTExMLDV2Qsj6uVFfdboRDjzsi5hTfA3W696otQmDVCxCJVN/nVYiqNIRKfwdESlAlK4lZW8TY3KyuY5K6TwpriXlODmJSIm6U+3givoi4KrCKSKKvp3WyJWjWP0rTm4nwIpY+2k8+4SOayGB1nAjFLjO21BhWCHrT53hT0xMTCw55o/6f+QdGPhnT7jcVxA2L/RFraG+sLWWnvAOAKL4yQ9hdeQtCFB9p2LgBDnQhFftaJBkriuc21Epk2tK6Twp3sDYXUvKFZFyOzeRKJ1qB1c6csVwZff1tEeuIIxXLORf0TiGxTX4fTiw0RcNzC5sNO/2hayAd3DNfxiR0/7WX+v/Y2dYFBMTE+ucFQ0q+qFRV9GDC3xGAs30FDebnvTepye6g0VDa1TRUHuzZMmjOjbFA5Vb+LvewLikyXKKcpqcbF5D6ufAFDbA7a8jUiQ4L0ShZMsYUSZJ9z/dF9sqtLvgivq9fqBIqwiuAFaIXmFMsx8YrU2FjdYrdK+ONerNezyDq0/t8UT1vzpDo5iYmNixm+dyz58UDQr8je+Jqn+nwSVQGA3e7w0HFhgRcyMB1SF+suMoFSJUEqVKpBhAQXAeLgeCHKn4qFQvEkekyOkApoJDTS6DgKk9XfogkfMSibJBGvDRl/Fw4IYrrfh7qNuFcYyEXFF7mhArCKvp3jX3GmHrTV+4eqgvZF18yuB+XlRvPz7q/5EzZIqJiYkd3Qoet/4T1YkJou42ouYzhY3VrxAMbMUgwxGqIXiic0LmosOkYUpHotw5UoApOJTiRiu2eTGWpCMiBZBy50lpoIJTio9IcVTK5bBEokyWu6+2z7my74uMiVxpYSEOjXc9hvXlMY9+t9+IBN8jvWiEq6Peeutqupd7nzRCNncWExM7gmHKzzOwz09p4PAaoeCl3pA1gp7U3qbBbo+vqfpbOzRuS6JUbU/ZMcU5BkSl2udJEUw1EUyRdNI58qSwgbGubo5EcyjeKUHaMQlIibJZ8XDlzrnSct9naRWiV86Yx8K4F7EO0r2+wQhb8+j9Q0ZjoI+3seY/Tqrz/7V/nuRfiYmJOYYin9iGxgiZlxJMhX3R6pk0cHzojZjfFrX24ac23orGHljyWjEH4ESh4qNSmOIDSOmIFCAKe+4FSSiBgDwpwBTqSemVe3A0CSNSkOOIRKJckPsBQSe0I2rbLnJFir/v0i08WKL2VY9WjIU1gK6t3qi10hsOjKXjrfXWB84sQP0rMTGx/DWsbkGNlpMG1fyTLxws52m/kDWbwGq90VC9lwaOb/kpzYlU5RtUuZ+g3dJ/d+dJ6ciUjkpxLSl6EueIFNeSsp/QOSp1hMiU2+FA7r+JRLkm3cdjkSvAFT2McOQXct1rGSG6v9uNhyRvNHiAxsvdpPdITxFoXXxKg3Ui8lN/ISUaxMTyy2qxWXI08IuCSLAPDWC3eCLmMBoUlnAeFZ7KEKHS9agSDTI5rBhE0eDujkad4rwHUDFAOQU5eZsYHZVytoqBoziDgCp+A2OJSIlEttwPEO3gKsMjVyxAFte/6qMQ0edxMmp96o0Ep9PfHy8MmxcW1FUVeh6VzZ3FxHLejq8d8IOioYG/8YVrTqKB6xJPJDjMEzZfJ20yosG9sScyXvXHg0XigSWHFAMpR/r3HJGCMIg64ik+VDcnmELCOTYwxtQeks1jBTlJ8flS2onEy+1oRKJ8lL4P2lVoB1w5YOW+JzNKUTtyZY+XNFY2Br+l3+8ywuYnvpA1k3RvUdisPOWxyp/5R/j/DDtWOMOwmJhYrpjxcMXfGnVmj8JI4CJvNPioN2pNo8HhQxq8DhU6K/2wHU2uw1QMomjQdkekYjlS9DdsYKwLciJPClN7sX33AFPkAE5HLSlnio9rST1lR6Ta1ZJyOQ6RSHS49D0C6chV/GpBKP4+zigRYHH9K86/4tXSWwobgkvpYWy4ETJvMkIByxeu+nfMFDjDsZiYWNaaOu572Km9Z6Tfz3BzE1A8QE+Cs7yR4McEUNuNhuoD9lNXtf3khShVooEjyxWDKdfvtABS+hV5Utguxt7AOEAgZZdA4DwpJyKFaJQ7VyqRg9ByOxCRSHRk6fslfloQ92zGgxUi2q5xlH9uCu4m4PrGGzZfN8JmizdqnldYb53oeXTAj6V6u5hYlpqn5fI/wTLgglBVwBcK/M6IBlvp5l9mRMxtWNWC3ADOo8pBmNIQpZ92dUQKUSoNUBi0ezdasTwprEwK0JMy8qQYpoZXqTNdSeeIQB0WkYJcTkEkEnVO7vsIDzAcuYqDq4wHLMiGKh5fewzvyz97I+Z79DrBGwo+4gsHz0f+FVIynKFaTEwsC+x7vwhZf3UKPR0VRoIXGVGzlW74VfQ09TU9Te3GzY/ESxagim78dgNDlipRNMotd0TK70zv6VpSvOfeiCrOkwJI6cgUolLtBn4XSLkdQSZI53S1k3MOx6xEn0FK9H0iUSqk76l2kSu6Z7MicqWF6BWS25udCBaKi0atzUY4uM4IWS95680Hsf8gqrdL7pWYWIbbySHr74zBlV5vXeBsI2TeRzf0RNKHuLnx9MR7YOUATHFEynmCdQu/w99R/sDeJsa0V++1y5OyNzC286TaVu5hQNeRqGyJSDH40LHj+AGDZzMYomI7zouEWlnHKuffaZ3NOvr0p0iUbOn7DUL/i0Wu6D7me991n2eFAFnOjhVFQ/vid7uNsLmCzqHJGzGv8UQCVSdGgv+FAs3OMC4mJpYp1jNS+TNvOBhkoAoHphgRcw3dvJvoRt7va6qxp/04OT33pv4gRKQAVJg6AEzpPCkU5uw3vEqdMdKOSB0WlXIP6HEwBcUP/JkgHUlKpET/f2eV6PMTKdG/FYk6K/e9F4tc0b3ckx6UcK9nTeQKojEJD7aIXiEFg/dYjQZ30tj8uSdCgBWxRnii5hXeRuuUXz3W7y+d4VxMTCxd5mnp8+cFobL/9IXNYk+46gpv1Gqim3kZ/by1EBuIapjKsjwqHZGCDotK0d9iESkCqMPqSSFPSiedY4pvZCBrI1JuxSJTDId2VAm/O29MpbromUp16bOV6opxFeqq8RXqmgkV6vrnytXvoElH143O6w30/143sZz/7dWkK+lzLqfPu3RspbqYPv+CpyvVb8fYIMURMWpXO7plH5M7qpXo+EWijqg9XNkRZnv7G3taUI8PicaPTBYS3DEuYxU2HnK90eA6b4M1lc7pAU/I6u8LB04yIhV/6wzxYmJi3WmelsofF4QCnoJI5aVGxGzwhs0F3oj5CUHUDuxpxU9IsTyq7ItS8eAZJ/weeVKoJQWQCiAi5SSbn+5AVH+e1mqLSmlHD4hKBFRZAVUuMVw55wXYuYIA6AYCo1ufL1N3TitVtTP86sEX/eqxOX41cK5fDZpbclQNdl4ff6lEPTLb/rf3zfSre17w8+fdNqWM4evaiRX0XZXqQvpOHNM5DkzhOGKKO9b48xCJOqL2cKVzruzIFcaDrIpcOcLYbOdf6RkE66CvMbiJZxgi5iRvOHgn6l8h/0qp477nDPdiYmKptN6NNT85GU81IfMsbyTwgNFgTSa9TzflAczl2xXTM7seVQyWnCiUW/i7jkhhAEWyeYmOSrWY/NQaW7k3woYpgAYPxPHw5AIo94CdDQKY4Lx0NAjnAJC6dKwdTbqOQOcWgqm7p5eqBwiGHp1tA1JofrFqWFSshrzcWw1b0lsNX9rrqBpBGkYauqSXal7cm/9teEGxqqPPGUif9+icEvXgLD8BW6m6a3oZAxwiYQAtHdm6zBXVQpvjuO1olp2n5Y5mCXCJOqJ2cDXajlxVuOAqWyNXLBrn8PCL/Cu80hi+hX6/2AhZESMcuMyoqyrBym7MTDjDv5iYWLLtpLpT/7ogFCgzwuY9JORRveNrDm7wRa39eh4fT0GZXkIhBlZuOYNjkStHCnkVqHAeK8pJEAWQ0hEp7az1AKyhKj4q5R6os0XnQA6Q/JbeX0Lggqm6308rVffPLCXgsaNR9QRAkYUEU6SmRb0ZjgBVrQRVw5Z+N1hBAKtWAquh9G/wb1tI+Bx8HkArSp8N2MJ31c0rYeBCRAzAdS8B1++nlqmbJpWpayeU85Qk2h/HraEqPqKV6HxFoiOpHVxRn0LOpM65wtiBBzK8xo8zGS8CK3vcrmHRAzKmBrfRuXzkDZkLfKFAE43xlxZEzALJvxITS6IVDer/Q1TtNSJBr6fO/A0ByCBvOLDEGza3A6T0004mTfe5YQlyR6Twe136wF65Z9eTKmmyuMo5IlJ65R7KIJxBIIXIx2/oaVVHpNzQlK3gFC8AB8MIA0mAf4dpN+Q5XU9AhSm5+2b41RMvlTDoAH5aCZwAUFoAIxb9DQIkdUT638U+h+T+fGg4fSeADX9rJPgKzS+hY7KnEGtf8Kvb6TiRs4VcLeR8XTa2Ql1MsKWjWQAsnJ9Es0Qdkft+19OCduTKHlN4bCElGo+yQoAsrCCksRyQReP7QQasqPmcEQ7e4wsHT/M21vxvj8aq/yclGsTEumADxg34o8IG1KOyLuc8qlBwDt2E79HNto2fdJAEmYFTfzGwgpwBTw98hVGTyyBgag8lEOyinKbqO8yMTe1hqxhEpQAZcLp6YNXRqHi4ih+Es1EarDRkICEdgHLPjFKe5kMuFKJGjYtsCALkAHAw3aehJwZEDih1RvFwpT8b32NPLdpRMA1XALxGJ6qFaUgd0cIxY4ryruml6ubnAVrl6hICLBRYZbhyFIMqKK5NRCK3eAxw3tt7C1Y5FdqzPHLlKAZWzqIjbzR4wBsx1xth8w1fGIBl3k8/9/PUV/6L4yLExMSO1bCvn7fO/FVhJFBFwPR7I2w9Tzfep96QdYiTHgmq0l2Pyg1OOhqlBzZd+kBXOO/V6BTmBEw1BzjpHBsYc9I5toshmDrHHZFyBtFcAqdEcsMUfsYKP0z5IW8J+VN/IDCpJ5ji6BQAx4EZDT+JwKg7lQjCGMCc42wgCBw8r1g9PNuv7n2hVN1G54TVh8jNQjTrkmcrGCDPp/PmaBa1AaJYLKddBLhEbrnHBPSTwyJXzpiUaMzKGmFcd5LcGbRovDfCge30cL2S/t7sa7Au8YWsItLPeYNnMTGxo1vh0L5/j339jLqqu32hwDi6oV6jG2093VAMVUVDnNUkacyjikEVRIOY3sAYPyMihSdIrNxrm9ozVR89teeKSsXypJzB8kgRKT2Q5poYrJw2AFxcOd6e8rt/pl8NdE35DVtiR4ggjkw5YJNuaahyR7V0RAvC35CrhfNAfhaibo/PKVEPz/LzOWLV4U2TnWjWWLucA9oC/UKDle4fidpPlJ/iscJ5tSNXem/B3IhcsQiuuDQD0j14VgIP09ZO+tuHBFhzyS9Ejah5YUGk4oQB4wb8wHEfYmJi2jy1ff68qKn8n5BHZYSs//NFrBCq85J2cniYN/d08qi6IUoVgyYIg5QGJ9eA5XMiUvbqPTsipcsgAKbs7WJMhimOSMUNiG4lGjxzVYAERGEADPj5t0/ZUSrkUWHaDOCBhHFACUBFR4USgU0mSx+3hi8NYHjF33GOg+cWq4cIsu6h8751SjnX3roStbOetWtzIS8LUTy0E9pLR7MYtiCnTUX5J/fYoeHKrtBuj1E5EbmCOHpFIj/A5XPgByLmAW848LHRYE3wRs1bCyPBKsxwFA3i/QelRIOYmH/EBX9m1FWd7I0ELjKigXpv2JxB0LKGbqqd/LQyxF4xgieW7oAqyA1VeorP/RSo99zjiBQNZohIYeVeXxrcAFKY3rNX79mlEOAAEYWSTYzboAo6b0wVT/sh4RuAgWmzxoXFDCDuPKZ4aMkWaahqi2a1rUTE7xHNworGOjrvJ+badbT+MLNU3Y2yDtQmAC1MGQKw0G52UdL204SJ2liUH+Kxg8YQvNcJ7e4iojkRudJywErn1Xoj5rdGY/BzgqvlnrD5DD2E310QMc0TkdwuJpav5nm08sfewTX/4aGnDbo5bidNpieRTwmsDugIFYrJpSpKFYMnCANQ3CCEiJTOk+pBAxVP78XypEwVIJiqbnUiUgRQmNKKH/hEbXIDFaASdZ9QC+quF0p5pV/j4mIGkVZHeJ8IVrJZsQjWUdRM7RBeYBcsvf9Fv7pjWikn8SOShTbDSkk7kmW3K9rTHcnSwCXRrPxQu8gV9QGMRxy5cudcuca1rBd8AfKvIKe8DvmMHUbYepVew9566xwj2vfXp0Qqf3biE1V/4bgbMbHcN8/APj8tGBws94asWwimnjSagkt9jcEvcdMUDkEeVWpLKLiBKj4ihcRzTO+hBELbyj27wjnypPBUiK1iUAYBQAWHpgc4HYnK54jUkYQoCwZ+tAVKKNzyfLl64MVSVTe/hGGCozoZlkOVSjFI0bnq89aRLLzH37HSMLSgmGt1PTrbrx7gSFYpFyjlSNb4CnUhgRZHsqgfIprFgOWCq0TXQZRb0uPLYZErN1zFPTTmgpAiwr6ilXyFHcHaTb9/h3zKNNJAIxy8zBMO+CS5XSynDR385JD1dyc/YR1fGAmeic5PYLOEboatHJ3C/DnyqUjJjFLFQ5QeYNwr91CUsw2mLHris7gMAlbuYZA6Y4Q9YImz6ph0PpUW8oUQebl9ql3gE0U9ARYapvIBqBJJn7tb8f8P4DNCoIXoHso43EGQha12MJWKMg6IYulIFqAe7a8jWLEoFuS6PqLckn6A05ErN1xpxY+PWS0au+0cXPIXeCW/QeP8AW/YXEevM8iP3EPvK4sGlf+TL2T9Fbkhyb8Syx37Rcj6UyNadbIvWn2eNxx81Ahj2i/4Br3uwNNG0bC+du0SQFWiG6iTcgMVVu5B+BlAhRIIJXHJ5gxS2CqGYar9yj0MWnBY7hwpjkq5BjRReyFhX7cfprCue65c3f1CGU9zIXkbQMUFN+k1HiTyWQArDZxt0Sz6Pf2MavCIZNm1svxckgKlHFD9/UZeYWgnvwNi0e721jptU4WAq0TXSpT9co9FuOaxhPYcjlyxAFgEV5jpQMFoO8Hd2ki/X25EAqONcOBmo96q8LT0+anjksTEstTUcd87Pur/kRGt/gdSCd3Qt1Bnn0Rg87ERNvdRp/8WWxjYy2idKFWim6YDYpByCb/TkSmOTjlRqVICqiqUQXBqSaEwJ0/rwfE4A1Mi6YFLQOq7xdEq5z1WuKF+E7aisaf+bEjQkapEcCGy24aFdoprK5ShGELtaBco7c3tijIO9xC4Yrrwmonl6rJnKxhoUcoCkSw9XQS4AmRp0JJIVm7pMLjihHYaEx2w0mNjTklHrziCpdNIzIPka7b7QuYrvrA1yBM1T6UH+v/CfrN42Hc8lZhY9hjqURWEqgJGqOom6tzDqeMvpBv6K36yaO1rP1k0AagS3CSdEA8YTlRKR6YwzVcMkIpFpZx995zCnGc6Fc7hYDAQ6YiUjkpJjlTHxUDlOG2UUsCWLrrYJyqT23WpHKgiuUFCdHRpyHJHskYss3Oz8HfUy0Lld5Ss0BtHt4tkjbUhC9fmLF5h2LatjsBV7kiPWVC7UgwEVxgrOXJFih9Dc0aAqyZsd1bD8kXMfb4G601v2BxvhAMPe0OV5/nCgZP8tf4/dtyVmFjm2vG1x//A01L545PrK39JnfgMb8SMGPWB16gzb0PnpqeIQxyhikWpEtwUHZB++tJPYIhO6dV8GEQwzWcSUCHp3N5zz3EgjhOJdyTuAQly/0303UJ7akg9H6UUOJ+qjPOpdLFPwEGurvrrLjFgQQ6cuqNZaOMWVyQLhUlR+f2eF+xaWViJeemzFeoCjmLZG0a7I1nt5FxT9zUWZY/0GKYjVzrnynDASo+bOSf4laiOXjm+pqH6APmhXaRPvOGqqUY0cHNhXVWhEan4W+xHK/sPimWkFQ0q+mHB4PICb7TyPLph/0AaR08Obxth82CPVmfuu7manyYS3gwdFAYFPHlpAaZQW6qsOaCqWgIqOLRtyxhEpeAg4iNS7FRcA5Co89JQhelUOOyrx1dwwU8upeAU/NRTfwJVyRfalCNZJORjcSSLhHaPUvsjkvUYAS42i0ZOFmqHIfkdkSxEFS8gEMY1hBOWDaJzQ+6x7TC4csbPnI5cOcLUIPwPryCED4qYG31Nwfn02uALmdcg/+qkQTX/5LgyMbH02/G1A36AOWtvKNDTiARuJ02nzvyxN2JupyeF/bGnBhJDVZKiVHivI1RY0YfSCCiL0HdYlTrTWcWnnUL8QOOW/puo84LThdCeuugnoGowOXOOUglQdYt0G2uIdU+3IoqF3DasLgTo1s9HQdISde+MUt5GCJGsy5zVhbGpcPf11YDlQJaAVvZIX8f229/QGJonYNUuegVh5qSpGuUZNlIbLPOGrJCvvmZAYX3NL7ELiKfF8yeOexMT634rrC//e0+91dsXti6hDhrlp4Co9Q1XTEeUakhshUZSpKNUGAzaIlQAKnu673QHqM6lAURHpCQqlTrBueqoBqaTUMDyOnLQqLeE+kst5MQRPYGDj4cAUfdIR7I4muVEsiAAF1ZmIun9sTko4VDKW+sAslCQFBtFXzbWLkiKewhAZa8wtKfUJZKVPdLjH6QjV7GcKxpLddQ/0ZibcyLIgn/qMawv+yg6//30+9WkZ731Vq0RMs8qCAU8TnkGMbFustra7/98UNEPTxkU+IU3YvbzhKzHjUhgoRE2NxY2Ve/iiri6LhWiVLw6I0EH76S4gCdBFSJU5hDUmapS/Wmw0IUR4wcSKH6gESVHGqwAVVjifxM55AdmlnI0BBESHT2RSFV6FbsODmDFR7JQwgGV71FXDNcOOXFIfAdk6W11AM3Im9P5WO4+IJGs7JAeC+OnBfUDa6LxNhfF0Sv4J6d2Iv1uH71uIaj60Buypnoi1l3eBsvvafH/VBLcxVJu2CKgIBI8AYnpnjrzbuqMI42I+ZoRNfdipR+eAgp5qWviDt1RufOo8DOm/FB7CgMCVvchQgWgwmDvjk7FDyii5ApOFECly1OgQOXNk8s5fwdFLOG09QbK8U5elDnSoMUrDBHJWtqLf24iyLIjWdi70M7JumNqmbqFrjFvFD2eQItrZdl9IT6SJdGszJT7QRM5dO7IVfxYmy/Cwz9qKCIPmPOvwtZmbyS4iHxcuCBkXloQNotPCFk/d1ygmFgSTR33vZPqTv1rgqge3lDgFiNkTSKyf5/AaiPdkHtA/eiUrieApAg3O4QoVS+6+THtB6BCJfQjRajcA4koNdJgBZAFVN1EDvehWaW88k87a7wKWGW2EkWyIPwN+VhNi+xNsRHJCjvb62CzbGwSfdPkMhuwnrGnCrlfuPtIAum/idIrPU62j1y1bdycaCzOWUUduGoXwQru9ETMddQeCz3RYF1BFNOD1n9igZbjEcXEOm8Dxg34I0995b+A2gvC1RcaYfMJAqqXfFFrU6xiOoAqiTAF6Scn3OiIUqGgJ/KosMpvwEh7UODolESoulUAKgZaGpBRowpTRKhRhZpJUXK8cMq6Qni8ExdljwBcuJaxFYZc+b0X/x55WViUAMDSFd8B1tdNdG2vM6aS703At+RlZZ7cD6IcuaJxleGq0eTxl0sx5BtgQQRZACz4Noj8D0oErfY2BJ/yRqtv9UXNU4sGBU/o+VjPv3RcpJhYxwyVaQtRjypinVMQsUKecHA+vf/IFwluRR4VgKqwuSYleVQAKrwCqhCqRmL6mdhklgZlJKbzoCBQ1e2CY4TOc6AKTvXROSV2pMpxxjriIcpe6UiWvp66oKu+tohmIYqFaV8UfcX2OhzJItDClLBdjNSulXUu3afxkat4JeprotRKgxXexyJXQwIcucLYm3eRK0cIEsRyhBEwaKjeQ8C1wRsJvuGLWONIt2AFfGVL5Y8dVykm9t0GGvfWmb/y1lUFvZHALUaD9TQR+xq60Q5ylAo0T50uWXlUEECK5dzM2Hqm2IlSYTNRPPFiEOA8KmcwEHWfYpEqEip3XzOhXN05rZQrfCPxWTtfOOR4Jy3KLWng0tEsjmTRe5RwQK0sbKtz34xSdQf1j1sn28nvWGF4OYE4tjZCpBP9Cff0ACeapfsWfp+o/4lSIzdcnU3XoS3nyp4WzNvIlSOAFfs83iWE8682GtHgXF+DNdAXDp5fGK0u7Bnp97Pjao+T4qJiRzZ/3al/7QtVFvnCgWs99YHR3nDgVepcXxmN1XtB8YhQ8Vx0kqf+dIQKKoqavAUNNkRGlAoDbmwQkChVWoRrAOeHwp/XTiznKSDk28CZ6kiGjmaIclvuaBbgConv+tq7I1mo+D4YG0XP8asHZvoZxH9HkAXA4kiW0680UOkpQolgda/ccIVCynbOVUD1yNecK7c4/8rxe0hsp9/5GoNbChuDHxkRc743Yg4sbKg+wzu45j+Ou/xyqX0l1maelsv/pKip5p+8DZbhqzN/4w2Zj9ANNcMbNr9AQU/QOk/5JXm6D9I3rode7QR1U5XTTY2pPzzN4oaXlX7pkztSBajCxr7YGgWRCRT+1EAlkSpRIuDCK/oJpooB4tgvEoB1C0eyKjiShSnlS5zNohHNQl/TeVntqr8n6J+i5MgNV2eN1pEre1pQIleOAFmIYA3pw6vf6XeHqG3eIr840ggHby6oD/bx1lf9r7/O/9eOaxXLV0PVdOz2bUSrzzJQjypkvWCErbVITvdGzW8LW+xEPi7ymcSpPy0GKxKgCsU+q3jqz06o1NEpiVKlT3BoACtM/3GkaoafHSQiE3CaDFWkRI5WlF86EljhZ/wdU8Y6koU+9Pgcv50APwN7GJap654r5611fjvG7neJSjcIXKVO7eCKI1dVvHG9e7UgXhON4/kiBqvmai58jVdqjz1GNLgO+VfekPkc6Q6jrqqk9yM1P3FcrFg+GS68MbDivzz1gSpvxLyBOs0o0mp6Ktld2ITpPicpvSFxB+uq+AnIeY98qpImi7ejOY2elDCQIo9KL+EWdb+0Q4MYqibY03+D5xXzlihwltphikRHEwMX5PQZDV74GYCO5HcsgLhvpl/dMbU0VvUdU4aXjq3kvCwUJtX9Eg9dLKd/auiK78OijutwuNKRK+chWCJXbSLI0jWwClv6KCNk7TAiwUW+sPmoL2r1P6Wh/MRTIpU/O37cgB84blcsl80zsM9PfaFAGekWIxR40oiYy42w9Zk3GtyDBD3uKLqEQgqiVJB++sE8vl2byuTaVBgocWPrUgrxN76oewSnBecFh6ZzqrDEHo5QO0eJVImOVe2iWU7Cu87NQuX3hoW9uU5WHYE7VhhiD0MGrWn2RtFXjbcT3zEmoNRHuylCB6wErpIjHn+d9/beglWH1bnSD8V5Lc6/aktuR2Fs8plbvVHzbfKpU4xI4CFvOHC2Jxz4bytk/anjfsVyyVCWv0dj1f8rrLdOPKUucDbqURFZzzfCga+xibFeXpqMTZKPJj1XDxXR9zBUcW2qAN/IuKH1E5Oo+6WdlU5Uv2ZiBUMVHB5HqshBwhkmcp4iUUcVH81CJIvroNHvogRbgKwHXyzlgqQ3Ty7jWllXjbP3MOR6Wc4+hrrv6gcCiWZ1Te7IFdqzbbWgDVVaicb4vBR8KE8TOjM9EWsnwdUbRkNgNLXT77xhsxIFRmX/wRwzX7jq37ENDYHUw95QYBqB1Tu+aHALdwaOUFGHSHIJhUTSoWSs/NNQ1V8X/Iy7oUXdL3ZKpBhUzdDTf7bjgyRSJUqm4qEqVoyUfsbWOsjLwmKJgS9hhWGJeohAC/3ydt7HsEJdPrZCXUSAhXEDMIUpLERa9EMC4CpRXxcdXWjPWOSK2hTFmcsJrtyrBQWu2qTBinOSOUhh7fY1BT8lv7vMGzVHFkTMGwqjVm8jctrfOm5ZLBut52P9/vKkOvPfvA3VPT1R8wqjwRxGFL3aGwns5k6APKoGwFRqo1SQfsKBEKlCOYU+rQRVowI88AlQpVexp3sSVmchkTgRVCVyjCJRshWLZEHU7zR84bWFYCu8sFg9TqB130yn8vukcs4D1CsMMW2IaBYeEHT/1g8NbuCSaNbRxeOyExFEKQas1sYDMcZwDVYCV3GCLyWfymUaCLLwnsBqvSdizcb0oC9k9cfMUWF9+d9j8ZjjrsWywU4c/du/QHXYgrB5vS9sDfVGzAV0oT/AZslcMX2IE6XC1F+izpFE4caLRap0TpUrUqWhSsAqPYJzgcOBo7n46Qp146Qy9cCLfmf6rw2q4NQSOUGRKBVqN0Xo5GXp3Cz8HTXUkPhurzBsK0x613R7leENBFvYYgcPCujjXJCUxhyBq46JV2VD9B5jdnBoQJU0mrySm9M6nDE+0diftwJYNVXbuVfkazE96I1amwi6VhlhazLp4cJw4OyiaOAXjssWy1RDglzvkPV3mMv11NdUU2d/gDr+PK4Wy2FKJNfpCFXqo1SQvulwAxY6kSrOqaLBLbY1jesmFnWv4FjgYPD+kmcqOI/loVklKrKwWA0hqNLOLd7piUTdrXZRrDjx/4MkeIItlHNANAsPB6iZdeNkO/n90mcrGbIgrHQ9z4nE6HtA52UJcB0ujNHIZUO7nD4ioMyhpiputGcfYmM8KZEPyGvp6BX5Xy0jZO2hv73jC1tjjGjgKtSPLBpU/k/+qP9HjisXyyQrbKj+H1/Y/I1Rb95PIDOWLuir3oi5mcm5tQ/X3khVPapEwo2mw8WFUVOVNJkqiOk/yanKCOlI1Tn0ikTgW58vUw/P9jNUwVnpGkQCVqJME/onR7JIelsdCL9DQdLGRb1VaIEdzXpsjp83Ca+d4edpQ+xliCR4TBsCsjD+YDuX+KKkAldt4nHaiVqhbc4YacMVyuTggVkiV0cXQxX8MOpftWBz5+AB+v0nRjgwzxcKNPlC5jWewVW9sPOJ487F0mknjq76C6z28zZUGL5o8Fojaj5DRLzWCJm7fJHgIdShQhiSSbmbolRaGqwK6RX7/llDA3RD2jemvkkT3cSi1MsdqbrYiVQ9SlCFJ37tuGKRAJEoQ6X7abza/X/Og0Hj4t6cBP8I9fNazs2yt9jR0Sydl4USI3qlIcAK94kWwxbk3Ef5JozZHLmi19MduCrWcOWM+Yl8gYhEbYTdS9gXa38cNr8lbSDN9UWsB3zh6prC+ppfntBY8xNPi0e2yEmHGZGKv/WGLL83XHW1N2w2Gpj2i1if4SKCjGMbR+Iixl/kFMt9k/UiuKsaElCnj7BvSPfTT6KbV5Ra4RronCpEqm55voydDfZ401GAhA5KJMoCod+iH3NfRjRrWS81goSIFqJZ6OeYLrTrZfl5mx2UFMGm0bgXYtEsAq1zaZyyc7MQzYrLz4q7r/JBGqw0XMUiV43t4UoA6ygCYDmJ7ZyDRT6aoGor/X4lAdYzvmig1hsJnEn+/b+OGzfgjxx3L5ZKQz0q1MJA0htBVV9fxHyExPWoCKz2EwUfQh5VbD63GyNUbukbC3VPUP8EdVAwGOGGFKBKnzhS5by/mBzHLc+Xs3NBIrB2SgJUolyQ7suYyo7J9XdAFoqTYoEGTx0iN4srwNsrDZH8fsX4Cr5POCeL1X4M05HfGGxB+L3z91yVBiycp865ik0LusZ/0REEvxyfexW1Dnqj5jaCqreNSGC0L2pegfwrI1r9D56WPn/uIIBYKqwgVPafRqTqdF/UqrXpNvgaXZDtWOEX2ywZeVSJLmY3iqcAqfOUNVtc/wRPe/pmFLBKjzDoc6SK3mNJOnKq3JEqSMBKlMtC33ZHs1Azq13dLAewnniphPMN7yfIumt6mbptShknwV83sYJXGl78rJ38Dpg6i6NZTkQrDrAS3Ye5oNhY7sDVGQRXlgNXKDit4UoA6xhEgMX7D8J/D62h35mHjIbgx0aDNcsIW1FPOHCtEa0qwQyVgwFiybBfhKw/RZSKdHxhQ+AiollsQ7OGyHYbgdX+9tSbviiVW1iKi1UjwVaTVwDK1F96pZ+sMQjakSo7p0pHqlBRXYBKlA/SDw8sPExoOX9HJAtRLAigFV1QzNs5PTLHBq07p5WpmwiyribAwgPKBWPa8rI0bLjvuRhoOfdf/L2Z7dKRKz0tWNxo17kSsOqAdPRK50M3Br81GqqxenC9N2Iu8kbNRwvCZg0xwM9PfKLqLzBz5eCBWGesd2PNTwrrqgt9dYHzqYEf8TUFpxDJfoyngiKiW15lgDyqDIAprAxBpArvexFUmUNMvtn0zSdglR5hQMfTNF7hCABVeBqXSJVI1CYNWjqahSgWollcN4t+Z5dyKInlZt0/w6/unl6qfj/FBi3kZl2JjaPpHsPUIe435Gb154hWW35WrgGWBkodudLTghK56pwAVtjUuWhYX/LvHMHaRf79VSNkPukNm7cSB/QzIsH/Ok7gquOGFQE9I/1+ZtSZJjXofUbImk2N+jmB1U4Cq4Pt6BZRqgQXqLulwQpPKxUEVZh71/k8AlXpEQY7HshJmL4AVD0ypyS2+k9DVbyTEYnyVRqwNGTp9/hbLJq1yC5QGqWHkxDBlq6bdZeTAI+Ny7EwBDlZiGDpSJYeB933ZUzO7+Pv4WyQnhrUcIVpQUSuJOeqE6I2s/079u8l346V/VFrH/n/bUbYXE3/D/YfvPzkcM1JnHtVW/t9BxvEjmZFgwJ/c0pdRQ+Cqat89YGhRKxLqSG3g157DO8bK5N/2AVJo3QdE0wB4mmlptXkfAMdqRKw6n5hsG6LVB2++o8dhuNMRCLRkdUumkWK1c5aZke0sEF5eIFeaUiQNdOOZiE363eTAFoVHM3CfYhpQ9yfqJ2FiNYAp3ZWtudnHRa5oofr+IR2KJH/EB1BgKzGIEeueJU//H6D9QlB1lQjat7vjVT2K6yv/OWAAcfJ6sEj2rgBf/S/9X3/3hMJVJEeIjpdRNpAjbsbJRN8qJyOpZkcpUpwEdIkvmEIrBD6xRRgwIlW4QbTYJXoRhSlTmh7/SSMOlWAqkfn2FAFRyGRKpGoY2K4ghzAcgt/19Es5GUhmqW33LGjWaUczbqZ7sNrJth1s2L1suLGSL53Xfev/tl9f2ei9AM0wxUdN0euyBeghqFErrog5F9hdop8fyEWpjUED3rDgW1GxHzHG65C9fbLfE+UH4+dVxySENN2fNT/IyNadXJBvXUBNVoTNeQKatQ9TKp6t+wMgim3NFgVNVi8+/mpw+kJbLSdWyVJ690vDGp4Asb7S56p5MGcI1U00DNQQeQE4h2HSCTqnHA/aciy87N6q5G6dhbBlo5m8UrDGXYCPFbl3jipnDc8v4pg67Kxdu0sgAkiV4g2J1ptGH+/Z5pw/AxXTwacacGAwq4bErnquuz8K4cJyN8akcA6XzQ4xVdv3ukbHCzvGan8mYMUYn1a+vx5QbS60Bc2bzPC5nRvxPy8sKl6FyiVi4fRazqKfB6rcJPwKsAmrAK09wHUTy+JbjxRaqWfdO1IVTmvZkIuCBwAg5XLIYhEouQoPprl3hIK0awmAixEsRA1BmjVz7PLOjw0y6/uJdjCtOH1BFmXO1vt/PapysPv7QSK/3/SrcMiVyOrlElwJTlXSZCOXun8q6h1kNhgsxEyVxkhK0L/z+negaf+84B8LixaW1v7/VMGBX6BeVJPxHqIGmkeaQt2wy5q7cuNd1jDZpj0DYJCoJUtpjrNqa6Om0rAqnuFJ9q2SJU9/SeRKpEovWoXzSJxbhavNuzFfwds1c0vVo/NsRPg736hVN2OlYaT7Crw9pY7zr6GsWhW4tpZ8WNCOtUWubLhiiNXBFeyWjBJQvSK618RKwC4GoJrCK5GeUPW5Z5wwIdcbQc18ssK68x/84StS7xRc4w3Yr6Nqqtc6p4aiyNVGRylgvQqQDyFlDabqmaYHa3im8p1g4m6RxhcoVhOlQNVemAXqBKJ0qOjRbPwd139HZFlbIKO3KxBc4vVQ7NLYtEsFCe9zCnlgPsdwIJV1zpyFa/48aG7pSNXgEEczxn00A240pEr9iFxPkXUAVEb8tQgeIHzr2v2GmHrS/rbbCMcvJ/4orTnYz3/0sGNPLBxA/7ohDrzV3Tyl3nD5nPUEF/ytF8LGidzc6nipcEK0arAUFOdOTLAT036hkp0s4mSL3ekCsU/kVP1MA3IeBLmgdwZ2OMHe5FIlF4lAq7hy+yK8K1LevHG0aid9eicklhxUjw03fBcubpmQjnvaYhE+ETRLF03C0onaOG4YpErXi0oOVfJFviBa1oi9yoa3EmAtcwIWQ8RX1RiSxyHPHLbTokGfnFKOHitJ2K9QCf+FYHUt9wgoM4Mj1K5pW8GVFjvM0z2AkyXMBXAOVWukgp48pVIlUiU+ToMrpY6cu5dO5pVrCIL7EgWqsBjpeGDs/zqnhdKOQke0axLx9r7GWIsOMeBKrxn0TiRLrjSUavDIlcEV8jNFbBKgjAViFWDzTUcvaLf7SAt94TNOl+o+tRTIv1yN6n9hEdqfuINWaeQfmc0VL9AnWkzJ6FBAKosiVS51YOOGZsso7wCbiDsnyVglXphgNIDJ5JcsaJIQ5VEqkSi3FA8dGG1IaBr6Mu9eOqwDlvt0D1/3wx742jsZ3jtBLtm1qU0Jlz0jF2kFGMG6ma5K8B3dySrXeRqJCq0H57QLoDVRRFg2dOCpIi1yxsx3yDeGOKNVp934sDgfx1fO+AHDo7khqGcgqeuptQbNh/1hsxX6MQ3MmXqKBW9T9hQGSguBurkVvnpqaMa+wGOtIFKcqtSLwxMLBoYzyOowiCKKQI8xWLFEQZjDMICVSJRdiserHQ0C9OE+BuiWXqVISALJR2QW4lpwztoTEBxUmwajalCjBeAKg1WOpKVaIxJhQ6LXHFCu1RoT7bAEwxWCNgwXFkfe8LWVE84eO3J9TW/dJAk++2ExpqfeCJmqafeepxOfDVOnKuoZmmUSoNVT6cYKJ4+cKPqmyf+hhIlTxiQ9NMmklixEezdNIAOogEVg6wGKoEqkSi3FQ9dDF4k/A2pAICsP2Cbneml6ubJdmHSy8fa1d8RydJJ8BhL4oErftxJptpFrpBzhdWCUqE96eK8bcAVQZY3am3xhKwXCkLW5aT/PH5clkeu/NEBPypoqC4zIuZgb735NsHUnkIkmQ1Bga/siVK5xZ2ewAoJiDq3SoAq9eIoFQntjYHp6vHlnGOBJ1UNVRqs4gdhkUiUW3KDFYAKkSy7jIP9d1SAR14WSjnwVjuz2k8ZXkXjBwALY4t7ijDVkSye2UDkil7xPadzzpVdod1diiGR7xEduzhyhSoDYA169YbNrxmuIsFrCpuyOHJ1PEGVUVddYtSbT1CHeZPnP1tq7GKfWRipcgsbLaPK+mlObhVulEQ3kSg50kCF11ikip5EAVVDXy6OJbrGD74ikSi/xMAFYUxwwAsaQuOEjmQh8R3jx02Ty9TVE8p5ZSFWFF9AYwsiShhrNGjpcSfRuNQVab+Bz7ZzrgBXErlKtmzAIuZoILiKWFt40VzEutwX7vvvWZlzRVB1sjdkPkKk+DYR4+7Clj52xn4W5VO5pTs6niowL46VHf11bpWAVcqEgUeDFdoZBQPvYagqVi2LbaiSSJVIJNLCWKCByo5k2a8ArSYaMwBYGD+Ql4npQkDWrVPszaIBWBh3eHoQgAWwIsWPS11VfOTKnhaUnKuki9oScIUVgwAsRK6oXad5otVXnNRk/puDK5lv/hH+PzthcM1/eMLWjQRWK/mkCKqyPVKFTk60y9EqrATsN9xeZcI3iYBVSqSBCq94mmyLVBWrIc7AmWhgFYlEIrdikSwSrxjG2OGAVmiBDVm1M0oVtsFCjazLnFys37pysVIRwYpFruhzsbrchiuJXCVbOnLFcBW1tlCbTiJ/PgAV2gcMyIItcE5pqP6fgrB1NZHhiwRWO5Cojk0TszVSpYVioHZBUCdaRVCV6kTHfBYGLw1WGNyuQaTqhVI1GJEqDI70BCpgJRKJjlUMVjRm6JwsbKuDcQR/Q5kW1MnC/oUPchSrjJPeY6sKaSxCyQZEspI57muwwopyfEc8XCGfV+Cq68JMkw7ycEJ7xPqIGKXRiAask0PW3zn4knnmr/X/sS90+s8JPi7xhEzMY26JUSKiVQlONpsEqMJqQIRq+7S2VVlPdLOIuiYNVHg9fwym/8p5+q9+XgkPggJUIpGoq3JHsTR0QS2Le6vwArtGFlYV3jjJrvLOdbEwfedEmHiMcsapRONYR5QoclUikauki8sw2GC120Cdq4g52De4qvzE0VV/cVztcd93cCZzrKip5p+MUPVZ3kjwKQKQL3Dwdk4VnRCU4CSzSYAqX9TkfQFPHS5J66kSQxVEAwyKf2L6T6/+w2CIJ00BK5FIlCwBqtrysexNovF71MhCpXcAFqYJUeUd45FeTch5WCSMV/HjWEfVLnJFY59OaEcpBl4tKJGr5Aj1M3lKELWugju9YXOZNxS419NU4zupzv/XDs5kgBHleVr6/Lm3riroC5stBFHv0Qns9zXZJ3DYiWWxMA1Y2WJyoqGAVfLVLlJFbXsVPSVyTtV8rP6zBz+8xg+MIpFI1FXFIldu0ZjTTK9IeEce1r30kPe7yeVcE4v3KHTGLY5cOWNXorHtWBWLXNFrbFowbrVgIt8k6phigR/sABMNzqZ2veXkQYGTjlPHfc8hm/QaCoAWNQV8RH1/MELWKoKpfVxWPkemAPUcNzo2alcFZTVgSqQHJ6zCQUV11KkCVOGJEYOeRKpEIlF3CVCF8cZeUYhNoe3aWNgUGhEsRNFvcgALkXU8EOqHwkTj27EqFrnScKUjVzItmFSBT/T2N4UtNRu8YWtqQcj6P09Ln586aJNGq639vi8cOMkXDt5mRM2XjKi1hZc10sEmOplslA7B9miwVHmzqfoOs1cD4gaQ1YDJEQYQDEp4j729UFLBXv3XllOFgS5+8BOJRKJUyR21cr9HQWIUHwVgoeAopgcveNr2B/oBEYof5zoiiVx1g6gtUVuzaEgNfv6Ufo56w2blSSNOTe+UoKel8sfehuDZRtic7muu3sCVTp16EYedRJZKJ633oicGE1vYUCfXEIDOH39DiI5dehDST3sYnFBLBuF2e/VfsUSqRCJRRkhHsJCDBcBCDha200JFd0SvsPHz/znRq66uHtRgpRPldZ2rWM4V+SYBrK4L+xUXtXI5qAO+ButNI2Q9XlBXVeggTvdb0aD+PyxotIp8YWuQEbY+KxxScwhQle1lFeKlwao3gVVNq6nOGhVo1/ndN4OoY9JghXa8kKDqOoIqJIki3I6BjJ8UBapEIlEGKBa90nJ+HyHAQvQKye2Xj6vglczn0rgGwMIYl2js64h05CpWoV2KiCZPDc60IKYEG6r3+0LmK97B5g0nNdX804BxaahvZUTNX3tCgbuMcGAFwdSBomF9c2oKUEuDFZ4U+g03qYMHYlOAAladEwYJHaVCG2JjVCxpvn+mX4UYqiRSJRKJMls6goXXhkXF6rE5JVye4bqJ9j6EeGjkVYP0mmgcPFa5c64kcpUaId+qR2tf8vXmNl+9Nc4bCZzpHRj4Zwd3usd+EbL+yqivusAIBeYZYXMPJ6oDqoj+Eh10NgtghVeUWcBcN6AKnTzRDSA6NmmwQlsCqm5+vlw9NMvPK2/cT4SJBjORSCTKBMVHsJB7VT+vWD1AD4i/owfFi1BY1HmA7ErkCg+fEMMVfZZsf5N8cdSqpYba0TzoC1vvkpoK64NVVsj6Uwd7Umuo9eAJB3zeuqow0d16VFZHGC0XalUlEjqsvY1NQJ2B1YACVp2WHmT0E9ylYwmqJperhwmqkK/QyjVkBKpEIlF2CdXceeyi96jg/sCLKCxapi6mB0eMdSmJXA2RyFXSBH7RBc2bqncbYXOlEbKuKxhs/qODPqkzT8vlf2JEq082woGbjYg5l+hud9GQPjmVrK6lOymeCHrTk4EpZRa6LA1WaD93pIqhigYmbC8hUCUSibJNACqMYQCsIVy5vZjHNmyLA7jiacEugtURI1dNErlKiqgNESRCsIjacYM3ZDUXhIPlnkcrf+wgUGrM0zLgx/SF5xBUTfE1Bz83GqxvMQWYE/Wq4qQ7KcoslDWbqo+rzIKAVcd0WKQqbvqPBySBKpFIlOXiB0QSxjKMbRjjsGJQR67c42BnBf9jw1WA4Qp716LGohuuoER+TXR0IUjEqwQj1n4vEtnDVq1RV3Wyg0CpsVPqqv/HE7IeMsLmZ0XD+uy3pwBzD6ogTlqn116NpqpqMdVpw+0yC/qpIVGHFyWWBiu0G0OVe/oPA5FAlUgkygHpvCuMa/hZR65suKqwI1f0gJ5onDxWaR8Ui1yNrOIZFcm5SoKwSlAHi8LWTqPenIt88p6t/f7SwaAkWm3t9wvry//eV28N8IYDk4niDvQc2c/OrUp0cDkgDVaYBgy2mqr/yLaNlwWsjk08iLgGEkDVLc+3hyqJVIlEolxTLHJF7xG5+sOLfnX9c+Xq/DH2tCDypLqS0A7FIlf0XsNVSRxcCWB1QtR+gCsuHBo216OkVGGDdSJv1JxM470AQ5V++pInSG/iyzEPmYu5VVoarBBiRbV1HXFJ1MFFiYUBRLfbJfS0hqe2djlVjhINTCKRSJStckeu8B67SGAbHFRpZ7iiMbGrU4L6IZ+LiNLr6SMIroYEYjlX8GMCVp2TnhL0hq3d9PM0b9S6uLCp5peeFs+fOFjUdfMP7PNTT8S80ggH5xc2BTcR0R3i7PkcnQaEYmUWqJOehjIL1HGx83iiDi5qLx2pwsBxHg0iV46rULdOKTs8p8o1EIlEIlGuicc6EkoxDCK4unNaqbqCxkOMk11NZtfSK9XPoff29jcSueqqMBXoa6lGux00GoLvGWFruFEf7POrx5I4JWgMNn+NcJg3bH5VNLTmILauydXyClroiOiYFc0mV7zVYddEHVvUXgCq2GbKEyrUXTSYPD6nhCNVgCmJVIlEonxQLHJFD5It9B7jIHJML3RqXCVjSlBHrXTk6gxErpBz1WQqn+PLBKw6KPANgkdQc/VuI2S+6akP3uapr/wXB4s6b7W1td/3DPT/tLA+cKYRNqcQtR3oMTw3K6wfJmrYng2WCgyx86sErL5bGqjwinD3NRPKeTNl7KeFJzY8uQlQiUSifBMi9Khz1bCwt7p/Zqm6diLyrdrGzETjaUelI1cANnv7m8MT2gWwOiZfE6YE+yKRfau33mpGDc9f2EVDv2dTUies6omqv6CL0tsbNh8lsFrti9jzjrmcW4Xta/BaRFDlJ+Kvbg2oAU6ZBXTcRB1aZAsDBBLVMWBgWwdspozwd/OitiiVJKqLRKJ8E8Y+PFi2oDr7/BJ+4LxinB21wv6zeE00pnZEh0WuOKFdKrR3RQCrHsMYrPYjuOQLm7/xhayfH1fr/2MHkzpuxuPV/2CErKu8EXMuwZSdW0VflMu5VRqsEK2qaDFVv+EBhgUBqyMLT11aiFRd62ymXDe/WLW83JaonmjAEYlEolwXTwlCgCsaEx9/qUTdONleJXjO6OSAlVYsckXv7SKiqHNlp7ZI5KpjQhCpEKsDI9YB4qBVRr35hBGtKvnXEf4/czCp41YwqOIEorQ65FbRhx/g2g6Ye0xwALkinbSuq62jYwIYGKxcnVfUJoAnR6qeBlSVq3sJqgbPA1QRUC2VSJVIJBJBOnIVWlCs7p5exons542xx1GdcxU/vnZU8FMAK7zi8+yEdqnQ3inpulZR65ARNbdgf2RfuOoK4+GKv3Uw6dhtwLgBf9T7kZqf+MKB04yQ9TzB1becW5XDU4BaGqywqqKGq60H1LkCVgmFgaB9pMqGKo5ULbYHEYlUiUQikS0NVo2LitWjc/zq1ufLeHsvABAeTpMBVloasDhyxTlX9t6CAlcdEAJJ0SCvEixsrlZGOPAlcdGgwrrK//F3dDrw+Kj/R8bgoJeA6m4Cq1cx9dejNffBCh2twAEr5FehzILuoPGdVkRAhYGAoOrCpyvUdc+1RaqanQEEkkiVSCQS2dKrovE+srBYPTDTr66ZUMHwMyBJuVZaGqzwynBF/sySnKtOCWDVg7e6MfcSF433hc0aT0ufn6J4uoNN321GpOJvjfrAub6QNY4+5HN8cGFzTU7uCeiWBissUS1vNtWZshowoRChwgCAG/bSZyt4F/f7aICom2+v/uPlxQJUIpFIdJh0rtUQ0sC5Jerm58t4wc9ZSc610opFruizYxs3N5Kfc+AqkS8UtRfYx9mc+VtvyFpCjHBLYUPfE38Rug4rBI/NCgab/+irN28zwtarRtTajYhVrteu0h0Mrz0aTFU1xF4NeJ6AVTu5Q9aAqttoUHh4tp9zBgBVrTRoSKRKJBKJjiyMkSjBgKjV3S/YRUN5NZ/z0IrxNdH42xlpsEKBa3wucq4CBFe9XXAlgPUdIgYqbOEkdkVg9ZEvbA0tCll9Txpx6l872HR0Q36VETV/7QsFQgRWXwKoOFKVB9EqvCJEilBpcKgNVhKxsoUbEjc8olX4GVvU3EJQ9dgcP+cLYLDQK1/iBxGRSCQStUmDFcbOR+jB9ObnyznXCmMrytYkE6y03JErpLlUDTFVL4Irt/8THUEILqF+J4JLDcEt9LuF3nrzhpOaav7JQacj24ABA/6oInLa32L+0BeyJhphcy/vCQioyuFoFaST1ns2mKq8OcD7A6KDozNCiTpqPgk3OkeqqE2wmfJtU8rUozQgxDZTJnGkKsEgIhKJRKI26cg+Vk7XLyhR980o5V0qMNYmq65VvNyRK/i2U4cHuKRQj4a2qJUA1lGkk9iH1BxApQQjYg72Npq/cvDpyFY0qP8Pe9TX/C/9g5t8YWuJQbARA6tEX5RDaldmYUiAw6VSZsEGKndo+pJnKtWt9HTljlRhkBCgEolEomOTO7rfvBh1rfzqxknlnHqSKrDS0j4ND8p9Ca7Kmm24gv8TsDq6sIAPFRIIrA4aIetZT9Tq7awOPHIl9t6NNT8xotUWgVUD/cP3QGhFmFfMg2nAWJmFJlPVcLV16tyuzpiPwvkDLnEDYv7/srEVHKlC6FpHqnSUSsBKJBKJOiaO9i/trcLzS9Tvp5api+jBNdkFQ+PFkSvndQB9D2ZnyhG5cuVbCWAllgYrBJuIkeYY9cFziZn+wXO5508cjDrcekb6/awgYl7qDVtTSRsw/VfI84r5A1alRO9cbZ06d6JOmU/CbumAK4SPLx9XoW6nGx9PVg0SqRKJRKIuC2A1fGkvflCtfaFUXUXjLOdBOWNvonE5WeLIFSJkBFd9CK4kcvXdAlAVDenDqVHESCsJrO7xNljG8bX+HzkYdbj5wlX/7glX3e0Nmau8WA1IH5IPRUHdYAVyxzQgdzzqdPGdMR/ENzUiVSQU/rx6fIW6a3opLw1uXFzMK/5YNDAIWIlEIlHnpMGqaVFv9fAsv7ppUpm6+JlKdS75Hl4oBMWNz8kSR67oe/B61igbrjhy5cq5iveVeS8Em5prbLAKBT42wtZwb9g8wzOwz08djDrcCiIVJ9D/HOLqoo3BQ5xblePTgJAGK6wIrBxiqv55XL9KT//h/XmAqgkV6h56kqqf76z8c4AqfoAQiUQiUceE8RRwhVI1g+nBFZszX0UPsvA9erFQ/BidEjnfh5wr1HDsETUT+sq8FzFCbHVg2NxMYDWXXq/3Djz1nx2Mam/H1w74gTdk+QmqnvFGzN1FQ5yCoPiARF+QQwJYoSgolp6iMi2SB/MNrHTomXOqSChYd82EcnUvQVXdvBIuZjfc2fcv0QAhEolEog7K9aCK6UBErW54rpx9D/J89UNuqoXv48gVfR/nXDnTghK5SiAOOPG04H6Cqg+MeuvhgpD1nw5KtTeUZ6cGPIf+x1n0jw8VtebHakDdaYqooZBfhXAowII7Wh6CFd7r6T9AVciJVAGoJFolEolEyRWnVDgPrIPoIRb1ATEGdydYcb4V3pPP48iVA1dFErk6XIhaERthYZ83bG7z1VtDC+utEx2UarMB4wb84JS66v8xwsGbCTSWg8jypcyCBitEq1Aw7bThdtQmX8AKoWYdpcLPmN+/bmI5T/8hUoWbHpEqfeOLRCKRKLnCg+uwpb1UZEGxunNqKa8OxAKqbpsKdBSLXLngShLaDxeDVWtfTAd+a9QHJhaFLD9m/Rykss3TUvljT8QsJbB6whsJvgWwKhyCBK3cBit0FJ20XtxkKqs1oM4cacNGjOBzXDhXPl+6oS5+tlL9blKZun8mcqpKuHgdr/wTqBKJRKKUSSexozZg7Qy/utLZ4obH6LgxO5U6UuQK27zF+898lg1W9upAzPL5ItaAokGBv3GQyrbCoX3/3hepGUD/YBTBxscAKjvzPffBCpsu473fmQYEqWMlRq6DlY5UnUPni/O8dGylunlyuXrwRT/vXwWYQn0VmfoTiUSi1EqDFYqFIs8KxUIxe4CxubumA91qi1zZu5CUtwRicOV1fGY+KwZWmNULWy9Tm1ztbaz5D6dYqG3ehlP/mSDqMm/ImuqNmOsZrHTme4IPzRVpsELielmLqU4bYT8d5DJQaWmwQqG4S8dW8F5V2EwZCZSAKp1TlWgQEIlEIlHyxA+ypJbFvdWguSXqrmn26kBUYu/W1YGO4AO1H0SaSN9hVQpbvRW5Ilf5PDXoI0bCAj87+GS+ZoTNu41I0HviE1V/4WAVgRWRli9q3Uh/nE/amk9ghanAIjpPlFnANCDCr7mcW4UbFDfq2fQkgp8vG1upbp1SZkPVomKOUnFOVYKbXyQSiUTJl36YHUJghTwrzBxgdaC9xU16olYQfCGiV3bOlQ1XOnKl02jyUQxW2JWGXokj1hA31RWErEC76UBvnfkrI2reY4QDrxF97cI/4sKgOQxWbtruRR3FGoptbHI/aV1HqnCOmP675fnydlvU6M2UE938IpFIJEqNeHUgCcVCH3+pRN0yuUyd/3QlT8elDawc4b2dc0VwhWnBqBnzoXkZuSI2Kmy2d6Xxhs1PjbA12hsOnl082PxHB6uOO+6UeutEapyQL2p+RkC1n8EKc4d5AFaFJN4fcFiAO06ughVuTIR0AVYX0s2Kwp/Yogbz+YhUMVRJpEokEonSIoy99jZhvbgg8x3O3oHpBCstBizyi22rBfM8cgWwcrb7I7DaaETMF4yQdVWPaPW/Olh13HEFddWFRtR8xmgI7ikaWmNXXM9hqIJ0Al5POk+sesD+gOi8OmkvUefKZgGqoAsIqq5/rlzVzrS3qHHnVEmkSiQSidInjMH23oG9ee9AbHyPh2FWgnG9u6TBCu8ZroY704L5GrkibsCsHoJQ3oi5k7TcGzXvLKyv/KWDVQRW4Zpi+p+nYSVgjxH98qN+lQNWvRstFRhi7w+IzptrYMWRKroR8Iqw8nUEVffN8Kv6BXbhT5n6E4lEoswQxuIRvDqwt/oDPfxiZgF5Vlipnk6w0tKAZU8L6siV7UvzKnIFsCJOAlgZEXO/Nxx41xc1HzUGm792sOq4406JWhVEmzMYrIbnPliBrNEJsBrQ32Sq6taA6j/S1XGcTpQLshPVXVBFN2vdvGKuUYWpP9zIsvpPJBKJ0i+MxVg8BLBC7uuNk9uXXcDDf6JxvrukwQqv8Cv9OOfKzM/VgjplqsE6ZISrvjRCgQajrupkhipPS58/L6i3TjfC1ixfY7XqMaxvXoBVrMxCs6lOdaYBYx2HFN+hskl4ssH56HPCPP0Nk2yowtw9F/6kG1giVSKRSJQ54rILBFYou/DES371+2ll6opxlTyTkglgpQUfiVI9OnJVxtOCtn/Nm8iVA1acxB4xt3lDVaO89ZbBYOVtCPyzNxS42Bs2F2DO0K4mmidgRR2hkmibyyygsyDk6nScbBbAireoIV3ybAXvPfXgLD/v+4cbVkOVRKpEIpEoc8QJ7DQu4+G3bn6Jqp1Rqq6dWKHOG1PJEKMfltMtBisnctWW0G7vLYg0G/jYfIhcAawcZjpghM0JBFg9GKxOipq/9kQC19EvX2awGpofYAWqRv0qc6jJHQPz2NkOVu5IFTr8ZQRVqFH1yOwSXvkXW3UiQCUSiUQZJw1WeB9dWMz1BTEdiE2Z4acyBay0OCBB0nCFGaBYzpXL5+aqAFY9hvdVPqwQDFvPe0PVPRmsCiLBE7z15g3ecGBJPoCVm6J7N9r5VYjuMFi5Okw26hwSnmoAWIAqlFN4dI6fb1DcsDpRXcBKJBKJMlMYq6FmEqqw30YPxyiRkwllF+IFn3lY5KqF4CpPIlcMViMAVjX0szklBlYn1Jm/8oarrqZfLs4nsEK0qpToGh0BYJXNqwEBUno5LqJuOlKFInNNi22o0kp0I4tEIpEoM6THajwEhxcUq7uml3ICeyaClRZ8p4Yr7LnLkSudc+X43FxULGLViDyr4BQjWl3CYHVyfc0vPRHzSiOU+2ClpwCRW9Wr0VRVQwK8PyAiPXqlQ6JOk8mKQRUJ4WLsiv57J1KFndJxcyJSJWAlEolE2SF7dWAvGsN7q9oZft567JzRNlhhzE/kC9Ip+M74yJWeFtRRq1yMXPHWNljwR+zkDVszjGjAUsep7x13SiToNcKBm42wuSyfwArV1nWZBR3pyTawwnHrJxgU/rx2Qjk/3WA1CaCKb1BH8TeuSCQSiTJTACtdzwr7Bl4zoYLBRc9MxPuCTBF8KISUFB25KnJyrnIWrFodsIqYc4qi5llV2IjZE7X6eyOBx+ikV/HSQd5YMPGHZLvcYIULjmrr6AC6Q8R3kkyWhioIkarrJqLwZ6kaPM+Z/qMbk/OpEty0IpFIJMpc2REru+zCo3NK1I2TytVF9PAMP8VRK+eBOtOE4zsscsU5V21Rq5wCLIDV0D48JegNBRYaIfNSX8j6+XGFDeYNRsRsJZhaw2DVnPtgVUjnV0EX+wyn2rruEPGdJBMFoNJPLYiyIVJ1zYRy3v4gNL9EDQFMCVCJRCJR1gpjeFs9qxJ1+5QydfnYSoaWTAYrLfhTiCNXw9uvFsxVsEJlBU84cO0pddX/cxz98XYCq1HeiPlePoAV6lchcT0w1FQD6KKjyFm2lFlwR6nw8yXPVqobsO/fDLvw55CXi/kpRy/XFYlEIlH2CQ/GrTSW4/3gecXq7uml6urxTj0rlw/IVLWLXNGx5mzOVfuI1ZKCsHn9CZHgCccZ0cDNRtQcTv/T2nwAKywB7UkXN9hqtpVZyAKwYqiC6JjRYQFVN00uV3940c8rR/hmdKJV7htUJBKJRNklBitnLEdh5wdmlqobJtr1rLIBrLQ4ckX+CnDFOVe8/U2bP4730Vmn+IhVKHDdSdgv0Be1bjQi5jD6n3IWrNwXsJDkb7KIoE3unNkAVgj74lghHCtWiNzyfLl6eJZTo8oJGwtUiUQiUW4IcAU1LEKelZ930LDrWTk7ayTwFZkmd+QKM0SxOleuyJXbV2edEkwFnhyyjs8bsIKwN2AvuqDYxuY0Z39AfdETdYpMkHv6DxB4+bhKdeuUct6gE0tx8VTDSeoCVSKRSJQz0mDF29vMK1F3TCtz6lllD1hBMf9K/gs5V33J92L7GxQRTeSvs0oCVna0qrjRUtZQJK7bsJLJYIVIFTri2aMCfJyoUaWrqaOcAupTIadKoEokEolyTwCrYUt7qYaFxeqeF+xCof1Htq1mzyZpX6tzrmy4avPPiXx3xivfwUqvBkS1dcz1IizJK+tcFz6ThGPTU4DnjyGoGo/Cn6XqcVfhT4lUiUQiUe4K4/uIZXY9q/tn+tWlz1aS78pOsIKvZX+rI1dOQjs2bk7kt7NCeQ1WBFVYDQiwKm8JqNOG28CS6OJngnBsCPcCrDCnft1zduFP3qIGULXUyalKcCOKRCKRKDekwQrvH5zlV1fRA7ZOD0nkO7JBsciVA1ccucrWhHYBK7vMAraxOXOkfYEzMVqlbxrMoQOqUE4BTyqYY29ycqpws0mkSiQSiXJbGOextQ3yrJAC8rtJ5Vy7kH0F+Qgo3odkutyRq1gRUYarLIxc5TtYYSNILrMwNMAXMxNzq3SkCq+4eW6gmwhQFVpgb6Ssp/8S3YAikUgkyi25wWrg3BLOsb18bAUvZMpWsNJqi1wFnNWCgRhcwWfH+/GMVL6ClQ4t0nmqkkY7vwrgkqlgBelI1QMv+rnwJ6rv8kbKjhLdgCKRSCTKLXHyujPm181DAjv2DbTrWWl/kciXZINikSsSZmj6DqtSZc0BVeSKXGX81GC+gxXmcDGXe+pwexubTAIr3BzoWP/3ZKW6+NlKdeNkgionUoUbSiJVIpFIlH9ygxUKQaMgNKYD8fCd7WClhdqM8Mdt04JtkSssOnP784xTPoIVoAohRUSrejVaKjDEVKdjf0C6mJkGVucSVF02tkLdOqVMPTy7hG8iRKpiOVWum00kEolE+SH9UN2wqFg94hQKveiZSl5ZlytgpYt023DlRK6iZiwwkrGRq3wGK6wGLGmyt7E5c2RmgJVOUocQqboMNaqmlPJO5ij8CZjSUBV/o4lEIpEoP6TBqnlxsRo4r0T9fmqZusQpFJoLYKXFU4NO5Iq3v8mGyFW+gpWuX4VVBwgz4qLpixh/YbtTACu7em4lJyP+flop72KOpxKdqC6RKpFIJMpvwQdoP4D0EGzIfOmzFeTLsrOe1ZGkwQrv3ZErd4X2jItc5StYtZVZQLV1O1qlL6L7onaX3JEqRM0AVbdPKeMaVSgCB6Bqdd1IIpFIJMpfabCCb8CD9/0zStUV4yoIqnILrLQYsEi6iGg5R65sn55xkat8BCtcBIAVLoo11O6E6ZwCZKiCHKjCzXHHNLvwp973j1f/uW4qkUgkEuW34BN02YWHZvnV1RPK2afAl+hgQa4oUeQKC8+wWlBHrDImcpWvYIX6VUhcr2m1VwOi/kc6wEpHqvCKGlVXT6jgauqoTdK0uDg27SdQJRKJRCK3NFjhPQqFohwPtjo7NwfBSgt++rckBERiOVcOm8Cvx/v7tCjfwApEC9H5KT/Rbj+6MLhY6QArd6TqgjGV6rqJFeq+GaWqfh6m/2yo4pwq140kEolEIhFkg5X9Hrm4WBmIDZnhy7K9UOiRxGDl+Ou2hHZ7b0FdQDTtkat8BCsfqWejpSqHmOq0NJVZcEeqeN+/ieUMVSinoKf+4m8ikUgkEom0AFbYHxbvB80tUXdMK1OXj8uNCuzfJfjreLjKmMhVPoEVR6uIaO0yC6YKtrr2B6SOGH/hUiXAlO70qJQLqLp/ZmlsixrcKICr+JtIJBKJRCIt+AvtK+wK7KVcgR0zIHhwhxL5oFyQjlzhvZ1zZcMV/LtErLpRGqywGhBJb+3KLHQTWOlIFd63Rar8KrygJDb1F3/ziEQikUgULzdY5WoF9u+SO3JV02qqkkY7eKJ9fjwHdIvyCaw4aZ2E1YAos4Bq67rj4cLEX7BkS0eq8J1IVL8ekaoZdqRqCN0cEqkSiUQiUUekFzg1LOytHptTwrt0IM8K9RBzsexCvOC7MfWJ9/1HBpQ11FTFTXbKD6YE0wJX+QhWPbnMgqkG0EVwXxz9PhVyR6oAVdc6UKUjVfrmSHTjiEQikUiUSNp3oOQCNufHqvJLn80fsIK0/0bgAnUpA+TfezeS3ydm4ZmqOBZIufIRrHoRWKHMAkCnO5LWE0Wq7pvpV2G6CXBjIFKFmyP+hhGJRCKR6LsEsBq2tJdqWtybN+q/Ypy9tQ2qsCfySbkqlGGAn8VsFOAKJZW07+9WuMqrHCtqXLxiDhb5VbgQqS6z0C5S5SSq69V/EqkSiUQiUVcFHzJiWS/2Jw+jUOj4CnVOHoKV9uXwuVjxX9licuoPfL+AVZKlQ4GYc0Wti/IWixsdFyBVYMVRKkhHqtyr/xCpohtAIlUikUgk6qo0WLWST0Ge1XXPlbNfO2d023Zt+SCcM4v8OqZC9UpBvfVNtwFWPoEVVgoUN5rKHGqqM5z8Kr1cM9niSJXzHlB17QS7+GfEKakgkSqRSCQSJUPwJajADr+CQqE3TS7jlYHaF+UTXEF6lX//kVgpGFClThmGbpsSzCewKiJqLW0yVc0wU/V3QqTJBivdiRGl4kiVzqnC6r/5dqI6KuVKpEokEolEyZAbrFAoFBv4I4Ed/s39kJ8vAljpmSjUqsRiNeRbaRZIxAlJVV6AFSiVhHBgRYup+g131a9yGj9Zcj8dAKp4+o/rVNmRKpRTEKgSiUQiUTKlU0vq5pWou6eXqavGV/C+gTodJd5X5brg2wGWgMpTyeeXk+9HcIWZII4Rkq58ACu9GhBlFgJDTHXGCLuzJboYXZWOVCEM2xapaquoLlAlEolEomRL+xfMjMDvYO/ZC58WsEL0CoEUbHsTmxIkLkgpXOUTWPVqNFV1qx2tSkWkSodbY9vUOJEqdPpWkkCVSCQSiVIhng2h1+jCYvXQLL+6aXI5FwrVD/vxPisf5PbzyLeyhga4vlXKpwTzZiqQXrE/IFYJgOCTnVuFFQgAtvPGVHHxT11SAZ2dnyTibgKRSCQSiZIlDVZNi4rVwJdK1O+n2nlWgCr4p0R+K1/EuWbUBqcOr+J0IPcqwXheSIryAaygwqipyqhBT3XKLCQbrNB5ceGuGFfBG2G69/6TSJVIJBKJUilAFYQK7Cg+fS/5ocvJH8E36ZzifFVslSC1A68SbHI2a0bQJRVwlQ9ghfpVPRtMVcn5VckFKx1mxYW7bGwFPyUMmlfCQMWr/5xOLxKJRCJRqqTBqnVJL9W0qDdvyHwlgRW2tRkgYMWvSNnBKkGTWAA51wJWnZCeRwWZYhrQajV5k0Y0cDLBChdLQ9UTc0t4WwGeApRIlUgkEom6SQArLrtAr4/MLlFXTyCw4ohVfhUKPZIAWJhZQkqQn5iAOCc1uVb5AFZYYlnebKo+w0zuYGjgroKVjlShs170TKW6+fky9egcfwyq9NNDos4vEolEIlGypcEKD/WPv1SibkAFdvJ1+VaB/UiC30dCOwqEVw1x9hJMBVzlMlhxlVVST2o8lFnAxoyAITRwV1cF4ikAn4WyCr+bVK7+MMuvwgudsgoSqRKJRCJRGoTFUni4R0rKLVPK+MEf/g5ghWhNIn+WL8ImzWgLXX4BedcIvCR9SjDXwcous2Cp6lY7WqWBqrNgpTsnSiucN6ZSXTOhQtXOKFX1C4pVy8ttRUATdXiRSCQSiVIpDVZ180vUndNL1RXjK3i1uoBVm99HW5w5MsDpQVyRXcDq2KXBqneTqfoRnaJBkzEFiM4JqMIKwDumlaqBc0t4JYZMAYpEIpEonWI/RArRw37tDD+X/8EuIBwQyHOw0tK5VtiFhXOtiBeSOh2Y0zlWDoH6m0112gg7WnVeF8EKKyzQOS95plLdNqWMdxJvXGTXq5JIlUgkEonSKQ1W2PAfKwORqoLpQAGrNiHAgmlBRK2Qa4UVgjFucF67pFwEK520DgrtocssUAOiITsLVhxGJZ1DYAVAu3ZCBXXaUtWAvCqnI0ukSiQSiUTplAarhoW91SP04I88q0uerWCwQmAgkX/LN4EFoFiuVbOpiohvmB2SMSWYy2CFhkKZhaBTZgFA1NmpQJA+hM+4fGyFumNqmRo8r60IaKIOLhKJRCJRd0qDFVaoD5pXrO6cXqYuGydg5Rb8OIRcac61GurkWhE3IH0oEVd0SDkJVtQwaCCUrbfLLLTtD6gLhXVEiFQh8V1PAd4qU4AikUgkykC583wjC4vVfTNL1ZXjbbCSelbtxblW9IpcKwRhBKyOIg1WmDfF/Cm2sdFTeJ0Fq7NHBzjahR3DH5zl5ynAIXgyQCdOA1i1vNxTtSyGejivomMStduQl3sd1p4ikUiUC9JghQd+LKp6eLafV68LWB0urmtFwo4sKL3ASewCVokF4kTjILQXHGpyqA+dCg0JuIpv3KMp9u+o8S8bW8nV1QfPs/Oq0hep6sWQ0Ly4SNQhORAqYCUSiXJcw5b2Uq1Le6vH55So658rJz9WyTM3AlZtQs414Ap7CAaGBFSvhrYVglAivjgm5TJYFRNY9Wk1OdqkG7KjYIVCoOiIWFVx0+Ry9ZATrUrHFCCAwIaDHvQzti0A4JXQK4QaWqLD1dY+Q0hoQx29ksiVSCTKVXEFdgKrgS+VqBvJd6FEEGZuBKzaxBErenUnsfcgzhGwSiAPCdRZijILw22o6tQUoBM6RW4VNrNEIdDQfDhnJ0EwriOnWgCqpkU+hoMRywLqyVdOVWNWnkGvp/F7USKhbez2Gb2iD7VbFYOWHfETuBKJRLmp4QRVAKvBc0s4LxjBAfZrjm+L93f5KB1ogY/HdKA51FS9G5OQa5WTOVYkUGdli8mNBajqzGpAdD6dW3XjpHL1GJF/y2I7p6p7oQrO31brklKGqSlvXavmvFur5r73AL3ex+9FiYS2sdtn9tq71bS3rlfPrjxbDVtSJmAlEolyVroCe/28EnXntDJ1xbhK9mUCVol19qiA6jvMTE4Se66BFRoE0SpQpzk0oPqPtKNVHQEr7ngQdT7OrXq2gjqmHa3CPoDdPQWI6b/ml3vQjVKunn31bDVn7b3qzS+eVZ9sXqw+3byEX0XfrY+/WajeWT9ZzX33foZTtG1sEYAAlkgkyiHpdJXwghKebbmOK7ALWCWS5oPTRpg80yVg5RIaA0L9KpSpr24NqAHOasCOghVCg3iP8Cl2CH/wRb+KLkwPWDUtKlRNiwvVqOXVatpbN6g3Pn9abdr5vvr20H7SAUd4Lzpc7dtnx96vuP2ee+MSuo6lDFactyZgJRKJckgarOC3Hp7lV7c8X6YuRgV2l38T2QIfQCgkXtFiqkLiCAErR5y0Tq+oto76Vdgf8CxEndBwcQ15NPEUIAEZ3l8+roJXAj4xt4QAp62zJurIqVEvzquCnlzRV81ac4d6d8MLate+b5RYx+3gt/vU2g3TeCp1+LJKB6yKBKxEIlFOiVeu0ysKhWI/W8y6oLg1wArTXniN9335Kg1WWB1o8urAxIxxzMpFsOrVaKrAEFOdjvpVDljpJLVjEcCKC4pSQ6P+x/0zS1V4QXFbflVawepOAqvpavverxxUEOuI7T2wTa3ZMEVNfet6NXK5ye0rYCUSiXJNOhcYi63gv+6b6VdXoVAo+TipZ9Ve8PUQZrhqWgM8HYiZL3AFmCKeNb5TuQRWBQ5YFTeZ1Dgmdx5utLhG/C5psALBImn9cSSto6OiwwKq0gxWa9dPU9v2fO6gglhHbPf+zeqd9c8TWN1AYGVx+wpYiUSinJPjpwBYmG1BqSAECrCNywABq3bSYAW/j5muipZAbGNmVBmIZ43vVC6CFWjz1OF2xwEcJWrIo0lPBV7wdKW6fWqZChHtc02QbgUqrcOnAteunypg1UmzwWqyRKxEIlFeCH4LQYHH5/i5UCj8ooBVe+lZLdStPG1EQFVhOrDRZK7oVK5Vrk0F0nFz8tkZI2wC7ShYobMBrNDIl42tUHdPL+WCoCOWCVjlgglYiUSifBLKLsB3DZpbwkWuUSgUZYQErNqkwQqpQ9ipJTg0wDNfmiviWeM7lQtg5Z4DReI6aPPMTpZZ0KslLqDOd+2EcnX/TLvSOoqtdfdqQFsCVsk0ASuRSJRPYrAi1c8v5hmYi5+x86y04v1gvussgk5UYUdlATBF3oMVolXFjaayulC/SoMVlqXeOKmM56UbUWZBwConTMBKJBLlkzRYoQ7j3dNRKLSC/aKA1eFC1OrcJwO8Y0upA1ZIMXLzxjEpJ8DKOfEeDXZ+VQ3KLGBVHxqqg2CFOVb8OyxLvW1KqXpsTluZhe5dDaglYJVME7ASiUT5JF0iKIKVgVwotILzh+HzpJ5VewE4IdSzQskmcIXO3XYzx3cql8CqV6OlqlrsxHUNSJ0Fq6vHV6h7XvCrurkl5HgFrHLFBKxEIlE+SYMVCoU+NNuvbn6+XF3i7BsoYNVeGqz6jwrwlniFxDy6jFM8dxxVuQBWeg4UyWZIOutPtAlIYrByNdp3yS6zYO8NeP3EcvWHF/1M+eicuiZIfKdNvQSskmkCViKRKJ8E3wWwalzUmwtd3zGtjGdk4POw+h2+Mt4X5qvawKpKBYag5IK9vQ34okNwlQtgpUN1SDbrNxxFQdvqV3UWrLCNDbYBQH6V7pwCVtlvAlYikSifpMEKMy/180vUvTNK1ZXjBawSyQ1W2Gu4F4GV5oy8AiucrE4uK2tGmYVAp8osQInACisCdecUsMp+E7ASiUT5JPgt7bvgzzATg0Kh8HlcgV2mA2PSYIUK7FgE17vR5EVxmjXc7HFU5QJYYSoQc6GYE8U0oG6cRA13NGU6WD21op+as/Zu9d6GGWrH3vUOKoh1xPYe2K7Wbpiqpr39OzVKKq+LRKIclwYr+DBsy4YFWSgUitkcAav2coNVsNWuZQW20KwRzx9HVDaDlT5RHwlkCcLUW9F0JGldyw1Wv5tUrh6d7VeNixywchTfaVMvd8Sqn5q99i4CqxcIrGSvwM6YvVcggdVbv1OypY1IJMoXtaLswpJeavC8YnXz5HLyc5XsLwWs2gRugNAu2DMQ6UVFztY2eQdWPei4MA2Iol6YM04GWKHjDXTtEZhesCpkjVoeVNPfukG9+cUz6ptdH6hDhw4yLOD126TrAOsQ/ddd5v7ew4+nazp06Ftup+17v1RvUPtNevNyNXxZBbdvy+IeAlYikSinhVpW2JoN9axun1KmLny6klcFCli1yQ1WfYknylrM2J6BeQNWejUgEswqWwJcZgEdpaNJ61r4twNGBtR5Y6rUrdTxkOiXvsKgbWomxw8NW1quxr32f2rxh0+oj79ZoLbv+VLt3L+JYWHbni+SrHVqK2nnvo3q4KF9DvqkxgBSe/Zv4e/FdyJ/7PDj6azQNl9yhA/t9fnWV9TLH9WpZ149i9oWUNWToKrnYW0uEolEuST4MewggpXud00r5S3bdABC4MoWswO1CcouYSFcJfYMdBLYO1SBPRfASldbR1GvZIHV76eWqSh1wJFp2yOwTS2LAQC91NAlOJ6gev7NKwkO6tXbXz2n1m6Ypt5e/5x666uJSdXqL8epN78Yq97dMF19ue11Aqyv1YFv9zgolBwDUG0n4MHnv/f1i+qtLyeoN78cS98/4bDj6bzQNs+pd9ZP4vZa/kmTmvbWdWrk8oA9BUhgBcBK1O4ikUiUKwJYIVAAv1Y7o5QT2C942vZ9Ala23GCFQA1vxpxPYIWwnD5RzIOi2npXd+xuB1bTCKwWEsgsTz9YuTV0iV+NXlGjxr32WwasKauv4ddka9Ibl6rnVl2ipr/9O7X4o8HqfQKfrbs/4ym1ZBmiYe9vnKUWffAEJ5NPfuNy9Rx97/NvXnHY8XRdV/HrhNfP59WVQ5eU8BSgQJVIJMoHAayghoW91YOz/OrGyeXq4mfbCoVK2QUBqxhYIXEd+VWnjmirX9VZucHqtillPBeNOel0TwW2Vy+euuIpLOQGpUhIlm9cZND3FaunXz1TzX//YbVuywqOMnXVkOu07+BO+rxX1IIPHlNPrzyTz6nZySVr4UhS4uPquvTUnwCVSCTKH2mwQqHQx18q4VmZy8c59awErFh5D1YQtrIpomNCmYUzCYjQIEg8T9Rgx6J2yevPl6tBc0vUEOqI6U1eby8kWWMKq3GRV0UXnqKiC062X5OtBSepCDT/BP4uRK/e3fCCOvht1/Ot9h/cpTbuWKte//wpNfnNy/mcwgv+l78vZefjqGGhRzUtJngTsBKJRHkk9mHkz+xCocVcKPTqCeXsN6Xsgi0BK0e9GixlDTF5GhBAlCywuhHlFub4yQmnu9xCIiFq5SRep1gNC05Rofm/Vk+v7K/e+nK8OvDtXgePOm9IVP/km0Vq4QePcxI5EvMbFhbEcp5SKolWiUSiPJQGK7xHGaGHZvnVdRMFrNzKa7DSyx5RuKsE+VWt9qbLyQSrzCkQml4BeOrn/496asVpnMyeDLBC9fOPNs1V8957UI155QwnAudxoCfxcYhEIpGo69JTggPnlqgbJ5UxSCAFRsBKwIpfezRYqrzZ5HoTGqzQKIka7FgUD1Yg+nwHq8aFHp6mS3bE6uNvFnJ+FSJWACpMN+YWWHVfVPEwcUQue6JyXW6npJyvc72oDyb8jiMpKRHQJPSVLh8D1Mnj4O9O4/dngJJz/t0jrAwcscyuZ3Xr82XqPAGrmPIWrNyrAXs1mnzip42wE89/6zRMogY7FglYHS4brE5Qz6wcwOUQkj0V+OyrZ/NgmmtghXOx648Vdbs4ST+LBno4pkTncezq+vnaDr0z1wvf3bV+i+/ual+xnXvizz9Wdb7P2otCugYXNlB1tR3SpWS0f3dJgxXqWf1+aqm6CIVCMRWYwCfmmwSs6BX7+FS3BlT/kTYUcaO4GqmjigcrLEkVsBKwOpJsZ9zmDJAUr7cf4sG2S46m87KPiY6HV1nS8dBx2Q5Ar4rMBOjSIKOdMn5n32sdlyvK8Z3nRv8v9TMNUbqN+HrxcXSkbXC8bVDUdh7HJhyr/W+7AoZ2m+Hf6zb47nOI67fcZ9FHOncc7u/u3Hl09d+nU3b7o+30vZ/onutYv0qtMA2I1e4Aq3uml6rLUSgU/s9RIt+YL8prsCpwTrAUZRaG29GqRI3UUQGssCUOGva6iRXqgRdLCSqK6Wa3O6NO/MsnCVglFo6ZB1MaQHHsyEWLLDhRhef/ml8xqKJSPvYjxFZEo5ZXO6+pUjXXNxtJ71uXlNIxGSqy8CS+djgerIhEHpsNEemu30X3FDkbtBuOEzXF0E6jV/Th80h8focL5zuKNHxpJX9eE32WfW72dxz+vbhuNnTie3HN0D5hah8cC45jxLKA8/k4jqMcC30vjnf4sir+bqw2xWfaYPBdgGj/HX2nga4Jjmc49RX7M+mcEn1fQuGa9+G2wzVvdsDeduSJvheyIQYghXPGKtzw/P/l1w73WT7WajVsGbU/fTb+/dG/O5GovbgAsv3vYt/vfHbC780UOX1gxHKTjx/3WWj+8dSf7BXODXzPefm6dLxdUif4MtRmRJ3G+2eWcgL7hWPselb5Dlfw/QxWxAGovF6RL1vaaLBC/Sqc9Jkj2xojUUN1RG6wunpCBS9HrZtfTDeGgJWAlX4yt5/y255Ei9mpwSFg78ER5Ggx2I597VwuSooCqy+8czPpFuc1NZpBnz9zzW1q+js3qUlvXM7tyk53mUnHVMmOG8fJhVHpPOxzgCPsSrSks7KdKdoODmrC6+dTO91Ix387n0ei80sknO+MNbeqyW9eoZ5acSqdmw1s8d/nvm54xfej0O6wpWW2I19mcf9Gcdppb93gfD6O48jHgu/F8U596zpq63PUCII7/V3fDa323/H/ti4tVWNeOZ36yhXOZ96W8PsSyb7mt3Pbjac2BBTa0bgEbUC/Q589rN8uKWMwfXJ5H94uy+6zNzrfcfRrMYOP9Rb1/Oqr1DOvnU3fb6qhL5fQZx9LG0D2dRnq9INxsXvmRm6LjvSFdEj3ARQ3Hv/6eTZk0f2vNWxpBbcxzrVt3OhMZDS50mCFlYGPzParW54vU5c+W8nRmnwvFKpZAnsFYu9hBG+Qy63ZI55HjqhsnQpE/aoAl1noetK6lhusrhxfoe6aXqoGzRWwErCynaCOMCD6g+gIBk2slnxu1cU80M597wG15KN6tfLTVvXG50+rd76azFsCvff1DNJM5zVVmqne3/iiepfeY+ue1z9/Uq34tEW9/OFgNe+9P6iZ79zKwPXMqwMYJhoWevkJW5e56K6BXjsYHMPY136jZq+9S7362XBuJ1Th70g74Xzf2ziT66HNos/R56Ydtv5OfB/OE9cN70cuNxkipr11vXrpvfvVko9D6rV1o7h/Y4so+/NxHEc5FvpeHO87659Xyz9pVjPevkWNWXkGgwX6yZH7sg21eEVEBnXcFn7whFr95VjnM+mcEn1fQtnHgGNe9nGDmrL6anLuNXwMcN76GOz7y8cRFETWAFVPvXIqgeTF1C9uUwvef1StoHNo67MvxD7/8O90iY91Jh37eLX4ozqGIpyTfY0LnfM9svD/4T4aTuA/9a1rub/Gvp/a4ju/P91y+sBa6rtvfvEs3/dLP46oxR8O5HtuBo0JE1ddxDs94Bqg/yGSxWNdAvjtLmmwal5czLUa75peRv6uknOU4f8ErGywQpoRqg4U5jpY6RNDtKp3o6mCdOJogKSBFQlzqyB3zDvfPrVUPT6HBspFAlb5ClY4NnZS7KjIWS8p5ifRMeSYJhFQzV5zFztWOFhUpt+y+xO1e/83fI57D2wjbVf7DuzoNuH79tD3oqTFjr3r1Tc731efb3mFwWXlp8N4wEeE58kV/ZzolZ3XAidnn2NqAQtTUIA6OOBZa+5Ua6jdvtn5AbdVovM5Fn2z6yOGyRfX/F49SdcF58HTgjg3es9RGno/nK4bVrcCqBaR8wMQrNuyXG3e/bHatX8TtdvWDl+v3XSdN+54V63+YizBwfXksEpdsHr4+eM4cP5ob8AdoO7TzUt4z8xEn38s2rt/q/pi66vcDye9cRlHoOwpXzs6ottAR4YQ3QKI4v8HIKzfvlpt2/tFp/vsjr0buI8BKsa++hv+bj7Ho/YlGzBxncasPJ3+bVh9vWNNp74/3eJ7jtoO9z02xN+0813uV2vWT1HLPmngqBauNaY4Y9DL0tHD7o1eIVcY/gzTt0h1uf/FUnXtxAr2o/CnCDAk8o/5ILQBhIAN9h8GZxALteOPY1I2ghWiVXp/QBB2KsDqkmcr1M2Ty9TDs0rI6QtY5SNYYdDjHCpyEngCR3ifndKaO9Syj6PsTD/4erb6atsqtXXPOq4on4m2/+BuHvA3bH9LffzNAr6OSz+KcLQCAz4csc45gqNL5UBvf88pHDFZ/OEg9SW13cFvu7ZN0reHDhIcvMWggCkZQISdU2bwtWtd4ufo2Ky1d9L/08Qw99mWpWozAVkyrhn2z4QjnfNurRq+pJyjEkeK2KCP49jgVCcTBGGz8217vnA+qfO2+8AW9cHGl+gY7mVoRWRK531hqyg4dezFiejU6+tGc6QF/RbwnYz9PwEXiNzgO/Cd0QV0jkfsRwTyDvTiQWXiGxfzhumZev90xnAu22hM+GLbawSvM9Wqz5/k/j797RsJ7s+gNiimdsL1wdiiIfy7cvOSJ/gz7CoC3/bIHD8v1rKBAlvDJfaP+aD8BCsnaR3V1pFfhax9LrMAsErQSB0VwEp3KixBvZ462x9m2isDsUSVO2OCTprLyk+wwsBvJ6fjmPCU+eSKPmrKm1czkMCBbd71odq97xt+wj5wcE9S9lBMpQE+Dny7h5+w8WQNqPhw4xyeuoSDH7UsyHlPdqItzjs1cKXBaswrp6klH4cZ9g5+u985ys7ZIdLW3esYUuDYcQ72AoJCNYxAZ+LrF7BT+3DTXDrvj7n/Ya/Krn6v2zZsX837aSIqpr870fkDJjRYYVPwt7+aRNC73vmUztt+urZfbnudN0xHNBJbUkUJlNGXRxNoIdfvNQKqL7e+ztEx7rf0b5K5qfqnm1/mnDPcy4DLI/UhtIGeDkVeGHKU3v36hZwCKxjGBDzUIBK6a99GjmStXT+Vp5/HvnYO9ZVy7gc6spjKB5p4IWqlAwVPzC1RN0126lkJWLH6E1iZBFZ6RSDzh/N6TMpGsCputIgmTXWGU9QsFWB1/phKdfX4cnXfDD8NUAJW+QRWPEVBjhFP+sOXVqkJ5Jjnv/+gWv3FOJ7y2LVvk3Mm2W276Tw+37KCnqafUnPffYAA5EJOwEfUiq8HD/aJ26izcoMVpn827HiLwbQrdoj+w3QUIlGY5kQeHLZhgtOeuvpatfKzYeqzzUsZKFNlAO3FHw7k6F+E7pdjA6urOKdo+56vyAl3DXAOHNqnvt7xjlr6SUQ9+UpfFZp3PLWzVz3zan/10ru11DaT6e9rk7LX55Hs860r1fS3bugAWPVWo5bXcBI88pUA/blu2/d8QYD/Ek8RvvD2jbxwAe2E6KIdLUYbpT5ypacDW5f04n0Db5tSpi4Yg6lAASsAJsAKpRZ6RM0YUOUkWOGkkLSOsBwy9VFtHfPBaIxkQJUW4ArCZ14xtoLrfKDeB+p+CFjlPljhGJoW+zg/B44ZOStIDP5syzK1c9/XHOk4pJL3lJ9eO8Tns33P5wQey9Qrnw4lZ38FwwG3ATn/IUm+JodHrFbTU33XwApQgigM8qxwvZo4AtBLTSGowjZMm3d/xE4bAJYq2773C86XwnQxyhcglyzR+bcHKztitW3PlxxR7Ioh+rR+x2o6hnr11Cv9VMOCAoaWefRAgOlfQGUy7t2j2bqtK3hVZUfAauTyal79h1yvvXkAVrjOiGBt3Pku52ABetu29fLyuNNdkSv4M65ntbBY3TWtVF3yTCVDFYIV8IGJ/GOuS0eszhwZUBXEGcjnRhWCDkEVlE1gxWUW6BgwDXj6iAA3BGfxxzVOV6TBCh3sYupod1KHA1ihUi2iVok6aC4rf8DKSaZFpIpekeSLlUqIdiAxGACSy4ZpmPXb3lSvfz6ap42Qk4MkZN7DkRwhEp8Tt1vH1B6sQmr99jd5uqQrBme1jeAQU4EAK9TywvTmqi+eVpt2feD8X6m1nXs3EIBHOgFWz3GOVVfBav+3u9VX21dx1OzplWfydCDyrT7aNI+garPzf6XW8PCBhQEdA6sgr6jFVCDytPLJ0Gdx3lhN/MzK/twuOi/OhqvURq40WDUsKla1M0p5JTyg4tw8Biudqw2+QAAH7JEXYIWNl6uSXGYhXiD2s4hYzx9TxSHS8HwBq1wHK45UOcUVAVXT3rqOSxZs3LE256FKG+Dqm10fkrOfyHBlJ7VjStCu/ZSo3TqqVIAVcqW27vmM+udE9cLbN6kpq69Rr342Qm3e/UnKozTadu5dz6vi0gVW6KNIRl/6UYg/F2UsPtg4h++1VEbq3CZg1TFDDhau/YcbX1IL3n+Yx9jmRSgNYj/MxLdbsgWwgk9DPSvsMnLDpHJ10TP5Wc8K56wDNGeNDvCMGBbIgT06VHFdK5vACkIVVORXYTUg5kJTBVbYlBKfjZWBg+eVSI5VDoMVvh+lFDDYo6CmhirkrGR6UnoqDCUjkE+GfBlMh8YiV3x9uvYUnQqwQo4WpvtQz+nlj+p4deCXW191/to9tmPvV5wzlh6wOqT2HNjCyetY8YdEfWyYjpWg3WkCVh03QO/OfRsYrua/Z8MV7jH0H0TPUzktqMGqicDqsZdK1G1Ty9Tl4+ztbfIVrM4hYRowODTAW+aBPXIWrHQYDtEqLrPQaifYMVg5DZNMMViNssHqd0Txj8/x00BQzKsoeDVFXAfNZeU6WHGkigZ5vKJ6NqaSXv1sGNfUybVVSsdqSHDevIvgipwzVkKineAotTPsilIBVojWfLPrA/XJ5kVcXPKTbxYz6HSnpROssLIPq84wlfvBxtnqva9fVF9tf6Pb+6+AVecM1x45gh9unEtw9Yh65tWzqH16pDxypRPYUQB78Lxidc8LperqCXbZBS4USn4wkX/MRWmwQrklTAMGhtilFsAdOQ9WPRtTU2YhXjwV6IAV9lFCmBQrA1FQTcAqt8Cq+WXUPCrgY5jw+nm8WgdTKqlcPZUttmnnB2r5x42xgR7OEEBwJId5LEoFWAEgUEds4861DFiozdTVz+yopRus7BIaH6qvqQ22EBQjr6q7o60CVp23Q4fsla2A4hfX3M57UKIGW1fvt6NJgxXeI4Edfg4lhuBX861QqBus7D0CA8QbOQxWgCq9GhChOdSWOGOEHaYE+KQErEi8tQ29Ys/A+2aU8pLUfNzaJufBigZ4OLrhywLqpffu49Vx+TzAuw3tgCkKXrm08nRuL7uid+evU2pyrPZxgUxUT993cAcBxf5uyyvSlu6pwP0Hd3JdNQAV2vNQlz6vcyZg1TVDH8CDwcpPh3KJF1Tx122VSriCP4NvQz2rm58vU+eNqcy7elY6XxtAicLjSFwv6sxWNlrZBFa62joS17sLrK4cZ+8ZOHBusWoSsMohsLJXAcLBYc8/bMD75pdjc6ZGVTIMAz3yrdZ8NYWdHwoacnV2xyl2RqkAK0RsDhJMQemy9CavH6J/f4CT+NOZE/jZluWdBKtbBKwcw4PBZ5uXcJ7c2FfPoTbqxXXZUjU2arCCX6ufX6Jun1qmLni6Mu/qWQGsILAFgjdccd3FIPFc8p3KJrAqI4rENCDCdWiMVEAVBLDSneqysZXq1ill6tE52NoGO8K3hU/zQbkKVnBs+E7slzf+9d+qlz+q5+0n0umcM9FQHwn7DWILH8AQpicYrBbDaXb8KToVYAXr7ghVvKV7VSBaIN3WNbBCHSsBK/RjRB5RJgNbZ2FTcfQXu6bc4W2ZDMGfoewC0l3unl7K27nB/2EqEL4w3j/mojRYIXG9cojJ2+bpguSdUraAFU4UJ4wTR50NNEZ3gBWWn2IfpQdftPOsBKxyA6wwsMPBj1wWUHPW3s3bnaAAaO4U/0yeIYcJmzhPW30tl2DAdbIdY8evV6rAKt3W+QKhyQKr9Bv2S+w4WFkcDcV+ernQD5JlqHG18rNW3vrGvt96OuNjxx9mvkvwZyMIrBA44HpWWBlIkJFvYIVzPp34oqylC7lVWtkAVpAus4A50N9SQ6QKqrTQoSDUsrpqfIWqfcEuFIrlqcMErLpkaQerxb046oLoy9OvnKFWfNKstuz+NK3TKJlsSKxdv301R62Q+4GpU75enXiKzlWwQm7Mog5vaZNbYPXp5iWxvQKxV+ERwYp+D7DCK0AU1dqxmhNFTsVsw0pXrPCcvfZOrqTPJRioT6H/JGrTrsgGK+RP9lZ/eNGvrp1Yzlu6wQ9y5Mrxibks8MRvRgdUv+Gm8jfb29jkPFhhrhP7A9a0mnyhU1VmwS0NVoiOXfJMhbpzaikBRjF3QAGrrll6waoXOzUMUEgOnULObc1Xkzm3QSyx8Yol1NrZNFfNWXsPOcMAwcHJR4SHoyk3weoQ181CBW3koXVsE+bcAKuDh/Zx1Al7NdpgRed4VLCyIzBDl/jVc6suVqs+f5pLDuDhBlFjTInZ/+F9utX906wHaZxFceLX142iNr2cUxaQ39jiRPqSKXsq0AarR2b71U2Ty9XFz+ZXoVCcI2pXgjGwSC5nwUpHqvC+B30v8qv6DbM3Xe4OsILwXWePCqjzn6pUtz5fpkLzS8ip5FcF9lwDKzg0rGzDgI5zWvDeQ7xBL1aSiR3ZsPIOUb0VnzSpJ+kJGmCF/QQTtfHRlItgheKc2OsOe94NW1LGUKGnuuKVq2CFRQ6vrhupxr9+Hl1jH11jD53vkaetbLjCvVionqK+sOCDR9WnmxerrbvXcU2uXfu/oVeI3qddm2jM2kpjX/eVYMGCjL0HtqmPv1moZq25k6PERwP2rgjJ6wgW8MrAl0rUHVPL1BXj7O1tcr2elV4AB4A8fTjqV5mqV6MNVjmZY6XBCtGqXg2WqsL+gHTiuMg8HxrXQKkQvosrsNP7G4niB88toQ4oYNVVSydYYWDCKpvhSysUKqy/+cUzvI1LqqYBsVILAyQGaCzJR+4Eai5t3f0Zb8PSaeHf82es4wrbGPyR/JvK+lv7DuzkPjB+1fkMDm15Vsee95FusMLihGReD0wBItF4yUf1auKqC8kB+nmK+UjJxukHK5Rm2M1lGbC/4fY9X9L30/njfDrZBihMivPANjqApKZFRfzw8l39Am2Ethq2tExNevNyLlfxzleT1fsbX+TteDAV9v7GWWnUi45mq482zuPk/K93rKVzpnuOrtlO6kP2PZe6h7KNO95Viz54gneEQN5aqsAKUasWAiusDER5oWsnVnAAI1/ACilG2MamnDijZ0OOgxVCcai2XtJkcon5M0c6jeFqmFRKhwfxHoXTHp2NCux2R2Ql6KS5plwDKwz4GKAwUM177w9q3ealPDjiCTHZZlcw/4gd7+ovx6qVn7ay88BSagyWiz6EBnZO9O8XfvAYf9aKT1vUW19NVJ/QEz8cPbZ4SYUhqvfRprlqxju38n6KaE/OlSFYiG/nIymdYAWo2rIb12O+cz2Gdfl6LPzgUfXimt8zVI1eUUNjQjEDA/p0ovNPN1jh3lu//Q1ejLDq8yc5v/DlD+voXOjcuQ0Sn+fRhPsISesoJMuLGzDNdwx9Am1kJ/n34rZD/h7yrRD5m/nObSz0tfTpFke3qhffuZ3A8R461we5vyz/pJHLs2Ac27zr45Q90KBoKMYNbNLMNeRexv2GLbgSt2lnpX1Zw8Jing68cZKdZ5XrZRd0kKY/sQUYA6yBhXKaQeK55JiVDWCFaUDQJKgSjdGdYIWOhfco9X//TD/nWXEFdgGrTlt6wcpgsHpqRT8eHLfu/sQ5qmTZIRpk9/IKwy+3vcYRsXnvPcB5Es9SGwJIhi0p58gGwvuYOuqM8O+HLsFiigo1ZuUZvPHwfHLyb37xrPp8yys0IK8nwEousHxLzuOLbSt5P77xr53Hx28XDD32JPbuBisACxKB4aBwPVZ/+SyDgH09zury9Whl0bV4uSTh+cYrHWAFIMbDA/o6IH/Fp80ELbcyyOA6jFhaRedSyueR6By/S2g35AB1fh9JG0IBpfgcTNNnmvQ1hnDPYToc21/Nf/8hGhcnqg3b31J7DmxL+nXEFCT6CLaWGsYrcu0p1COBe2fF9axIiFoNmluibns+P+pZabBC0KZqSICjVV2qX6WVsWBFUFVAssssuKqtuxol1WKwcjrVFePK1Z3TnEKheVTPKlfAip/wsBqQQADnNJa+943Px6i9NHAl0/Yd2MH7DL791SQadB9Wk9+4XD1N4IOpRzhTONXw/BNUaP6vWVia3xnZ//54vjZ46scWGIgYALDwVA2gw9Y8yVxphenSTTvf43abuvo6Oid72w1M/SRq80TqbrDaToD56eaX1ap1T6n51C7Pr76Srkf/JF6PE3gFHPpvG2AeGTC6G6xwzbDFDSrov/JpC2+XMvH189WTK/owMOgIbrgL/RG5PzgnfFZbpOpYIcv+/xD5RBvic6ILTs5AoY1OIFEb0T2HY8UU5tMrz1TT376RH9I+/mYBTy8n0/bRvfHxpgX8MIB+O4TADrmNXdn94EiCPxu2tBcHD+DrLnqmIm/A6nTii7LmAENVl6YAtTIdrHpwmQU7WtVduVVaACtdjPTSZyu43P8js7E6Q8CqK5YesMJqQNSDgfMrJuC5TK356nly6snbqBZtg5U8qz5/isDjWl49h5wIfK/9/fZ+e8lTofOKJ1j7O+AssYR90huXch0cgFCyEvMxXYpI2Ptfv6hmr71bjVxm0b1QwGCXqM0TqbvACseKvLMPN87nxGhE2HQNLgB2cq+Hvcr0WHLNug+sDtlQxZXzn+dabZhOQkQI341j1fdD4nPqqOw+eCxtkEju+zNz1f589XtEsMa+9hvqZw8TXM3nKFOyUguQML9h+2qeDkSEDBHS9hCfPMGfYXFW46Le6t4XStVlTqHQXAcrvGJ/QEwDgju6tBpQKxPBSieO4RWl5WtabWrurtWAbuF7AVgXPl3JGzLfPzO/6lnlDFg5gzYiV8ivmvH2LZwci2m7ZBmm/9asn8JPsBhs7afc/3UGQp2LlNwQPoR2Q40brMTCaj08WeNpGsfxzleTyLkmKwcEic+71JdbX+PcmtEr+vDTPFaBJTquROoOsAKk4FogUrX4w8Fq7Ku/4faPzD+R+vKJKb8eRxO+szvACm2K3B/0R0DVkyv68nnjXka/RNQDx4B7L9Fxio4utFszPVDgwQKbuGNsGfvauZyz98XWlbxvZTLgCv0CCyzWrp/K+V54OMB3ov8mOq6uSIMV8oj/8GIp75ML8ID/y+UEdsxK1QwziTVsqMppsMIr8quwPyDyqwA43R2xgtCh0LHw3ViCetd0lF0QsOqKpQesejB8IKKDJ3dMC8HxJgs40C5fbHuVnlofI+CwnRjyudwRq9Q58bYIjAYstOWYV05Xc969l1c27d7/jXOsXTPU9EGuDhLmUbgQ00iApcTHdbi6A6yQT4Qq4Pj8ia9fwFEarAS188FsoErt9TiyugustDPGSj20Nc7bXq1oRzm7El0S2Yrdc0gvoP6F7WcQVXrl0yHqy22vJy3HEblbKEWBzdC5hhw9zKRqdSDqWQGsYvWsnqnklXM6wJDIR2ajNEfgvM4YGVDmUJRZsNkjt8GKvgvTgFj+iP0BNdx0N1ihQKgmdnSy26aUqXoCK3TAfCi7kDtgRY5lscGD33OrLlLLP27kHKRkTJNhFR5KNrzxxdNcIBHng8gRBt1Ex5JK4bvhOFFZHk/Rz7w6gPM/tuz+yDnarhuW6r++7kleWq8jcomOJZG6A6xQPuD1daN5pR4SonF8+F6spup8gnVy1B1ghSnAz7es4Fw7QL6OrLRN2aa3DXJNuKboXwAsJPLjumKVbrIeZrCa9attb6gF7z+iRi7XZRc6XkPuuwSwgk9rpveoZ/V7p57VeWPslJhz4n1jFgu7t+AV54Vq69guD7u75CxY4cQwDUjfz6E5kOQZI9IIViR8N+p5nPdUJVF8mRo8r0TAqguWDrDiJ3b6jhHLKnmFzWvrRqmNO9YkxaEBNFB3B0+UY1aezk4T0YFUns/RZcMVBmAM9JgK+nzrCjrX5CwJx3Tgm1+M5cRdTDtmDlhhReY+gorldC3upfsTxTrJCRFQwPklOp7uVurB6pDate9rvlcn0gOE3d721BHus0THJOq6cF31QgDsf7j4wzq1mR62cD2SYciVRJkHfDYWC+C7Eh1HV4RVgZgORLoEggf3cj0rlF1wwIqUyD9mozRLDBgVUNWtpiptdjZedhgkEZt0SJkIViBGngZstnjuE7Wk0g1WuuwCNmR+nGhed8JEHTSXlHtgVaWmrr6Ga/hs2rk2KQ4NBTpfp8/D1hxw5hhkmxfp6ZbEx5NqIVqF64YoBUByzfrn1c696zma0VVDHwAQjHvtXCcSgqnAY3PaqQSr/Qf3sDPD4gFEJfFd2LfPhqrMiNKkGqwwDYrtdZADh5V/6AO4RomORZRMFdM9V6hC837N4xlqm322eUnSauRhahd7daI8iH1fpwasILyPLuytHkI9q8nl6gICq1xbHahZ4kxiC1RbRy43rwh0sUiXlHFgRVAFsAI9VtAJnzai7YKmA6ogDVZ4vXZChXpwlp8GbXugdnfGXFQugtW01dfxtN03vGKu6w5t6+5PadBr4A2dOUGenKftzNMXIWAHjv3a6HhQrwh5HwwxB3Y6R915w0qltRum8cpKrLDjaAjO+RjON5VghVWAH2ycxdGqp145ladD0X8zKVKTWrA6xAnrq78Yp6a/9TvOx0G+XSqcsOhw4T5AhBTv8fCGa7tl16cqGZXZ0bdX0D08enkNT7+n6ppqf4bpwIGoZzWljBdu5SpYnU58Ue6KViVikk4pU8EK+VWYBkSoTjdGJoDVleMqeSkqSv9zFXanIybqpLmg3AEreyubUcstfpp8l8AAT4HJeJpEtXNUQQe02dMuPRg40g1WmI7EMaC+1YIPHuGK47up7btqACusqHzh7Rv5nBmqAJRpBqttuz9Xr60bwVNgyKVDf7Ijh4mPJR1KNVjxik2+r87iaWD7/Ls/1y8fhfseINu6pISj13iY+Wrbm0lJYkcJB5Rc6C6wakU9q4XF6q7pqGeVu2CF/G0skAN7eOJYpEvKRLCCkKFfjdWArkZI1EDdIQAV5pjxetnYSk7qe/wlO2qF6cBcnhLMFbDCQASHhhIBKNy5bstSXm2TDFu/YzXnVyFR2k4sTb8jQ5vinPH61IpT1Ytr7+Qo0869XztH3XlDHtNH3yxQs+gz0Z78hOtErRIdi1upBKvNOz/kqvBIqmfQY+BLXZ/qjFIJVnhIQDHJGW/frHQBVG6DYwBeUdeFtkb/xjiAulaLPhioPtn8MhcN7qrhgeiVbgAriFcHLqPxY3Fvdd8MP9ezyrUcK/AEFqSh4gCmARHMSUrSulamgZVBJ4e5zpImS/UlmkQjpKN+lVtusMLKQMw7YzowmgeFQnMNrJ5c0U8t/mgQOfQ31P5vu7qnHsos7OGyDdjXDJEBewf6TAGrQn5FwuvUt65Xq78cx5vudtUAVh9/s1jNea+Wp9zs/fHSC1YoA4HPmvve/QwVXHICUMGRw8THkg6lEqwOHjqg3t3wgnrujUu4v6OtU7GvnCixcG018ADuZ625W7379cykRImxQOaVT4d2G1ihnhW2t3nwRb+6enw5l1yA/0vkH7NVA0ZVqWBrQPXKZbDS2fiAqh70PZj3PDXNqwHdAq3jWC4YU6mumVDBKyZQ+h9Qlcv1rHIPrPoyWH21fVWXHToiBLv2faPe+3oGbx6L448uPIkH2ETH0L1qy31CUcFJb16mXv98NO/M31WLgdW796onMwSsDh7ax8nC2AMP/SmyAOUuMuE6tBeOKVVgte/gLl7mj0KVqHUEuEx0DKLUCP2O7wPXwwyux659G50r1HnrdrBair7aWz06u0T9blIZTweeC7iCH8ziyJXmCPhz5FcFhpqcdqRnyhKxSaeUaWBVSCputDhT//Q0rwZ0SxcK/b+nKnl7m99Ps+tZoeTCcAGrDlm6wQo7+WNDXjiirtghcobb936l3vlqspry1rX0Pbp+VWaBFfKNJr5xsXp13QgCq8+co++82WC1SM1+9x7ejDbdYIVo1d4D27gQ6jS6DjgWTMnmE1jh32OfOpQRwZ5yOH8Bq+6VG6yGL6vkmnZvfPmM2rlvg3OVOm/dDVbwawAr1LO6fWqZunysXYWdAww5AFaIVvUZFuA6mUU5D1Z0YsjOL20yVXVrQPWnk+fGoAvqbpx0CWCFjnX+GNSzKleD5mGnc1Srzd0cBgGrI5uAVWaA1beHsIfhBvXO+ucJVq6ywSpjrkN7pQqscF9u3PmuWvZJI7Xt6Ryxwj2V6BhEqdFhYLUaYPUsb6/UVetWsCLp9Ja6eU49qwmoZ1WZ9blWgEO8osyCNdRU2B8QpZ10YCcRm3RKmQhWFU61dVxENEImgRU2gz73yUp1Pdez8jt0L2DVEcslsMKmxNiPbepb19H3ZCpYVXDezWvrRuYoWB2k8/qcp12eR+V7ghYbXvIHrPZ/u5unt1/+uJ7a9lRuY7R1omMQpUZusMJq2edXX6Xe/HJsVoMV9sV9aFapunFSubqQwAr76mUzWCFfG6+YDQNn9GiwVwTmLFjp5DG7zEJA9R95eKOkWzZYBTgUig0qkcDetLiY4UovU43vpNkuAasjm4CVgFVHlTqw2sVbNL38cR23rYBV9ytXwArS/gwrAwe+5Od6VhdxPSt7IVci/5jpwjSgBivkb6PaOnFOcqcAtTINrHoRWKHMAi6e3s8nU+QGqyvHVXA9qxARPeaiBayO3QSsukP5BVaAE0AKYCVfI1ZoS7SpgFV6lItghaBBeD7qWZWpS7ieVfaDFfw4yiwUYzWgwx6JmKRLyhiwcl6RuI4yCzj5dJdZSCR0KoCVrmeF5L6mRXbUKhfLLghYHdkErASsOioBq9xVLoEVBJ/G9awW9Vb3zSzlBHbsmZuNYKU5Aq9njbb3B+zd0BbQieeRLiuTcqywIrC02eL8KjRCJoMV6llhQ+aHUM9qgYBVR0zAqjskYCVglR9ghfED7Yr6ceiH2GUBNdxs+UgGjy+pFnZ2wP2P16Govk733Kovniawyq5VgVrwaahnNWRxb/ZzV4+vYB+YjasCNUcgYHPGyIAyh5iqZy6DlU4aw1xnzwZTVaLMwog2sHI3TiaIl5vS6wVPV/HO37UzSlVovlPPamniDprNErA6sglYCVh1VDgmAatkqj1UaZjCudsi4KExDFtNpVq4rigQjFcc18Q3LiKwGqN2ZCtYkUYss98/Ngf1rMrJ71WyHwRcZRNg6QVwCIz0G+4krhNzcJkFF48kTZkCVljyiKWPVqvJSyHRCHppZCaJOxS94tguH1eh7phWyktSBayO3QSsukMCVplxHdoLxyRg1RlpgCJ4WlzI54a9MPGK3+H/wd6IqLo/cpnJBTpHLa9Wo1fU8O4AT688g3RmSjWGvgPfhddxr/2fmrX2LrVmw1S1a/8m5yp13tIFVsMdn4YNmVHP6jLyefB92QpWKOGEUk5+vfFyzoKVE4rDakBUW0d+lV3SIPOmAbUAVuhUoPebny9TA18q5urrqGeVawnsAlZHNgErAauOCsckYNVxYYxAVMqORnm5TheiQ4gUDaH+B4B69tVzqJ9frKauvpY3CMc2U7PX3q0WfPCoWvpxWC3/pFEt+zhK71OlCLc/Xld80qze+moCjTOr1L4DO52r1HlLF1jpXUUQPLjnhVJ1jVPPCjM32VJ2ARyhgzSYBkTxcWxjg11edGAnEZt0SZkCVpjvxAmfgW1snAuWyWCFJD68v+65cg6TcqKfgNUxmYBVd0jASsAqu8EK44GdL+VTzYsK+XcodouI1Ojlfeg8T+fI0JTVVzNALfrgCbXi02a16vOnaKwar95ZP1m99/VM9enmJdQ2q9XGHWvU1zveVht2vJVyfb3jHbV510dq175NdL8ccK5S5y1dYBWrZ7UQ9az8dj2rp7OrUKgbrFBmAQGcolTVr9JKN1jp5LFedKLYEBHRKjREpkKVFo4THeuq8RW8UWXzYnRCG6xyCa4ErI5sAlYCVh2VgNWxyu6/OA9szwOwGr28Wk1YdYF64Z2b1YL3H2HQwJgEeMJ48vnWlWoDAdSmne8x1Gzd/anavvdLhhL0sYM0dmHT9G7RwT18n3x76ACNE4ecq9R5SwdYQdqfwb8NnlfCK+EvebaCyw7p4EKmS4MVAiIos1DSaLNHSupXaWUKWPVuNHnvHkSr0AjZAlbIs0I9K9T6wC7yAlbfbbkFVl/xVirY0gbHn4mbMLdiS5tVF6lXPxtOYPWpc/SdNwGrzkvA6uhC+6AvQejDrUv8nCs14fXz1aw1v+epPLTZui3LCZzW0T28k9puvwMwB0nf8t6R+I/uULtxcsDSDVaYkYkuLFa15OsuG5udYIUoG/KrUCtTc0ciJkmKMmEqkL5H+ZtMztZHQ2QDWOlQ6CXPVnJS3+MvldBA1laFPVEnzUYJWB3ZMJBv3/MlDfST1POrryangD3qMhCslpSq8avOVys/a1Vb9nziHH3nTcCq88IxCVglEh5MUTPJR8dewMc+YllATXrjUhonHlOrvxirPto0l+7b19WW3Z/wptv5ZOkCKwj+DNu2oRA2ZmeuGl9Ovi+gziGwQhQokX/MRCFx3RwS4HzuglwHK6goavIu06c5ZRb0fGgmC1CF6Brmm7EM9QHqcOEcrGclYHVkA1ih+N/aDdPU1LeuZ2eJtsJ36afu9Akrpzx8LMhLmfTmZWrV50+SE1/nHH3nTcCq8xKwOly4/zkxnfos+lHr0jL1FJ3DNLqn8DDwxdZXaczYzGMPolOISuWbpRuskD+M94/M9qvrJpbbU2vwgQl8YyZJB2gQCAFfVPL+gDZU5eZUIE6MXpGZj2lA7A94prM/YKZsunw06U513hg7z+ru6Si7YCexg+5zJWolYHU0O8RTEYCMWWvv5GmL0PzjVWT+iXY9mwUn8eqldAjfXz/vvzk/ZeSyoJq15k6FXJRd+zY6x955E7DqvASsDhegivstHTOiVFNWX6Ne/qherVk/VW3Y8Tb1j67ep9lvmQBWeMVOIzdPLucC2YAWXmgGuXxjJkkHafqPCqg+w0xV1mypIoAVcUdKkta10gVWoEWcGGpJlDXb+VUDnDnbbAIrHCumA7FJJWp95NrqQAGroxuenjfufFet+LRFTVx1ITuGYUvKePpt+NJyUkVahGOAE8f7yW9coV79bKTasP2tpJyzgFXnJWDlll2bqon6ThMdK7aBQZQKq/rWb3uTx4mD3+53zjC/Lf1TgfYrEtjvnFamrhxfwUEF9oNZAFYos2ANNVVxk10zM2WrAbXSBVY6FIewHMJz2MYG4To0QjaAFSgdYIW5Zly8G54rV4/PKVGt1AGxDYCA1ZEtl8AKtpvOB8m0r60bxauVZq+9S7245g5+xTLw9OguNeOdW+j1HrXys+E8nYLBuasOHCZg1XkJWLUJkSpURW+mNkEBzzlr76X2mKw20YMK+phYm2UKWIXml6j7Z5aq68nfYfeRTAcrvXsLpgErWmze0ByT02DVq9FikkS1dT1fm+mJ625hdQTyrbCP0sOz/ByxErA6uuUaWCHXau+B7ZxU+8XW1wg6FqgPN82l1/n8Pj2arz7YNIffb9jxjtpzYCsfZzJMwKrzErCyhXsdfaZ5URHnU81//0H10aYFasferwWqElg6wQpC3jB8WsPCYvXInBIujI3pQPg+KJFvTLfAEQArcAXKLPib7NSjlAKVVrrBqjeBVU2rqc4mQNGRqmwDK5ReuHxsJZG8XzUtlhyr77JcAyu3oX1wfrv2f0Ovm/l9erSZBmMcw5akXDO3CVh1XgJW6CuIVBXwFOBTK05VL717n/pg4xyGB7HElilg1by4WA2eV6zumIZ6VpVcckHPNGWaNFidQ681KLNArMEpSKRETJJUpROs8Oous5CJmy5/l3THupQ62V3TS1W9u54VdcZEnTSbJGDVGXPX0UmfUlXLR8Cq8xKwwr1YqBoW2Inqs9bcod7b+CIX2rX7q1giSzdYsT+DyKfpelao4cj+z8mNzjQBrCDkbltD28os5DRYIRyHJDKUlz99RED9lhogm8EKYdFbp5Tx9jYNCwWsjma5D1a5bQJWnVc+g1Vs+o/OHYs7Jr1xmXrj86fp/D93zkLsSJYpYIXZGESt7HpWFTwNmMlghfyvM0ZUqaohAV4NmLNgpbPx6fN5GxvsD4j8KjRCNtSvipeeY77IqWf1B13PijphLtSzErASizcBq84rn8EKfQTH1LqkjLemwWbFWFSR7KnqXLR0gxUEn8Yr3smvPTq7xK5nRT6QE9jx6vKL6ZZOKxow0s6vQuUBBHI4BcnFIylTusAKZRYwDRhsNVX/HAAr7Ph99YQK3gEcO4Ez3QtYJTQBq+w2AavOK5/BCgVAkVsFOJj73v3q400LklJXrSOGrW8whqEPJ1/O1jopmNLMNLDS9awQUIAfzFSwQrQK04AlxBq5DVbOiWG+E9OAoMnYxstZCFZ6uSmg8NKxdj2rJ+aWcEfMhXpWAlZi8QYnImDVOeUjWOH+blmst1jqoca/dp56fd0otXXPui6f97HawUP71a79m9SW3R+rjTvfU5t2faC+SYE20+djm6t9B3bQtyYPsDIBrCAuu0BghXpWSGBHnhWvvHMCDIl8ZHdLB2kAeqcNt6utI3FdrwjMabDCiZpD7PwqXJBsBytcxPPHVKkbJpVznhWAKhfKLghYicWbgFXnlY9ghTpV6B9YETh6eR81e81d6qNN82gs2eMcfXIMbYixBds2bdyxVn2xdaX69JvF/F3vbZxFbT2RgW7lZ8PUynXD1avrRiRR9HmfDeeacdjX8NPNL6vte790xsuuA1amgRXqWd03o5SnA3U9q0wCK11mod+wgCp1pgGZPxzFc0nS1d1gpcssFDeavAQS0apEjZNtOhubUpKQ0Mf1rKgTMlhl+XSggJVYvAlYdV75CFZNi+zK6sOXVfEuAK99NoLBJ5lTZtgBYdveL9Rnm5dymy77pIEL5U5dfS3vkwlNXHWRGv/6eWrca/+nxr3+26Rr7Gu/4XHyuVUX09j2GNeyQ/QK04NdtUwBK112ASsDH57tVzdPbqtnlSllF2JgRccDxkC19W4DKq10gBX2CUR+FaqtgyrREIkaKJtk17MKqMvGVnBlWtSz0vPRiTpotkjASizebLBarOa8e6966pVTBaw6oHwEq8aFBp3zyWr0iho1/70H1aebl6jd+75xjrxrBmjZsW+D+mrbKvXWVxPp3h6oZrx9MwHUb3k7p8aFXnvfTrQHjWUYZ1Kl6MICgp5f81gDyLKT81dS/+76OJNpYNW0uFgNmod6VqWcAgOwOiuDwApTgQjaIL+qZ0M35lZpdTtYkQpJuswCpv+yMWk9XuhUuJAomoZ6VqH5xdwR0QmzGa4ErMTiDUm6GqyeFLDqkPITrDwMN2NWnq5Wftqqtu75nIEoGbZz7wb1/sbZDFTPr75aPfPqADVqeVANW1pGfbIwtiE5wA6J89hCJ1XCdQX04HtGLjfVjHduVWs3TGco6qplClixP3PeRxb2VrUz/JxnxWA1yq5HmU65gzSoNlA1xOSFcjkPVhDvD4gyCzkEVgiDop4HwqJIYH/8pRIa2ASsEpmAVfbbJ5tfVrPW3qlGrajm9hWwOjblF1j14ldMA+L+nvD6+eqd9ZO7fL1hmPrbe2AHT/0t+OAx9fTK/vY4shjfZVD72v0Rv3PLPqbUCOMXYK6ZXnnz8zcvV2988YzauW+Dc9Sdt0wDK0Sumhf35npWWA2PabdMAiv4YxQeL2/p5tWAWt0FVnqOEyeJ/CqE6PqPbAvbxTdQtgnEDl0YV88KnVGHT+M7aTZIwEoskSEhePrbv2MHAkhgsYNJ3P5aAlb5A1YMNgw3PdUw6icvvHOz+uibeQxFXTWsuvtq25sMGxPfuJi+r1hFF5ykGhZhus+wQT+F40kiof/b39uL7otyzuta9cXTPFXZVcsUsNLSK96xUAsbMiNAcs4oO2EcSuQjUy2wBI4D349q68ivQuI6sUzug1UP+gwU6+rjKrOQS2CFelbXTCiP1bNCJ0Q9KwGrNst1sDqkvmXnkTNykozh/Pcf3MnL5Fd9/pSauOoCalu9jN6ODiRqe7cErPIJrHpw32hdWsr3Oe535Bwp6lNdta2716k3Pn9WTV19nRqxzOTNnBEZs8eQ7+6HqZAbrEYsq1LPr75SvfnlWLVz39fOUXfeMhGsEDAYONeuZ3Xh0+QHyf9lClidMbJKBYYEVO/GHAcrfWKoto55z9PcZRachslm6bILgEQksHM9q5dc9ayydDpQwOpY7ZA6SG2z58A2Hkh37N3AUwB4n+1C/R9csx17v4olCWOPtydX9CFHUsjO5FidmYBV/oCVDTs+3hMQ5/qqsxoQ90pXDPlZX259Tc199wE1cnmQgQr7D9r9MPGxdIcOB6urchesyJ8hYMAbMk8tU5ePrWTfB6iBX0/kI1MtHaTB92MaEAEcpB2BP7oVqqDuBisQZHCoqfpjPjYHwQrvL3CmAx+d4+dOOELAqp3lGljhc1B48PMty3mX/ne/fkG9u2G6/fr1jKwXNsn9kM5r7YapasUnzeqFd24i530G9Wm/aoIjIUhI1OaJJGCVP2AF2AH0jFperWa+c5t656tJauvuT+loOw9WiKBi/Hhvwwxuv8bFdF8vOCkjrnU+gRWgChErLNKy61lV2PWsyP9lAlhVDwtwypFmlpwFK978kF5RWh7V1nW0KlEDZbNwXuhcqGf14CwCK+p82VzPSsDq6IaBfvOuj9RbX03gbTqQdzT9LRK9vvD2jTmim3mF0/S3b1ATV12oRq/oQ4Oqn5yZnbDbkakXAat8Aisf39foLy+trVXvfz2Lo55dMUSFcb+9vm60Gv/ab+k8C2yw4j5op16kS/kEVpw3TIou7M11GzEdePGzlRxcSNemzOAJ1K9C4ro11LTLLBBzdMumy/HqbrBCMhnKzKMhciG3Kl7oVAO4nlUlkbyfbrTeariAVTvLJbA6cHAPr0ya814tD6bszAg47NUz2DMyt4S2xPWyHVnHc1kErPIPrJ5ccaqa//4jfM/v2t+1+lV7D2xXX2xZqZZ+FFZjX/0N7z+IMcruj4mPo7uEY8g3sMLKd6S8YDrw0rH26sB0ghVyrPrT9wecMgvMHbkIVjoEh6lArAisaAnwxoiAqpwFq5EBLruAelaRheSQltiOFtGrRJ00kyVgdWSLTUt8PVNNeetaaqsCNXjeL1Vkvl03BzV0ckpcC8hDbVnYaWgRsMofsLKvtYeO5wz18kf16gu65/YexB56nbfdBGYfb5qvFhCoPbOyP4FMD2fsELDqTtkPjnbJhfr5xbxY64pxbWUXMGuTyD+mUgArfO/pxBcVTpmFnAcrCInr5pCAOnNk7oIVpgIBVxc59aywagJV2LkzClix5Q5YHeQk9TXrpxBYXUPOsojbyk6kxYqo3BJgAGBgO7HOOTIBq3wCKy8dRwHXmFr2SaPasONtGj+6tj8gIOWDjbPVvPceoM89g/slzlPAqnulwQrvGxYWqwdmlnL6S7rASqcVodIAKg4gcT0t9au0Ug5WDi0WRU3lbwpwbQnUmABUIWwX30DZLoAVpBPYH5rlV5EFuOmys56VgNWRDWC1fe9X6p2vJjNYDaHjR1QnEx16pkjAKj/BavknTerrnWs4R6orhpW27298Uc197z763NMFrNKsYUvsdn9ktl9dO7GCF6R1N1gBqsATgDrMhiG/qrjRUj7wh4tFulXdBVY9G0xV2RLg/QGRXKbnQxM1VDZLg5WuZ3WvU88KYJWN9awErI5sdsRqvVqz/nk19a3r6Ht6CVh9hwSs8jli9Y5ErDppmQpWKCU0bKldzwqBhPOequQZm3SAFfwu+ALTgEhcZ/5wsUi3qrvACmUWrCEBdcbIgDrHaYxcBqvfUgfDHkq3O/WsAFao/SFglYtgNUXA6hglYCVTgV0xAavMBCsED5D6gtzic5+sZLDqLrgCR2A1IPxun2GYGbPzudMGVVCqwQpznHhFmQV7GtAOEzJYuRonV8Qdii4w3l9InQwUjzBpC1YHZmE9KwGrI5uAVcclYCVg1RUTsMq0qcC2elZ3vVCqrhxfoc4bY4MVQCfeP6ZCGqwwExZsNVWvRps5chascGIarFBmAWG63zxpb7ycq2DFogusOxXXs3qxVA0hsEI9K3TCRB00UyVgdWQTsOq4BKwErLpiAlaZCVbYF/e+mSgUiu1tuh+sMBWI3G1zqF1tPW1J61rdAVb0WTzviWlA3QiJGiiXhHlmJPFd+mylqp1RSjecgJU2Aav8lYCVgFVXTMAqs8AK/gyKLizmhVo3T7anA7sVrJxXJK5XusssxPFItyrVYIVXECQKdmEaECG7fAGr/gSSKLug61lhBYVMBQpY5bMErASsumICVpkJVo2LitXjL5Wo308t5eLYACtMzSXyjakQvqvfsCous4DVgDkLVvqkQI/Irwq2BrjGBKAKUatEjZNLAq0DJBEWvdWpZ4WoFTpjNsGVgNWRTcCq4xKwErDqiglYZRZYwZdhQVYzCXlWtTP86koUCiUfmOqyC5xORCyBnGbUxgwODTBrAKxydirQHa0qJ4pE0S5EcfIJrM6mjmXXsyrjMGl0gd0Zs2k6MBfBavGHA9VX21d12aEDrLbv+dKpY3UtfY+A1XdJwErAqitmg9UsAqv7BawSHEN3S4MVXrG9DfbHvWZCBa/81wvVEvnHZEiDFXztaSOqVNWQgOrVmONgpZPWcaI44dNGtG28nLNJ6y6BonG+WCERq2dFRI/VgVzPKkvgSiJWR7a2iJXUsTpWCVgJWHXFJGKVWWClBZ+G18fm+NV1z5UzUKUcrAiqEKjBNGBfp9p6D4dR0gpVUKrACnOceNXTgMg3AmzkG1j9lsAKeyhhk0pMBwpYpROsCnin/QUfPKLWbVmm9hzY5hxR58zeK3ArD/TT376Rjr+HimCnfQGrI0rASsCqK7Zz30b14cY5BFZ/ELBKcAzpkl4dOIh83I2Tywl4KtVZo1MPVrrMQjUxRrEzDQjuyEmwwklpsEKZhX7D7WhVosbJVaFDcYSOLvwlz1aqW54vV48SzSPPavhSAavuB6tCGuQ9atTyavXSu7Xqw01zecA7RP913g6pg4f2q3VbV6hZa+7g448sOJEH+0THIBKwErDqGljtIsD4+JuFNHY8pp55dQCDjD12CFilUygS6i4UetEzdp6VViIf2VUhWgWwQu62LrOAguRphyooVWDFZRbotV2ZhQSNk6viDuXAJLa3uX5iOc8/A6xGLBOwShdYjVxuqZnv3MYJ51v3fEZo9K1zVJ23r3e8o+a+ex/nGghYHV0CVgJWXbG9B3aoL7aupPMMq7GvnaOaFvtUwyKPgFWapcEKCex3TitTl42tYJ+farACUyBxncssONyRs2AF4eSK6P8P0An3HxWwG4GUqIFyWYArdCxMB943o5RuiOyqZ5UrYKWfbEcsC6jpb92g3vziWfXNrg+67NBgm3d9qBZ9OFCNWm7Sd9AgT06zZTEG+vQP9pkmASsBq64Yxp9Nu95Tr60bqSasusAGK/qOVI4dx6q8BivyZxAKhd4z3anA/hS2t7FnbuL9YlelU4rgX1F4XJdZyHmwwkn2brRUcKjJyy7zFazQqRCqvPiZCnU3dbjoQntrGwGrdIFVlZry5jXq9XWj1cYda5MCVtv3fkED/Sge6FuXICpZpJoXFdL3CljFS8AqH8FqgFr+abP6eucadbCL4wfyGnft26je3TBNTab2ayaw4vYUsEqrNFhFUIF9hl9dO7GCV8RrHxjvF7sqnaeNauvYKs+f62ClTwrRKn+TqfrQSSO5DFCF0GB8A+W6bLCy61lhQ2asDOTlqY4SddJMUi6BVRM5muFLK9XkN65QKz8dpjZsf5sc2gHnqDpvu+l8Pto0V83lJeBnstNsWEjnk4GOPd0SsBKw6qod/Haf+nwL8hrvJGdeao8d1K52lDjxsXSH8hmsECiAUIH9wRf96sZJ5ZxnBR8I/5/M6UCOVhFLIFp1xkjkV9mJ6+AOXY0g7UoVWPV06lf1Q/0qASvOs0K5/8fmlNBAIGCVLrBqXVquJrx+oVr6cYP6cusqcmj7naPqvGF645tdH6q3vhqvpq5GPSs8uZ3EUSucW/yx5LMErPIJrHCtC9SYlWeolz+qV19wiZMdzhF3zbbs/kSt+LRFjX/t/+zvWmjw/Z3O+03ACte8WD1OPu52rsCeWrDC5/YbXqUqWgKqV0OOg5U+MdSvqqQTPpVOHHCBhtDhu3wSqBqFUc8bU6Wuf65c/YFoHvPQ2JQZHTHTk9hzBazgyJoXF1J7+/kJev77D6tPNy/hp9+uGqYn9h/cRY5ttVr0wRM0+PXh88HgZyeyC1xpCVjlD1ih/+M+QO24l969j8uSoO4bVtN21fYe2MqrA+e/9xCfb+NCr4ouSO81z2ew4kAB+TIszqqfV6zufcGvrhpvg1WyK7DrtCKk2KDMAko6YYYM3JER04BQqsCqmMAKIbrTRwhYMVjR+aOjYd9A1PpAPSsBq+4Eq54MOXrQe+Htm9T7G2clBay0YUrw3Q3T1Yvv/F499cqp9L3F5OA8dG4QPVET2PHAi+Og48ke4XidY+4iJApY5RNYFZIMXolrLxh5Rm3e+QEdbdfBCpFmtBvuN6zy/f/tfQd8HNW1viG9Jy/1vSQv+eeR5oQYa2d2ZRtpVWdmJds0G0hCL6aHFiBAgmgJxUXamV3JcofgijGmN4MxNi2EQGiBkAQCgdBD7/b8z3fuvavReo1t1S3n8Pt+u9aK1e7Mvfd89zvnnrPgDhwcsZhgqU2Nmms853NjF+Nh8DY5PcRqbDj39obw0vsOCu99amH42jvP6k/ddysVYtVNj8izOvNaVYEdPnCwiBXyq8Axxmq1CihLYoUvBWKFJDLkVyGpbPICJQNWIqkC8N1BLHEs9KClTeEJl9WrelZr1fFUkKtCA7VYUC7ECgsq/g7IDRb7i+/Zm53aQOR8GINy9fKbT9JifzXXyrrorl341BKqsQPZvAVfPZYSlIMqfH23DEKsKodYqTGTCOfd3hiuuPeA8A+Pd4XPvno/z5OBMGyKXnrjb0TYFjFxW3BniglHsMbMNSjGZr5hQ9P/jcEHwRCrmUys6sJL/nxAeM+/LiJiBZWuf1YSxEo/z+o8KySwwwcysSIfmO8b+wpDrHZb4IRNs9yQuArzjqIhVcBgESsuDKr7A+JiVDqxwvdHAvvRKxp40KHsAgqFCrEaKmKlAGeDhen3f9gpvPvJ+eGb77xE++f+76Cj9vrbz4V/fe66cPWjvw1X0OKKhHYUJp1/p8s72dm31dJnqWHMLgnU5j4znJMhWX3Z/QuxqiRipTYPGD+YA2se/V34r//cpT/xwNh7778RPvfagxxyW0WbmeX37EtzeyKrZPNors25ra7X2AUhUcpWbMCBzg7Ireykv4H5fu1fTgwffvZKIkUv6k/bdysVYgV0rasJz7khGR41SMTK5GrvMt8J67uVWoWC5GVNrPAFQazwhXeep0JhlUqqDFgGhWpFAwLhwDOuwUmWmnB+CZRdwIJRjsRqwR2pcN0/ZnDJhffe719tnUL26ttPh0/85w52nEiyXf3Xs7ntDZSyhXftwq11kHvy+7smFj0uIketPvOEcA7txJVzsjVxAUEsfK0LQYhV5RArzGcGfde5dzSEVz90XPiPF9boTzxwhoT4l974B+dM3v/U0nDd36eH1zx0AqtkWF8W3rUrz7W5tzeyYp1ZswOvaf6aH2vgeX/x47Dj5pFh++rv89+AWoWN27OvPURrZv/Xl2InVgYmvWXqjbXh0Zc2sP+brNvZ5fvFrQV4BHMJ8qN7ElmDcIMyC+AeptNL0WCwiFUDKq7P77kg+RepkgBihYGFR5yU+M3VdWFWiNWwECuE4uDYUCj0+odPCR997vrwtbefHXDVCrY+fJ+TbFGI9PEX14X3P31xePs//PCmv54Z3vDwr8NVD/+Gd9nFjhsfOYM/8/X0mVfeN4WdFA4BzMoVQd1y5UqIVeUQq1z4nT5H1zo7vOTe/cOHnrlsQIhGIcN8Q42rp1+5h/7OyvAPj8/kNQZ9BTHXrnrwGCY8S+/+Ka9ni/84SQPP+4tJ4cI/7sa5lSv+fGB4+2MZ3ej9df3p+melQqyQ3oI6je2ra8PjVjaw7x9oYgU/it7D6EGMxHVwD5PbXTQYFGJFv9c4y6Uv3xMPLXShKglcduFCJ9x/UVN48pX1RFZqw7m3CbEaamI1cy2atlockrv0zwfxYvXsqw+RY+t/PatNGZwmQo7YVWPRx84aJ5pwDR5/aV3R458v3cqf+R8v3Bze+6/fE8E6le8bwiyqpMSWt/ARYlVJxEoB8w05hlhD/vjEPPq+T4bvr+9/mZNNGcjMy2/+k67H/Vzv6gkau5hrjz5/A7eywjp2/9PLBhz3PbWUE/T/8swVPM+xzg2UlRKxgmDQcXNN+MuV9ez7d0ee9UAQK3ovU2Zh53nIr3LCcZ093COfjwwrBotYIakMWfs4DSfEShGryReoelYnXF4fTidGjxMUkE1N0l8xotyIFRwbpPrZt9WEF/1hIitHf39hdb+d+5YYknZB4NC4GY6Fgeclgne5XtffyIks51OVUP0wPpAgXOhaF4IQq8ojViABqGeF8DdC4lBvByLv6IMMPUBxTTHfcIJQzbd3eP2CYjYoeB94k56/zX93IK3UFCsQqxMvqw/3JX+HPOuBJFYoszB+rsN53Gi8bLhHPh8ZVgixGhqwYkXECtfimEsbwnNuqOVwIAbjHEKxkqtyI1YqPKFLL5CTu/iefcI/0y5zsBf6cjE48Cdeup3DK0jQhQPfmkVeiFXlEauZa9FOCl0PGuk7HxLe/eSC8IXX/6o/udiWWCnlWIFcoVbjyVfWhQctUQnsQH/JFXwngNCiN9vllnngGoW4yLBDiNXQAIMKzB3X4shLGsLTr00yq8/VsyowSIsB5UesFLAwIYn1gjtT3EAZJ4s29NO5VYLBgT/18p/43kGBQIhHiNWWoxKJFb6zOh1Yw/l5NzxyGofCB7KGXLlbqREr1LJCLvEhaMa8sMcH5vvFrYEhVsivaiZ+AbWq6JQqg8EgVvg9IVa9gUG1pyZWh13coAuF1nA9qzk0EIVYDS2xQm5QcMsoPop95f1HkYO7JHzlzSc5hCC2aQMJevqVe5mMCrHaelQiscqpxGtRPHNMuPze/cL7nl4SvvHOC/rTi23OSpFYnUbECqfgB5JYIXl91/kOH46DgFN0SesGolgNDXL1rOha4GQg8qzQNxD1rDAQi7UCe7kSKzg243hQSgAFPf/x/E3h2++9qj+lWCF75/03wqdZsZoqxKoPqExipYBxgs8F1eqWv50XPvXy3QN2aq7crVQVq0MHkFjxiUB6j53mqfwqcA4WciIcpGgw0MQKQANmd7bLSWZCrBSYWOE5XYv9F6tCob+9LkmLn0r2E2I1tMTK7KKN811698/CPz4+m0/uSUhw0wZHCIcoocC+oaKJ1bpq+lxV5HyTXJLg7ifmhi+8/oj+BmIfZEKslA+FWIOOLqbMQtkTKxPrTNDv1NCXRo0JHItk+U6IFQMDAwDZhER6OupZ3VLDxAoDstBAHW6UL7FSQO4H+vnNu72Je/w9+tx13Ch2oNpulJsJseofKplYcTiQ5huuARLZr7j/CPr+lwxIk+Jyt0omVqZ+FfgEqq07XGahSOtXGQw0sUKXadMnUIhVbxjVas8LnfDAxU3hqVfW8QAUYjV8xAoOLrs2xo+L6Dui7QYSa99692X9acWiJsSqf6hkYmUAcoXPhoMj1//l5PCvz13L10Bs0ybEqjncnf7/CfOQX+WEY3Tj5YohVlCsINO1CLEqCC67sAD1rJrDEy+vDztW1/JgFGI1PMQKIUEs9LyTpn8vuXvP8NZ/dPDJt/46/HI0IVb9gxArpVyZMfP7u3bigrNoXP76O8/rbyOWb5VMrAyHQBgQvALCDXhGlHcUHQaaWAGQ6bzZDjNMIVa9wYVCiVjhuhy/sj6cdiMahEry+vARKwU4OuR/4DlqW93+WDZ86j9/lGT2PBNi1T8IsQKxGsfXATlXAJomo+UMlCv02BTb2CqdWAGTiFg5xCvGabUqn3cUFQY6eR3SXCLrcZ0JORW4MTC4UIEd1+SYFSgUigR2VSi0GKuwVwqxUspVgo+EowTDsj/tReQq4BNwolz1mBCr/kGIlQHmG07mYuzU8Ge+/i9Qrq4S5aqACbFqDndb4ISN3Uqtsoo1BGgw0MRK6lh9MDC4TAX2I5c3hGdcmwzTulBoaRCr/hf1K05ipWCUKzjAi+/ZN7zjsSx91nXhy28+Qd99cJrHlpIVJ7FaH7761tPhQ/++lMjKYXwPK49YvRU+++oDtBnwS4RYKeUK5MqE4lGGAY3RH3zmUhoXD4Svozm6HCJhq+gcK80fdp7fU2ahaHOrDAaDWNH/K8RqE0ACO3LPkIx36LLG8JQr6zgcyIVCQawIhQbscKE3sbpkQKolFzWxos+CRQv9BOfcVh8uu2ev8Ka/nhk+QA7w+dcfHhDFrpRt4InV/USs+kdYS59YPT1AxOp+uqalQ6wAzDdcC9NvEm2SLrv/EM5z/Nvzq+i+PoUmm/pbVq5VIrGCjzTP97jQCcfPdUPkb5vIWCEOUjQQYjW04JOBmlgduKQpPP6yeh0OpAFZ5MTqQXJc/XUAsHfee437za37+/Rw6d17FhWxUlA1rhCmwGe76K6dwmseOoHr7jz24prw+dce5pIMldiSA8Ty36/cF66le3fhHyb0mVgtumuX8I7Hs0RW/0LXsX8NazfQf1B9Hvj3ciIrh5QMsbr8/sPDvzxzxYCUG4Ca+u9X/8yEZCGN11IhVj1Qh0hQ+gTPcYgEG5r7n1rGawV6C+I6oRl4JVopEqtfX1UXTlnWmPP/fSVW8JcIA6r+gEKshFhtAmaA7buoOTxqRUN45rXFW88KhCdgYjWJF7l3339DT/W+2zvvvUqL5W3cFqU4iZVWrmgXDcyie3LBH1rDi+/ZK7zmwePD2/6R5lNML77xd1roB7aLfbEbO/ABaWmzS3j745nwudceImLVP2f5/oZ3iKA9Gv7pyQvCFfcewKSFw7lFNJ4MehGr+w4jYnUZkfRn9Tfpu6E8yD9fujVc8+g5HFLD9y9W51sYJufKps9th7NvraUNzc50P/fn+nJ3PtYV/u35G8KX3nysIkPyb777n5IgViBV8GP+zTXhyVfUs3jAPk8j6gc3B4QAQa7QY3fneao/4NisIlYVmWMFYtVIF2HSAkWqhFj1hiFWGDiHEKOHZJohYjW/KImVzc2Kodrc8XgnObBHWHFaT4QCSgGqlEPF2hIobWED507gBNCqR9rIwe6qSAz9nWJ0hGYnzSSLFjNUjQYZXPXwr8N7/3VR+NiLa8NnX30wfJEc+8tvPslKFkKd773/Jn9n5IhszTUqRuDz477hniOx+LEXbg5veuQMDtuAJHWtVWGcLQFUQKigcP43P/rb8PEXb+H3xHvz+Mj72x8ENZ7Wc8+5x15YE6JNypK7d2fS0nlLcRF1AxArlcM3JryESMOfnlzA5BIhVh4rfJ0Lf998mPyj9RveDV8ikn//0xeHVxPxX3Cny99/a+5LMQHrAXp5Yr4Bc2+vD5f/aR8ac2fSnFtIBOvG8OlX/sRz7pW3nqTx8ywTSxAujCO+NvRfORnUcWwcLrxzPJGWH/F1KXTthhsgVvBjyBtGOaF9FzVxj9z+ECsINOPnqPyq6kolVpDo4vSIJomokoqLiYtjZD2BAsgVJE60twGzDzSxQjiw0IAdLoBQwBEuuNMLr33oBFq8l/FJuVfeeoIXNByPRhhm83iapXz8P0+/cg/vvlbed2i44A5PLaScYzFuo78//FA7aSxkCFOAAIJcgWjCMV714HHhTX89K7zjsUz4538tCh959gpOdn/utb/Qd/4XEy3k/xS+JqUB3GPct5fpnv/r5buYDFxx/1Hh/DuaWWkE8Sx87TYGH7Gnazn/DocrbyO8+uR/7qS/Awf5XJ/GE2qOYTxddv9hejyh4W/xjifeRBDBWvTH3bhH5UP/vozJFcYKvg++W+Hv3Buvvv3v8I13X6D78k9Wc0BUl979Uxqf9fz9MW4Lf4Zih9rMKHVTKW9zb2vgTdjye/ah+3x4eANtbO54LAjve2pJ+Mhz13C4EJs+jCNcG1xHKJnlYgjBY96VCrHquLk2PP6yBhZVULdxa8OAAP5f8IbdFjSH7myHw4AQbQzXyOcfRYXBIlb1xC7RLBHkARdJiFVvYKChl+I+C5vCEy6rp4FYQ4tH8RGrmeQAUIIAizXUgGsfOjG88/HO8AHaHf+FSMRDz1zKCbibx6Xhw89eyf/PXU/MCa956Jcs9c8mkgJipfJhitERGiDvSuVeQW3Awg8yiH+DJEDFAlG44eFTwrV/mxr+6Yn54QP/voSuz2WcVF34mpQGcI9x36CI3Pl4FxPsxX/cncZEnXbgW64M4Xdx/fD/LvrjruHVDx7DZS1w4hTjY+vH0+XhH/45iwjuMeHv75rIISR1j4pR/QQw1lVbFxDT5ffszeQK4wVjBdcZ363wd+6Nh55ZSaTiKr4vt/z9fCb6eE/8Hbx/97pink9bAj3n9JhRZMsKs4S5tB4tvXuP8MoHjuIaWLf+fQYRjwt5HOHa4Do+/tJaPhzx7GsPljye+M8dRJzP4Y1DZs0ovXEodM2GF3OIWM0hPzb9ptrw2EsblOLUT2K1CxGrxm4nrM4otcpwjXz+UVQYLGIF2W7iXIfjo7hIQqx6QxErVXYBA3DqjXAIqtyCQaGBO9RQCxsWaOSANXIxv4vJGeBE0+VEJJCAi5NYW4Ir7j+S/x84AJCqubc3RP5WaTgBpa5BdVG7aeTLYPcIFQuLHpQsJN4i10ddo8M5l6bQ9SgV8Heg+waFEYoBTp2ht+JsGhPs9Lbi3qnfVeMJ9x8hQeSu4Vqp8bH142n5Pfvx+4Csqfc2KPwZhh/q86FeGkg5lCuMF3OdC33XQsDvX/HAkXRfDgmX/mlPGn8uvS/dk6L//lsHM+c4LeGWHcJgzU+YYM2h64e2OMjXW/qnn9I1PJCuy6H62hxBm7fjaaNzKqtbpQ5saJf96edMKBHiLbaNA/us2xS61u7IB7KOuqSRfR3qNm5tGBAwxAplFpKlUmbBYLCIFS7EeCJWUGVwkYRY9YYhVogjI4H9d9cnyVHrQqEa+YN3uIEFzuwe+49iV6g2h+huOh+Fvm85YWDu3UCPJ0UoCv+t4kR0DBX6TlsDfP9Sn1MfBHyvrZtzqkZWeYC/E9/fQtdm+GGIFcQBJK6fcU0yPHy5Ilbwc30hVvCN+P/QH7AGZRaIW1QksQLMF0e9idRsh+OjIBEmEa3QBaxEYMCAdOKaHEED8Ixr68L0GlUotBjrWfGiRpPb5BpBqcHuUT1uKfD7O+hcpTi9X/EuFFsDLHhY/EyCO4crtJpVPlD3uufe9T9/B/cfu2/k8EX/xpYj+pmKbxe/OYAk8LiJqJ9bfQ3WqN83uW6lRy77hp5rhzlnF5hzULZGcamYcgC+CxQ7fG8oxYWuyXACPgvoWlcTzriplkst4GAWfB2iVltDrKI8AaSsZQ7KLHhCrPCIRLPmWU6403xdt0mIVS9goGHA4ZqgiNqpNBCn31RDA7NYiZUC7xh1DkufUZY768iOeiCuUbEC32tA752+XoX+1paipMfTAI0X/v7lNqc2h7w5V+i6EPkqD9B3KeL7a4hVdm1NeO4NtZw3fOCS/hEr8IZdFjihgzILIFYRflH0GGhiZZLKxma9sGGmyzIeLizHSwn5F7FSgYFmEvsPWqoS2M/VfQORwI5BWmgACwQCgUBQTMBpQFMYtO2auvCI5Q18MCvq57YUJrcKatWEeS5XGBhDfALcwvCLosdgEatq+t26Ljds1XlWQqx6IzrgUHLhFygUep2qZyXESiAQCASlAkOscLr9pCvqwwO0WgU/tzVqFWCI1SRUW5/jcn4VN16O8Iuix0ATKwMksNd0emFqtsvMExcLKHQhKxVm0KGX0mHLGsPTrq5jxj8Pg1SIlUAgEAhKACBVEAOm6TILe13UFO7Rx6R1Q6x2ne9wBxdEvwpxjKLGYBErABfE5dY2QqwKwRArDKKDiOGjIbMvxEogEAgEJQBzgp3LLKzbMfzt9cnwiEsa2K/19TSgIVYoMI56mEatKsQxihaDQaxYsvM9viCN3W646wKHLpgqLVDoQlYycGISzH7fhU3cAgCtAObfMY53AIUGskAgEAgExQCTtD6TSNWM1TXhqVfVc+PlPcm3wa8V8nmbgxFgUGAc1QXAJ0omad1gsIiVuRBcKBQJ7Bf27SKXO0CsUJkWDP24lQ1h++pabmIpxEogEAgExQxDrJDCcuZ1yfDoFQ2cMwylamuT1g3gC/H/og4mqguASwixIkSJFRhn6xynz9VXyx2GWOH50Ssaw/NX1fKALdZyCwKBQCAQACa3CrWrTrqijlNaoDjB1/fV38MnTlrQHHqznXBsVohVL5gLAcbpzHI4XgoWCjYKFLqglQgMPsSi8RyFQs+6NhlmUCiUBi3IVTFWYBcIBAJB5aJXbtXaHblzCE62772wif18X0iVSRVCFQGEAZuiZRaEWCkYYjWGGGf9TCecgL6BdMElib03mFjpMCkq1aJi7QxdKFSIlUAgEAiKDVCpcMCKc6vIX516ZX148FIVAoSf7w+xmkTEqnWOy2lE1UKsegMXA48ou7AjkSvIepN1PSshVj0wAxHPIaOecDkKhdaG6Bto4teFBrZAIBAIBMMBU2sRbdjOuKaOGy7vu1D5s77mVhlegMNuqLaOaBfxEEWsNJ8oGQw2sYJyVZ1xw6ZZqm+gEKveiBKr/Rc3hsdc2hCedV2SC4UKsRIIBAJBMQFRFFMO6Pwba8NfrqznhHXjz5AjFfVxW4q9iRcgTWjn+Q53bQFvMFxCiFUEuBhVWsJDPQpcsJ/RRZccq94wDB8tAI4g5o+WAKhnhcEr9awEAoFAUAww6SnIAYZaBV912MU9PQGjfm1rAE4AYoXnE+c6YU2nW1pNl/MxVMQKZelbcDpwAV28PjLacoUhVqhWixogp15Zx4MWJy6EWAkEAoGgGGBOASKicvZ1yfCYFQ3hfouaOOrSX2K1FwG+EFUExmVd5g5CrDYBc2FQhR1Z/sj2xw3AhZSCoQosn+I5DaoDFqtCoR2raxWxknpWAoFAIBhmQKkCqeq+tYbLAiEECH8FHwZC1NfcqlwEi/5/lGXyZqs2NuAOQqw2AZPNjyrskPdySex0ISXXSsEQqz3puuC46nE0YKffVMuDWIiVQCAQCIYTJt8XIUAUsUZUZcrSRiZD8Fs5caAPMMQKggvShdAfEGUWhFhtAUCwqun/Ny1uWPoTYpUDBqWpZ4V6IOeuSvIgxmDmeiF6gAsEAoFAMFTgZHXa4CO/Ci3XkFd15PKGcJ+FilT1VakyMDxgEvGC1rm6zAJxhZJMWjcYKmJlmGeyyw0nzOspFpp/kSsVhljh8XAatGdfnww719LAFmIlEAgEgmEAyBSrVUSsOtfWcJPloy9tCPddpE8Bkh/v6ylAA0Osdp3vhO7sEi+zYDCUxAoXaRxdNFw8qFaGXEmulSJWkELxeOjF+mQg7Q5yFdgJhQa+QCAQCAQDDWzmOWJCQMHqqTfWhiddXs/1FuGn+qtUAdHI1c7zHI5oVWdVmYWSxlCGAkGsUJsCqlXrXMm1iiJKrBC7PvWqOs6zylVgF2IlEAgEgiEAkyo8glStVaTqlCvrwkOXNYZ7X6Ta1gw0sZpIxArcIB64patUGQwVsYoC8VMkqKF/oORa9QADFcTqwCXqZOC5NyTD7FopFCoQCASCoUFOqaJHbOyn0QYfG31EUlASyIT/4KsK+bGtgfH/eK/xc51wx04lwpRs0rrBUBMrExKsRa4VXUgOB9KFxQUudOErCYZY7b+oKTxWV2APpAK7QCAQCIYIUKrMafT2m2vD31xdx4WrQaoQVRkIpcoAfh9A42VUDCj5MgsGw0GsYvQ4jpipO8sNd5vvMPvlC1zhypXZBeC0xRHLG3lAp9dI2QWBQCAQDD6gUiH8B5+TWVsTnnV9kk+p77tQhf84XWWAiJURU/C+yLluRpkF4hgsvgix2jr05FqpE4Koxj5pgRArwBArXAuEA0+6op53DNzaRoiVQCAQCAYJJgSI56is/rsbkuHxlzVwD1v4poFUqgBDrJBrjehVPRLXhVj1Hygaih6CqMb+0wudHLEyF7wSAWK1B12LvRY2czgQCewgVfNuH7fRRBAIBAKBoL/opVQRqUJZBRSqPoA2+PDHnKYygMQK72lyq3db4ISp2W5Y26U4AYQXSV7vI0wcdSxCgnRRcXGNWlPpxApl/TGQj7qkgVsHYLALsRIIBALBQGOTStWixgEnVAZRYoVDbAgDIj2IeIcQq/7AZP7jQiKRvWWuy4QCqlUlnxI0xAqx7MMvbuSdA3ozYeDzrkJPBoFAIBAI+oOoUpWFUkWk6riVDaxUgVANZE5VFCBWe2s/j4hV/UyVHlSIK5QkhjMUaIDaVoiv7qQT2SudWHEFdroOON56xrV1fDIwNwn0hBAIBAKBoK+AL4kqVeewUlUf7r94YEsqFIIhVnh/lFlAGDBOXKDklSqD4SZWLPv5+pQghwTVxeaQYIUSLLNLmLKsMfz1VfXhjNW14UxdKNRMBIFAIBAIthZmg94rpwqkSudUwfcMllIFmFQf+PfdL1T5VfD/fLCNUIgnlByKhVjxKcGZ6pQgTgmYCx+9IZUCM6gPWtoY/uqK+vD8G2u5b6AQK4FAIBD0B6xU6ecoQI2cquOGSKkCDLHC30ButYMyC7p+lRCrAYIhVrYmVzgliNL2SJoDsWLlSt+ISoFJGDxgcSPvIn57fS3tKoRYCQQCgaBvMEoVfIhRqn53PZQq5FSp/n+DqVQZGMFkD/o7yK/i/oDk+4VYDQJwQQFUXgWDxUkBEAy+EZGbUgkwxGq/RU1cnO2Ma5Ohv6ZGiJVAIBAI+oReShVyqrikAk7/NTGp2pMw2KQKMMQK9Stb5zhh3UyXyywwsSrADUoSxUSscGHxHP2CUJXdkKtKJVb7LGwKD9cV2DturhViJRAIBIKtQiGlCqfNOadKh/9YqSrgiwYDhljtOr85dGc7YU2XEKvCbzJA4LCgfg5y5UXqW/EN0Y/lDgx0fGecjjxoqarAjgR2TAqpwC4QCASCLYUhVniOnCqc/mOlCqSK/IzZyBfyRQMN+HD4Nfw9EwZElMqcCBRiNUjAha0i5ooLnZzpsVSIZHZzQyqCXGli9dPfO+E+i5rDY2kSoMM4WttIoVCBQCAQbA4m9Ae/UUipAqEaSqUKgP/mMgv0t9HGxpRZQI618f/5nKAkUWzECkCTZjxWE5NFMvsEYrYYALgpFUGsCBjse6ACOz0eeUljeF6kArvZfQgEAoFAUAi9lCokqrNSBVLVyD5mKJUqA0Os8LdRAQBqVVklrRsUI7GKstaxWTds6HbDicRud68g5QrECoVC8Z0PXdYYnn1dkmtZzblNiJVAIBAICsPk4gLd5DPSN9eEZ0Opumx4cqqiYP9NgF9DfhVOAyJCJcSq0JsMEkCwIBOixgXIFaTDSlKu8F1xJHXK0sbwtKvrwvSamrAbE0dPnkKTSiAQCASVC/gG+IiZ62r40BNOlR9zaUNOqQKxGmqlCjA+G397lwVO2KTLLDCxivj9skCxEyuDMVCuEBasIOUKxAqS6cFLGsOTr6jnPKsuFArVk6fQpBIIBAJB5cEoVXhEdGP66trwtGvquJn/vot0TtUwECoD46vhv+HHkeZTdqcBDYqZWAG44Cbnagz9fSZXyLmiAYIbVc7EChMBOHBxU/jLyxr4NAdi5SBWmECFJpdAIBAIKg8c/qPHrnU14YzVNVym54jljeHeC4lUaX8yHEoVYIQQ/P1dFzh84r+mU58GFGJV4A2GAEa1wg0Yk1E5VyBX5a5cGWKFAm6Qcs+6ri4MUChUT6JCk0sgEAgElQMmVASc/oNShciGIlUNRKqUQjScShUQJVYblVkQYlXgDYYIrFzRDcDz/JwrJMOVK7HCQNyXJgd2HqddXZ8rFCr1rAQCgUBgiBVyqqBU/fqqOi4szUoV+Q+DQj5mqGCIFT7HePLb6AuMMKDx7VFfXxYoFWIF5JQrQk/OlcpFKkflyhArHE+dsrSJGzJPp92IECuBQCCobBhCBX+AFJHzVyXDXxulinyGydEt5FuGGvDL0TILO3a6vfx61M+XBUqJWBkY5QpSYn23U7bKlSoSqp7vt6iZq+VOvVERK6lnJRAIBJUJrP3YXINYmWbKJ15WHx56McJ/PUrVcOVU5cMIH7vT53Fnuxx1Ksv6VQalSKyiDJeVq27UuepRrtCLqBwIliFWmCD4Pjjdce4qIVYCgUBQiTD5tcingh9Azq2ppn7QkibyE02cT1UsSpWB8ce7LWjmMgsIA5Zl/SqDUiRWBj3KlRs2znS4iCifFiwTYmXAki7hsIsbeRLNurWGiJWaZIUmn0AgEAjKD2pTrcgVSNVZ16m+fyBV8BXwE/CBxaRUGV+MzzVxniqzQPyiPOtXGZQyseqlXOG0IMjVPHUD+YaWCcHiUx2EKcsawzOurQs719ao2HqBiScQCASC8oJRqoBZBF+TqmO58KcmVUVEqAwMsULkBWpVy2z0B1TEqizrVxmUMrEy6DktiLCgk+stWC7J7IhL4/sctLQpPPUqdTKw+1ZVdgE7mEITUSAQCATlAaz1yKlC5w2s/6fTBvvoPFJVrMTKnAbcZb4TOrPccMdO5a/LllQB5UCszA3CoyFXnHOlB5lhzfk3vVSA74GBeeCSpvDEy+vD81fVhtm1Us9KIBAIyhlmjccjV1O/qZbbmx21ojHcL6pU5fmMYkGUWCEMiJP8SFyP+u2yRDkRq42UK53QzsoVodCNLwVgUAL700Q6dmVD+Nvra3sVCsVjoUkpEAgEgtIF1nfkVKGZMgp/nnJlfXj4xQ3hfouacgebippYkd81ZRZa57phbZfHietlTaqAciBWBtGbpepc9eRc/QzkCjc678aXAszkwWTCycDTr0mGHTcLsRIIBIJyBNZ0pHkAIFVQqkCqDlnWGO51kVKqipVMRWGIFdJZvDluOLYSwoBAORErA3OEk08LIizIOVdOTpYsNACKGYibA2hPcMjFjTzBMNEwAedK2QWBQCAoG5gNM3Kq0PcPtQtPvrIuPJRIFRf+1BvtYidWLGJoQWM38r/Ns9wwYepX5fnsskM5EqsoeupcqYT2UlSuDLEC+0c48PiVDeH5NNkwCaWelUAgEJQHDKnCc5z+Pv/GZHjSFXVaqVL+AA2V831EMcL4WJDAnec77IeJVwixKnViZW4eKrQjaQ7kCpIkbngpKld7XugwMTzyksbwnBtqeRLOv4OIlZ6IAoFAICg9YC03pArI6MKfv1xZHx68VJEqVqmAAr6h2MDiBXwsfd7JF/T0B0TTZSFWZaBYGag6V0SudCkG3PRSU652v4CIIQG7l7OvQ6FQIVYCgUBQymBCpR9RTsG0qEGNqv11krpBIb9QjDDECkRw1wXNoTfbCWtQv4p8cUUTKzvrHmdn3Hn0SyVPrKLKFedcmQrtdPNLSbkCqZq8wKEdTFN4+jWqUCjnWAmxEggEgpKDUanQogb/NoU/jwOpWqx6/qFANB4L+YRihSFW+Nw7zW8Om2Y54bhOIVZlp1gZqNOCWrkCuSohYgWljQuFLokWCu2RkfMnrUAgEAiKF7x2E6lCjar0zTXhmUSqjl6hlSryTyb8V8gfFDPgVyFawMciDFhHPrda84eyJ1VAPrFKO0eNyrg/GmFn3F9YGW82/dJfyoVY4YYCSrlS5Cqac1XsYUFDrFBt98TLVQJ751ohVgKBQFBKAJnifCp6PnNdTTh9dU142jUo/NkQ7kukCoQKa30phf+igD81JxhRZmFcJRQFjSJCrCzfuc0K3KOrgtT2IFb70UVI0y/dz8SquzwUK9xYyJGo/opTCtz+BuSqBIgVJhuAelbHXNoQnn19kguFYqJikgq5EggEguIG1mlerwldtDFG6ZxfX1UXHr68Idx7oSJVpapUGRhihcR1LrNAPrciQoAGeYoVEasjRre3/JCIlePFfPcM2/fuZmI1q3yIlYEhV6WiXJkJtw9NPkzC31xdF7bTTgeTFTF6IVYCgUBQvOB8qttV/UGE/1BN/VQiVYdd3EC+p4nzqYBSVaoMjFCBxHX4WPjeqkojVnMMsfJWWxl3bzvT8rURVtobHfObj7V89/Z4p2Jf+OWCb1KCwA3OKVczlXK1Jw1oDIZiJVZ81JYA8ocjuCdeUR9Oy9WzEmIlEAgExYyoUpUjVbRJBqlC6K/UlSrA+E98H4gWyK+qmKR1DRCqMXMnhOBOlu9dWxU440e2Tf7oiJ8Eqe9VpZ3D7LS7rlyJlUFOuUKdK02uilG5MsQKzxGHR3fzc1cpYjX/DiFWAoFAUIwwShWe+2tquZzCr2hjfNjFjeFeCxWpAvLX/FIE/CYUt90WNIep2U5YW0llFjSYWM3LEasrYoFbNwIW850fWGn3CMQHy5FYAYZY9cq5QikGTa6KjVgZYFeDx8NpUiLPCr2kpJ6VQCAQFCdAqrA+g1SdeW0d16hC2RzToLgclCqA/SZ9J+Qt7zTPCZtmRRLXiVjl++ByRQ+xakGO1eUxPzWOiRUy2JHJjoz2ciVWgCFXQLT9TTErVxi0+HwIB55Ok7RrbY1qbSPESiAQCIoCiCCofCpDqmqYVB1zaWOunIIJ/xVa50sRhlghZ9mUWRhjyixUGrGaP4GrKcShWBlihZoLscA5ykqXN7ECQKpiBFauaBCYnCs+LagHS6FBNFwwxOrAxaqelX9zLU9cTGQJBwoEAsHwwxCr3qSqgcvlYB1HTm+5KFUGECIAnAZMzXHCHTvViUDjZ/N9b7kip1h15SlWVtb5Zsx39qEf3owXkeFersQKyClXxKq5/Y05LUgDBAOmmAiWIVbY9ZxweX049cYk17PCZEZdlPwJLhAIBIKhAQgVcqqA7ltrwnba+CKywIU/DakqM0JlECVWziyHo0CGUFUMscooYgUxysqm3oz57uKqTEuCiVWse/wnqwLXtQP3ahArZl/0ywXfqEyAG48EOzznxs3dTlHmXGFSglztu7Ap/AVNVuyEULUXk1rKLggEAsHwgZUqkCou/KlqVB2xvDHcz5AqAkhVqZdUKASuuE6Puy1wuAh3nEhGRdWvIsQzKcWVOlOIhP27yve6UGWBiRWsKu1V0y9eigSsSiBWQJRdg21jcOw0T5EZEKtiyLnCZwH2vqgpPGRZQ3jylfV8dBftbYRYCQQCwdADIT+jVHGNqhtNOYXGcO+FikixUpW3npcVyD+CNO6syyzAl1ZU/SoCeBJg+e4GK3D/VhW406yO1h9rWjVihNXh2fG0t8wOUuvHzNHEqgyKhG4OUeUKJxogae483+EBw8SKUHBQDREwMQEQvP0WN4bHXFofnntDLU9mSWIXCASCoQfWXeRU4ZT2VCJVKKdw6LLGcB8iVVCpmFSVKbGCLwLw3SZf4IStc1SZBfhQEKuofy1rIAzYScQqw8TqXStwHowFzm9HZ1t+qGkVFCsnFvfdBXbae42z2yuEWAGGYSOhvabTDd3ZTrjLfD2INLkaLuXKECueoPQ5UAsFHdGFWAkEAsHQwuRUYd3tWlfDStXJV9SFU5Y2kp9Qp/9y63WZwhArkMdd5jssRozLKmJlRIqKAIhVlyZWgfuqlXFuswPnpNEZZztNq1ByoXF7O+O22777Tzubei8XO6wQcgWAYCXo+4J9g1ztusDhCVIMyhUG8e4XOuFBS5rCtmvqwk4uu6AmeKEFQCAQCAQDh2iieidtbM9fpZSqQ5Y1cqoG1uiyD/8RjNiAfGQc+sLhr1yZhYg/LXsQR0rMbOFH23eejmfcFYmss3887X1D06oRI3boaPousa6T7cC90/Ld15hYERurNGKFR5CrGiJXHsjVfDVRhlu5QgI7ZFecDjzlyrowvaaGSZUQK4FAIBhcGFKF55lbasJzbqgNT7y8PpyytIn8QlNOpSp3UgUYX4jT6ggDJslXwmdGfWhFAMSqG32VORT417jvdsazbqsdNH5R06oRI8CyrIxzgB04Ky3f+XcvNlboTcsQGBQGRrlS5Gr4lStTdgGnA395WX14/o21LEVjwjPB0guAQCAQCAYOuTWWkKEN7dnXJcNjVzaEBy5p4lNx5ZxPVQjwg8DkBU7oznbDcZ2F/Wm5AxG96lmqNBVxhnsJZ9qBOyaZSX5a06oRI5LdyS9ZWW8C/Q8zbd99NMrG8t+w3AFihcde5GpBRLnCY2SgDQUweSG97kPE6qgVDeEZ1yZzZRc45h9ZCAQCgUDQPxhChfUVp7BR+BOkCoU/0b/VEKpC63U5wxArlFlAG5vqbIUpVRpMrFDzkx4t37st5qeOTHS0fnfysskf1bRqxIixc8Z+ptpPjYtn3LOJWP0ZhApsjPOsCrxpOQODxKAQuTIDq9CgGyzg72Ii4+8ips9lF25UZRck10ogEAgGDkyqCCanKiBShUNDIFX7aVKFCAIeC63X5QwlKjhcZqF+Zk/9qkK+tJwBboTSVEysAvc6y3d3jZ3b9Lm2thHbalo1YoSX9j42ttP9fiJwj7YD93b8MthYJRIrA0OuqiPkCl28c6UYcoNs8GGIFRQzTGxM8N9eb04HCrESCASCgQATKv2I9TW4pTY8+7q68JgV9TlSVUmhv0LAQSr0B0R+FXxlRROrwNtgp51L4n5rjaZTPdbW1rZtsn2nz9vplt3pF29AfYZKKRS6KWxauerJuRpK5Qp/02DKssbwtKvrwswtulCoECuBQCDoF0zoD5i5riacsTrSokaTKqRkVGIIEICQgGuAMCB8IcoTwVdWHLEiPgBuxK1sAvdNy3cW2O0tO2g6lWfhiG1iQWudnfYuof95Q6UTK4ONyZXLCe0/owE21MoVBjVOByLGf9IV9TTxVZ4VFgTssPIXCoFAIBBsHib0h7UU/Vin31Qb/oY2r0de0sCHhoxKBRRam8sdxs/hIBWKaDejflWlEiviReBG8U5vve27TxCxmj7Gd36gmdTGVjXDrSIGNgcFrxLIeAexIkJR8M0rBBsrV16OXGGSDaVyxcSKdgt709879tIGPvbbeYsmV1ggaFHIXzAEAoFAsGkYpQqPOG09lUjVqVfVh4cvRzX1iFJVYE2uFLCIQNidrsV45Fd1o/Gy8pExQr7fLF+AUGlelHFfIWJ1q5V2fplod7+tadTGZrW737d892wiEX+xMqn3kMTOqlWFkysgSq4ggTK5ioQFh0K1wq4JExx/D5MeO6r21bXcWkFCggKBQLB1MEoVAKUKpOqUq+q4RQ3W2T2RpI61N28trjQYYjWZrkdqjsO1HuELjW/M95dlC1RMQCkq/h7xLQYAAGONSURBVLf7T+JLF1ntqT0SHQ1f1TRqYxvV1fD1Kj91MF2oK63AfY6JVRe9iWamlQxDrAy5UsrVEOdcEbHC7gkk7oDFTeFxrFolmVjNv30cLw6FFg+BQCAQ9AYTqtvVIxLVc6TqYpCqJj75V+lKlYHxb5MWNIdNs5RaVVGEyiCLigmt6rnv3k+P51nTvWQ87X1W06iNbVR78vNErBqIUE21fO8BKFUJehPJteqBIVc4LagqtPdWrgoNyoEE/g6UK5ArlF5ou7ouzHKLGyFWAoFAsCXIz6liUnWlIlVQZkCosImt1ET1fBhihf6AdTMrsOmyhkla53+n3XX0eNQYf/wPUFlB06iNbeSyyR+N+83/LxF4U4hYrUGNiuq5ksQehSFWAK5PLudKkytMSgzAwQwNmpAgjv+itQJOr5jFgnOtBAKBQFAQIFRztVKFFjXn3qD6/rFStbCJE7RFqeoN+DP4nQlzXT7EhbyqSiVWY4gT2T7KLHiXxX23tXr2pP+aPHnyhzSNKmA4Gdg2/pMJvzlFxGql7bsb8CZCrDaGIVeJbOGE9qEgVvg7R13SEJ55XZIrA89ap3dheQuJQCAQCHorVSj8+bvrk+EJl9WHBy/VOVW0tmJ9FaVKAX7MkKpJC5wwRX5ux06XfV/FllnAwT7fe5mI1cyqILX95GUfRKoiVh24VTE/NZfI1euQvYRYbQxDrJhcQbnq7K1cYZIOFsHCIMcCgOcHLmnk/oHnrqrVBUMlJCgQCAT5MEoVnqdvrg3PvDYZHr+yITyI1lCspSb8F11rKx2GWPWUWXDDsdkKJFaaVMWRvN7Z8oaV9h4gYnXqqOkNX9e0afNWlfb+ryqdOouI1aP0huvldOCm0Ytc5YUFB1O5wvuDYOH9kWuFgqHZWyTXSiAQCAoBpApKFUjV6deowp8HLm7iNTSnVOn1VaCA1BZcHyTyo9o62tggv5j9XgURK/CfxEyVtB73vSfocUmiw9vTDhq/qGnT5m2Hud6Xq3x3PyJYV1q++zwfMcTpQCFWG8EQKwyyguQKGETlCrusfRc2hyfoXKvZt43jxUPCgQKBQKCVKqyJIFVrasMzrq0Lf7GikXNUWf0XpWqTMMRqEl0jL1JmoeKIVSfa/HELm9DucO+M+6kT49OdUbHu8Z/UtGnz9pMLmz8V6/B2tPzU2USs7qELuKFSmzJvCXLkiqB6CypytRtyrmjCDiaxwk4Cg//ISxpVrtUtNdyc2eQRFFpoBAKBoBKADSYrVfQIUgWl6hdoUbNYraGiVH0wjO/adUEzV1tHGDDq96J+sJxh2vzZvveelXZX2B3O+Hib91m0A9S0afOWbEt+uHp6w9etILUbEasrCOs5iR0VRwv8UUEPscJzlXPV0/5msJQr3m0R8PyAJU3h8ZfVczX2Ls61UuSq0GIjEAgE5QxDqEyT+vTNNaxUHQ2lanETr5mGVEXXVEFvGJ+1y/xmrraeyKj8KuPzoj6wbIFUKChWXGbBfdH2nYzV0fxjTZe2yrYZ2Tbyo9VBansiVZ2EV8bM0cRKwoGbhCFXwFDlXOF9zeJw0NJGrsWSXlOTO05caNERCASCcoYhVlgDsR6anCo0U8aaKaRqywB/hes0cZ4T1qJ+lV9pSevIL9dF0rOpt6zAuSfmN59Y3bUVSev5NmZq81fivnsCXcz74zNb3gSxEnK1efQmVy4fUc3VuSIMhnKFkCDe9xeXNIS/vT4Zdq6t4Z2ahAQFAkGlwKx5wMx1NeGMm2r5YA/K0uwvSlWfAN/SOsdRZRYqjVghab27lTlPLO0+YQXNF8Syzs7x339ApfXNWTKT/HR14O1C5OoiYm6P0ZuvR58cybX6YOQrV0lWrnq3vxlo5coUtMuVX7ghyQ1FRbkSCASVAhArJKqj9Mz5NybDX12uqqnvu0hI1dYA/gnA9YLfcmejzILyaZVErOKdLWH1nPH43u/FfOdmwpGxbucHydXJD2uatPWWbEt+fExH84/pDxxlpd01eHOuawXVqsCHEPRGlFxBufLmQLmKDNwBJFi8YNAjelxNWdbIlYSn0W4Ni41RreSkoEAgKEdElaqutTXh1FW1RKpU4U+zPkoz5S2HIVa703VDGLCx2831B6w4YjWrlb63+2KV78yO+27NyEzy05oi9c3a2kZsO3bOxM/YmZZaq8Obj1wrsDchVlsGQ6x6kavZTrgb7QAweFm5IuQP6r4ACwaABWTvhU3h4csbWAJvv7km7F5Xk1t0Ci1KAoFAUMpgper2HcOZ9Pz8VcnwJCJVU3Q1dW5RozeeQqy2DCaqMvkCJ2yd63J/wFz9KkIhf1dW0LU7GZ2pt+3A+XMs7ZwU6276X6JG2yiG1E+zpjnfjLe7J9u++2B8ZuvbTKwkHLjFKESucsqVJlcDoVxh0TALCKRv5BWcfk0y7CByxcmctPiIciUQCMoFRqnCIytVN9YyqTp4CQp/qkR1IVRbD0OsIAIgDIj8KvTGrRhiFcmtsgP3CTvj/t4K3InNFzZ/StOi/lsyM/nTiY7UbvHAW0JM7p/ItYoj14pYXcEPJegFMxhz5IpLMSjlChN+IJUrlrxBrgggV8dcWh+efV2Sm42CUIlyJRAIygU5pQo5VauIVF3Ro1SZdVBI1dZjb02sdpnvhA0RtaqQfytH5HKrfO89IlY3W1n36Jjv/AD9lDUt6r+NbJv80UTW+wn9QeRa3Wj73luSa7X1MAMzX7nCxDfKVaFBvrXA+3HfK3o8YEljePzKej4piKajs/RCZHZ5hRYrgUAgKGZElSqQKlaqNKmKKlWF1kfB5gFihUcus0C+Cr6rYnKryD/Hu1rCBHKrfPc5y3e6dkg3JZEWpSnRABmxtFh30+fsIGVZHU7a9t1nkNAFVqekMsGWwKhWQCFyNRjKFZ4fsLgxPI7I1dkgV7cg32qcnBYUCAQlC6xdSqmqUUoV51Q18RrK6RCiVPUJJiUFfmjPC1V+1Y6dilRVArFCFA6Ckcbrdtq70wrco+Pp5Dc0Gxp440T2juZ97Q73Jtv3XufELvQQRPGsAh9SUBibVa4iA7y/4DIMtMhAuTpuZQOHBZFzhQUJi5OB5F0JBIJiB9Ypo7SjnMzUG1WiOk7/Ye0Upap/iPqdSRc4fJJ9XCURKyJUnFsVuOuJ4zxsp92s5btN1dOrP6Fp0OBYfHr9KCvtnGb77h/og7wrpwS3HvnKVbKAcgVEB3xfAdXK1Lg6YHET98n69VV1XOMFRUTNzk/CggKBoFjBhIqA9Qr/Rs7oOTdsfPpPlKr+wURM4DeQX9U8S9WvAqmqhKbLEIq4dY3vvmK3u8sTvrPH6POa/kfTn8GzeNr7bFXaqSdyNZOIwbP4EAmoVhIS3GoYcqUaN5uEdrU4cFgQAz0y6PsKLDQmkXOfhc3hobrOFRamYE0tH1HmxQvKlUZ0URMIBILhxByA1qXudapFzdnX1XHuKNp4mU2oEKr+wxArVFufMM8J6039qnInVuSDVWmFljDRmXqXiNWf7Q7vV/a0xu9p6jP4VjXD/W877R1Ff/yPxPDeAsvjmKScEtwqGGIF9A4L9tS5GmjlCnHzvYhcTVnWFB57aUPYdk0dFxLFUeU5t+vcKyhYeQubQCAQDDWiShU2fD6RKm6mTGsXFHiVC6Q2jUKs+g9DrHBiHX1ua8gnwTcZP1XIj5UDciHATOp9O5v6B/GbCyw/lYp1j/+kpj2Db17a+1i17zbFfbcz7nsP0wV/LzETyexCrPqCjcgVKrTPJ3JFi8VAK1cGeD+oV4dd3BiefGVdeN4qldjeRTtCnBzEImYWMyFZAoFgOMBKFaGbAFJ11rVJTmfYB82UNZkSQjVwMBt5hAGbWK1ye/mofN9VLuBTgJxb5b1I33OlHbgHJbqavtvW1ratpj1DYygaagXOblaHs8j23eer6UNxSLDAhxZ8MMygBRS5Qm9BN9yNBjcWjYFUrgBWrwh7XuDwsVq0wDl+ZUN42jUgWLWcv4BFbZ5WsLiwKP07f9ETCASCwYBRqszao5SqZHg0kar9iFRh/TK5o4XWOMHWA5ttU79qp3kO5/6yfyr7EKAiVvFOb33cdx4gXnOa1dn8458MZDHQLbXJyyZ/aNT01q9baWeK7TuriVy9yeFAlGCQqux9Qi9yxUVE0VtwcBo3804POz4C/r0vcq8ubgpPuFwVFG1fXcPJ7agRk1voIgoWkL8YCgQCwUAAKhXWmJxSRWsSlKp9FyqlSvr+DTwMscLzCXMdrrZe7qcBOQQ4E4KQu8HOuP+MZ9wF8azbmpyf/LimOsNjVdMbt48F3ql22r3TzqTeq547gT4oS2qCrUS+cpVk5UrlXA2GcgVAvUKi4h4XOPzeSAb9xSUNXGzvdFawdGFRWuCgYM3TChaHCeln+QuiQCAQ9BVm07aRUnUpkapFTblcUSFVAw8QKwDXt2WOE47LumFVmRMrhP+q50xAIdBXCSvivvvTcaof4PAa6jtUZVoSdto73/a9vydmta7XSWAFv4hg8zDkque0YG/lqtCk6CvylSskL+Jv7Le4ifOvTrysgXeLSsFSVY57LYJGxRKiJRAI+glDrPDcvyWiVOmcKk5Uj6xfgoGBiYbg+iK/t+zLLCD8Z9QqJKynvTtjfurIUV2tX0+2JT+s6c3w2sjM5E/Hsy2tdBMupA/6d7ur5T2QKw4LFvpSgg9EvnLFOVdIaNfkypCfgQwNAli4kLsweQFULIff/6ClqvaVUrCS4Tk31IYzblJ5WJDpoWLNv0MpWSbZPX+xFAgEgg+CIVRRpepMnP7TpMrkhQqpGhwYXzL5AhUGrJ+pyiyUK7FKdKMX4ASQq3eIWN1t++4Zcb91lKY0xWOJLvfbVsbdG42arcD9N4gVhwSJGBT6YoLNI0euaICbhPbByrkyMLtCszNUJK6JE0ZR/+rYlfVcYPR3NyTD9ptr1SlCLI6aUJkFUnKxBALBliK6ViD14Mzr6nrlVBkUWrME/YeJhOTKLHSWaZkF8JFMivsA4sAd/exRK+OdF0971dXTJw1udfW+2Mhlkz9alfb+z047R1lp5xZigm8wuUK2vSSz9wlmUDO5gnLVuTG5GiyCBeBvsIJFuxgoWPjZ/jpEeOzKhvDkK+tpVwkVK8m1sLDLRKgQJwnnm3wsUbIEAsEmYAgVlCr8O30zSJXOqSJStSfyP4VQDTrMacCd5zthY7cbVmfdMB7xP4X8UykCob/q2a1hfGbLhvjM1sestDv09aq21ka2Tf5ooqNpR9t3p9LNuJe+yBvqGCPimIW/qGDzMINb5Vz1kCtMiMEkVkAvBYuAv4UCo5DnD1jSFB5KJAtyPUKFyIeYsVoVG40unNEFNArzOwKBoDIRXQtQRw8btY1yqgiF1ibBwABrOogVNtIT5zrsY9jvlFsIMIsQICJpzEeeon8vImK19+hMy7c0hSleS3Q0fNXym1P0gWfEfOdPdib1RqKLGCITLFGu+gJDrDDQczlXUXIFDDLBAjDxsMiZGjJ7XKj+PnaW6CyPXSZULFRGRqgQXec7Vtfk8rGgXKmThXK6UCCoZGDOY+5zn1J6jjY1rFRpUqXWl8LrkGBgAb8B7E7XW50GLKPcKv0dEDlLKKVqPfGQf5I/XWZ1OPvv0NH0XQhCmr4UryGjvnq681+xDqc51uG2W5mIckXo9aUFW4wcuSJElSsuIkoTYiiIFQByZRQsA/wcf9+oWGiXc+QljeEvV9aHv7m6jhPekY+FulggWAgLmjo1hVBoIRYIBOUDzHOsAXiOfqW9lCq9xohSNfgwPgPXeydUW5/lsn8pq6R1rVTFVc73v+hni+wOb19UVkcKk6YupWEgV6xcBe4MYo13xzNErmYqciU5V32DIVZ4rnKu3DAF5cpUaAeGiGBFYSR77DBREwv9CJH0fuDixvCI5YpgnXpVHStZv70+ydXdp99Uy/kUIFtYXLFzzSlZOi9L1CyBoLzAmyo9rzH3kTpwOq0LqJ0HUhXdrAkGH/AZeJy0oDlMzUEYUCWtlwuxAudAonq8K7Xe7kw9Qf5zme27+yEfPLm6SMoqbKVtYweNX4RyhbAgfaF7CW9yMjuUK7p5hS6E4INhyBWQHxZkcjUcxAqIkCsAz/E59lnYxAnvB7KS1RgeTkTrGORkXV7PDaBBspD03r2uRoUGsOhGgcU4sjALBILSBKtUel6DVJ1/Yy2nDuAwzN4XSU7VUAPrM/wFniNpvYF7A/b4mXzfU3LQp/84pyqbepK+0yK73d0vUSrhvw+ynHIFcqWVK27YDPVKcq76jN7kqqeIaHTCDDXBiiJKtgBV3V39HM2fD1rSGB5Fu9QTNcHKKVm02HbcXMuJrChIigWZCRcrWeNyeVlmgRbSJRAUPzBXzbw1pOpXRKqw2cJ6sfsCtU7kryOCwYPxE7jurXOdsMb0BtTI9zmlBM6p6h5PPCP1viZVyxD+Iz6yHdrxaXpS2rZD2vsylCvbd9tt5FxlvLegWnHTZlGu+gQz+IGccjXH4Tokw6Vc5QOfwxArkComVxf2fD5I/1CyDqHFFbtWhAMQNkSdrLOvr+MSDiBYKOEQXZijpEqIlUBQ3IgqVV20WZqqlSrMe6xRnKiOTZcQqyFD1DdMIp/h0sa8XAqCxjOpsHoWSJXOqcq4i63A2d+elvpeyStV+TaqfafPo16E5TvTiWD9wcqkXoFEhwqoKjQo6lVf0JtcuWGKK7QrUoPJM9zkqhDw2bCIRhUtcwJofyJb0TpZRs06f5Uq5YC8LJwyhJplEuGVmqXCiPnEq9BCLxAIhgbRDVGW5qwK/9VpUtWkczI3XiMEgwuTW4Xrbyqtl3puFQgVomEgVfS4njjFU+Qbl9kdzftWZ5ztiqZVzUDbmM7mr8T95gY77f3W8t3b41nvNUWuxiMGWvBiCT4YhlgZcpXksGCeckXIn1jDCUOsDKFSapbDj3gdocIDFjeFBy9t5AUYeVlHr2gMT7y8gU8Znk1EC7teHNFG5XdDruZFFnEhVgLB8KKXUkXzVIX/ekiVKFXDA2y24RfwfJf5qi/guE7lT2KEfB9TKkBqEdrUVCOvqrPlSSKIS60gtb89rfF7JXf6b2tt7HljPxNrd+vivtdG5GoV4d+JrpZ34l2RKu0SHtxqRMkVK1dErlAxHaSKEZlYxQomXAAttDlFi74DCBi+A0o5gGSxmnVFXU7NAslqX10b+jfXcDsMLusAwqUXdqNoCekSCIYGrFTRI+abUap+RXOWSdVFilSJUjU8MMQK1388FwRVVdaNH8n3LUUN8ncgVKaFHj2+Rj9/lHjFgoTv7VXWSlW+cUJ7h2dbafcIO+0uITL1qB0Q2+weD6YpxKoPMMQKUi7IFaTdifMczmkyk6lUyBUmPKtZtPhCqlZqlvoeOGVo1CyEDI+8pCE89tJ6ToL/9VX14VnX1vEinl6DPoY1Ws0aV5BcFXIIAoGgfzAbGhAr5FSdf1Mk/EekitvUEESpGnrk/ABde0Q1nFkqtwrhv5IjVQBqVHW1hGPQUBmhwM6WP9D3OA8H5sZMbflW2eVUbc5iU6Z8hMjU94hg7RX3ndl22ruPLszLyLVSJwa1elXoYgo2CRArPI7NumFTt8PkCuTETKhSIFdR5FSsTQC/g6PaIFtYuI9Z0cjtdU6/RlV/n8ZqVg3nZik1a0dOhocDwOLPhEuTLUO4RM0SCPqGqFKFuWbCf2jgjrVHCNXwwuRWTV6gTgIidSROG3HOrcrzJUULcIROAiJcXRzhej/e2foccYg74+nUWVa6ZWz10uria6g8VBbrjn1kTKblW6ocg3emFaRWWRnvBT4xCHLFSe0FLqxgk4juPMaBXNGOZOI8LGhOyZIrAw4Naig1C6SxJzcL/a5QM6tHzSKidWlD+MvL6sNTaHEH2eIq8ES0smtrmEChKGmuYbSQK4Ggz2BSpedOT06VKqmwlw7/CbEaPmDdRwgQ138n2nBz3SrtX0sqYT2rktS5mjrX3XKfiHe2LOEI2IyUNfa8iZ/RFKOybeycsZ+J+a3xKj91PDHnK+gmP0YX8HUoVlw51eReFbrIgoIwypUiVw5PJChXZoKVKrkyKKReAfm/g++JXoYHL1FhwxMurw9Pu7ou/N31Ss3qwCnDNUS0+KRhTU7NMk4iCiFcAkFhYF6YedJz+k+VVPgZOXMhVMOL3JpP9wJV1lFewSSslwSIAOZUKqQLZVves3z3Jct3HrB950J6/efbp71vaEohZuwnFzZ/yupo/vHodMveVtoLbN+7NR54L4OVjpmD45OiXm0NQKxyYcFOo1wpdcdMMp5oZQImVr3UrOZwMhStBT3fGXWzDtJqFmpmHXupIlqom4VeZeesSnKrHZRzgLOAiiVtdgSCD0Z0E2KUqlydKpAqPSeFWA0PsPaZU4C7X+hweYW6mSoXt1RCgBBWwAWqZ4+nf0NkST1Gn3ul7bu/iXV4LaOntnxLUwmxjSwcsc2POyZ81fJbm4hcnUYX7TorcJ8klgr1agPnXRn1SupebRHMxGFy1e3mlKtyI1ZR5BQsWshziLzO350WGmAfIlsIHaIK/C+JZKGn4dnXJcOp3MtQkSylZqncLK6dRTCOhImWgXY0AkGlIDoXTE5VT50qTagic08w9DDECptObrRMfmBsJ5EV8gtFm7QOhQoRq4jPj2e8d2zf+4+d9u610qn5VYF7kNXZ+uPk/H0/rhmE2AeZOTUY970DiRhk7K7ULXShn8cFThBj5dgq5MBCN0TQC1HlalzWy5ErU5CznAlWFFjcWc0CaLFHbtbkBT0kU6lZTeGhFyuSddzKeu5nCDXrjGuSnJs1A5Xg0dfw1hpWsObfofKzognwIFiFHJBAUG4wShUeu9bW6IrqilTBkWOeCbEaXpj1HZvISXQv0PpsRx0CBKEqXmKFPKqWXF0q+ozv0c//Eg9Sy+Jp92S7IzV+h47W75ZqI+VhM9SeSEC9ynrJqiB1MpGDy2KB92jMd1+JZ1LvxrOaySLuygpWgZsjyMGQq7EgV7N6lCsz+fInZLmClSwAKpaBfs0sQAAcw77c07ApPOLihvB402rnumQ47aZk6N9cy0oWHAqOlBs1K+pwjNNhRBySQFDqMEoVxjZyqqKkCvMHhGpPPdfy56Bg6JCrsE7rnAoBFvEpQJz2Y5VKP2ZSG+xs6k07cJ8h3Gn7XibR4e2ZIEJVPX3SJ0a0tW2r6YLY1lo87X22Ku3ELLqgsYx7Bg2GZXQTHqKL/D5qV1TPQU8gJLNJaPCDsJFypXOuomHBSiJYUWDxzz9tyPlZBBAv1M46cInOzVqBU4YN4a8urw9/o3OzzkVZh5tqQ3+NSn6Hw5l3B3Kz5LShoPxgNg1A5zrdUPmK+vAQmh9YQ0SpKg7gXuCkNIcAaa03pwBBqIqRWEEogTqFPCqQKyvjPWN3pm62fKfLCtyjYx2pZmua801NDcT6a7HuKR8ZmUl+GnWvYoE3GczVTnt3W777CrHct+imbGCWa2pfiXpVEJhIfKyWwMoVTTQmVzTxzETMn5yVAlaxALoWABYj8xyv49pAxcJChZY7OGnIatbyxvB4IlqnaJIFJ4OaWdjF55QsgnFKOQXLAD/TrwkExQ6MVWwUMHajOVUoqZBTqjBvaL7kzzHB0AHrlVnP0TsWbWuKrhAo/LSpSaVB/8Zpv1fpc6J6+gor6/2yqtOtqZnp/nf19OpPjGgbISrVYNio6Q1fr2p3XdtPHU/kah7dnBs5wZ1uyph5E5WCxTco7yYKGJhYvZSrSEJ7/oQUKAdhiJZSs5SihdOG+NneRLIOJIKF3CyoWcdfVh+eTLt39DTkk4Y3JMMZN6nG0SBZcEg9tbPGSW6WoGSAccr5hDRuC/b+03NESNXwwqQy4PluRKrQO9bkVVUVE7FCuM/kUfFpP++deMa7nz7fMitwzoz57k/tTPMOP5na/Cnt/sUGzdratoV6FU9737Cme8mE3/KLOG6E7z0Wz6beiXel1qPMPcdoWb2SEGE+osoVaplEw4I8MSOTVKDJFYCduCZZRtHC62Yh23thE4cN91ukQoeHc25WA4cM0dPQhAux02cVC2pWxHHlVCwA/468JhAMJzAWQaxmEXrVqYqE/3h+0PP8+SMYWmAtAtArNjXHCWsivQCHvclypsc35wSQbMt7dtp7Le67d1lpLx1Le5Osdvf7o9qTn98u7X1Me36xoTKPLro9w/2R5af2sNLuOcSAVxKxut/23TdQmRUsGCcIJf9qY0SVq/ywoFGthGBtHjk1C6CFDLlZOG2If+9Fu3i02gHBQgV41Mw65Sq020mGv70uGZ53g6qbZXKzcicNCfknDYVkCYYLSqVSzzturg3PorGL3pwqUb2nonqh+SEYOpgNHodkaf1Bg+W6SMuafB8w5ACpIjKFqFL13An83PLdf5N/XkuE6gJEoWIdTrN9fsvXtIsXGy4Do0V5hni6YaSddne3M6l2IlZ30I18kbCh98lBzZAL3fQKBCtXGua0oCkiyhM1b+IKNkZUzTJKVk7Rop9jkUO4EPWyoGQdsET1NDzqkkZWs1A366zr6ljNQpsdqFj5js2oV1Hk/45AMBjAWAOpArkHqUJbKIS8Ef6GE+dxrlFofgiGDlhrmFTR+o11nJPVaV03a33++j9kMKf94IMJ6KRCP19v+94Tdtq7LO63nFA1I9VgZXf65tg5Ez8jeVRFZomOhq/i5EDcd0+ggTTf8r3b6EY+m+gilmzqX+GmCrnKARMup1zpsCDXuYqQKyFYfQOIFRwPdo+53CycNKSfc27W4iY+aXj0pQ3hiTovC2oA8rJwfB3tdkC2EDaEcqVOGaqThvg3q1l5jlAgGChgfEE1xXMUy1WkqpFrvv30QrVGYHwXGvuCoYNRqtCuBhEHkKpGIlXYLEfXefN8KAEyZSqmJ2a10s9cpOs8TD74avpM06yO1P7WNG909bGTKrdpctFbOGKb2LlNn0t0ud+20l6SmPLx9Hil7XMdDJUslzs5KOqVASadgQkLVmqdq4HGptQsvGbULDgqVrOIaB2yrIkVgZOIaLWhlMOqZDhjtaoAj3AhnJwhU0a9yodxjAJBX4FxZMJ/IFVtIFWXNIT7L6axizFMawMrVZGxLhgeGKWKSdXcHlLFldUJhdb8QQX8KlQqo1RBzGCS575uZdx7E1knk+ho3jOe9kaiViWf9hMrDRvZNvmjozu8n9jtzsFx3+200s6NVsZ7hPBmLv+KHjmBrtDgqDBgApraJmOzLh/P5bAgTVZWrTB58ya0oO+IEi5WtBY0c27Wnhc6nATPbXa4ZlY9Jwm3Xa2Kk563SlWAV0nwqALfW82CM2QlS9QsQR+RU6oIUE1ZqbpEK1U0bjFmJfQ3/DBKFR6xhmC9xqYY7cvMmj7kxEoTKahT8LE6BPi0Fbi3W4GziHBaItPUMqaz+SvaVYuVmoEJc3mGwK0ipry3HaSylp+62067byQ66eaLetULnNCun5siohwW1IuoEKuBAxMrgK4tk6sLNOg5fo4FE3lZ+y9WeVmomXUYkuCJbKGcw1nX6nChJljGITKpouf5yHeeAkEhYKxwThU9glQppaox3J/Df0KqiglMqujRkCooVVi34cuGnFSxSqVP/MGvIq8ZP/Pdp+IZdwVt2o+tyjr1O3Q0fRc50eSet1FeWqykzZ7f8rUqv6UVzZ0Jy+K+dxcRrX/RoNiQmDVeKVicf1XZChYmY89pQTdHrqTO1dBhIzWLrr2pAo/CpEh+B8FCuPDXXC+rLjz3htpwGojW6towQKuddTXaSRbIyyIUcqqCygXGRE6pon8bpQqHLPZbRONSj0chVcMPswZz+I/WhZ6cquFRqkCmOApEflQlpqdeszLuI3baWx0P3Gw87RyAsN/kZZM/pN2xWNkY8q+6x38J9TGq2lvdeNDyS9tPXUyM+nGQqerZrdz0UdQrmpQR5YoT2nXOVVS5EnI1eIgSq6iahed4HXlZ5oThwUtVAjzyX37J/QzrczWzMrcoJwlnaU52mRChqFiCKDAujFKFzgFQqo5aoZUqGnNCqooHZu1FaZcJc91eierDoVRBnYLvTHS1hkSmXidi9Qcrk/JjfmofO2iy0IYm2Zb8uPbEYmVrbW0fBoOOt6f2ifuuTwPxRmLaj9hZ7zWOD3cTycIJQuRfVSjJwuTslXNFk3fiPNoh0eKKiY3mnkKuhh75apYhXAgLIGwIknXcygbOyzqDK78rJat9tcrL2viUoSJeRskSwlVZwP02SuasW2siSlVDuO8iNd6EVA0/eDOrQ3+4F7vNbw5b5jphw8xhUKoyqmQCIj1cJzLwNpCffMYKUvdaHe7FdkfqN1WB6+6Q9r6sPa5YpRgYNJg0GLXd4fzMzqba4xn3Tjtw3zDkqtJLM2ycc+VIKYZhRiFiZcgV7gX6GIJgHbS0KTx0WWN4xPKG8NhLVV4WiNZ5q5KsSJiCpPkhQiFWlQUmVjQGQLZBvjmnagVO//XOqcK4KzQeBUMDs9biXuw63+E2NbVdqk6VOf03JMQKChWIFRQqJKcjwuO7T9lB6nLLT51iT2/xIFrEpo3/kna1YpVqKNEQ91MN8cA5jQbOZTRQ7qPHZ+MZbz0PID49iCOjlZd/hYm6cc6VUq4w4UW5Kg4w4QK0MzTAv0G2EDKEw0TF7NOurgt/p8OFOEoPJQvlHND/Dc4WJAukS5Ss8gXuKd9beo7DD1NX1Ya/vqouPBI5VSipQGPJjJ/8sSYYGjCZgkpFwH1AruXOtLF1aQ2u6USbGneIFCoT7tORHPjBrPea3Zn6B/nKW63AnUOfY0pVkNp+RFvyw9qtionhBKHzX9VB4/Y0kHax/ZZf0+NKG82daUdg1Kt4tjIVrN7tb0CunHAn2jVBKTE7KSFXww8TtgFwb5DYikcsyggVIi8LpwuR/H7k8sbwOChZV9aHp19LRAvtdVAvS58wjBIr44CFXJUPTE4VyDRUzBMvq2eFE+E/Hks0ZhiR8SUYWvCmleYtnqMUC1rU8Mk/kCryQ1iXGXnr9YCD/haH/sgPquR091Ub0Z1sS8b2UwfHArfO6mz9TnK+5FGJbcJi3eM/GfdbRyVowNgdzXPttHsnMfInaYC9AdWKWftMU6ahwCAsUxjlCo+ok9LMYUHlwDHxhVwVJ3JKFmCcpYaql9XEScqol4X2OmdyraxkLieLlay1yhmzkhUlW0CewxYUN3JKFQEnR9FM+aTL65lw/+z3KvwnZGr4gDXU1KbCv6FS7UKb2NY5Tlg/0w2rQaj0elxonR4w6LIJKimdBYX37EzqubjvPWBnnMtsv/kMO+14VTPd/9auU0zsgy05f9+Pj017/2e3N9fGffcQIlazaGDdbfve6+ZYabyL5dDCg7JMEVWusGtq6tY5Vxc6uUVByFXxwZAqo2TtcYFqrYN/YwGHkoXeb1OWNaoThisawhOIaKHFjjlhiBIOcMxzb5MG0aUMJsd0/2YSqUKxWYSGQa4xDpCzx+G/vPEjGBowqSLsrUnVJK1S4VR2La231eRvohvc/PV5wEDkjWtRQUSY1arrUXmP0c8voddPJexiZ5p3kDwqsT6bnWn5mh0442lg/c5Ku1fZae8v8cB7ngb2e5zkjsHHYcLKyb+KhgWVcqXqXBliJeSquJFTsAoAjhW/A7JlThiecqVSsqBudKyuCQOcLtQ5Waj8blQQUbOKExzG1fcE/8bJUA7/Qala2sjz1dz//LEiGFzwegmFSv8bGyBsfnYlUpWa44R1M3s3Uh40QgUyRT6MQ36sUCEik3qdXnva9t0/WmlnjpXxDhjT0frj6unS109sAAzl92O+E7c7iKmnibH73nIa4MTgU2H1nAkhl+6voNIMIFZm1zQuktAOJcQQK7NQCIobOSWLAHKMXA5TjHSfhapWFnKyDl/eGB6N5HetZJ19fTKcCiWLSBbIFVSQQuUb8p28YGjBpIrA94Me/Vtq6d7VhccTYT5oCZEqrVRJCHDogTUSYT/UpYNShXm4C8ooEKGCSlXTpUJ/+Wtu/no8IEDojwhVrsin771MhOoPKjHdOcby3SbkUaFVnHaLYmIDY7EpUz4Smzb+BzTg9rMDdy4x+LtooD9DpOp1JZ+qwVkpJMsoV4pciXJV6jCqRSH1Ao4Xj1CyDr24MTxW18rKKVmR04U4ZZZrGK1JlihZQ4/ctafnuB84AXrmdXXhMZeqcgrRex6914LBQXRdNGsjb2zocfKCZt6cOrqMgsmlyl9zBxJQqDjqYnxW4L1LeMlOe4+Sj7sq3uGebQep8aO63G/Huqd8RLtBMbFBsLa2bcHckbgXC7yjrCA1M5711tmB81KiK8Ux6dyR1AKDuZxgdlF4jpwrNG42da7yFxBBaQHOFjtoVrO0koVKz/g3dthGyTrykgZ21CdcpohW2zUoSorkd0Ww4Nzz2+oIuRp8GJUKSiL+3a4LfyJ/bj/UqKL7KzlVQwezFrJCpUN/uPa7EaGaMNcJ3dkuF/vckdbRBEgVratVg6lQZbRCNUe1c7Mz7norcP9m+yg35P2ueob380R7SyLRMeGr2vOJiQ26bQNJlPOvMl4jDdRTiVhdadPAtHz3VTvb8h7vBnQzSq5/VcYKlpGoVUL7xuSq0EIjKA0YRYNDRXlOmO8tnIQOZxxADvvwixv4hCFqZYFgzTAV3/XpQlGyBhe4hnxt9b876ZrjHpxGpOrI5Q0c3jVkSgjV4MGsfdE10MwjXP/JtD7uPL+ZC30ijwotaRJ56+qAkypEVdgvKdhBakO8K/UmkbgXbN+52/Kd2cijstLe6KZzmz43ebL09hMbJhvVvtPnUb29OuP83Aqc84hcXU2D+DF6XF8N9QqnKma2lPUJwt7KlfQWLHcY5wDyjHwsKFnmlCFKOODoPudksZJVH558ZR2rJWivAycPkgWnr1SsHiWLCZYmBIK+AdcQKhWuI8KyaM4NJRH3A/fG3DchVYMDs9ZBmTLqFB4xZwyZwkk/KFSoSTXUeVSIpsAvgVgxoer07iBfdYHluydYfio1OuNsN3KZ5FGJFYEl25IfTrYnP1+Vbo2hPEPcdxbQDuBPNFhfoB3AWyy76l0ChwjLVL0y5Aq7L5XQrnKuzIKTvwgJShdG8cgpWYB+jZ0LORPAtNjBCcPjV6rE93OuVwQLie+cjxVVsgBDsgw0aRBsGtHrhsMEUAlRXR/qYbScgrlv+fdTsHUwBCoK85qZF0xiCSBUSEofP8fhU9RJIlOsUEFBiqyfg0KojO/hPCps8FPriUi9avvuo/R4eSxwT49n3da4P+H/VS+d9Amkumi3JiZWHAamb3W637fSzRPstHOSRTsBO+PeTuTqBQxqPnExU+0WCk6CEkcv5UqTq4mS0F4xiDoUPmEIJWuBVrLIsR+4RJ0u5Jysy+vDU6+sC89AThYRgBk31bLCok4YjgvnayVL6mVtHrguUKlwnVCfCqQVCiFKZeDkH+4N7odRkAV9R24do/FsFCmjSuH1KJFC7hRO+KEFDdSpOiJUSJfgHKrIejloChWIG/KoZo8Px8ydoDf1qX8iMZ180zl2xvl5VbqpWpolixW9Qb36ydTmTyHBvcp3W2lXcDoN8qstP/UYDei30X+Q49wa2FFsNCFKGFgkkHhpE1i5KhAWjC5UgvJDlGABeI6f496zM1rYpEo5LFYFSdFa5zdXqf6FM7hOlmq1gsbAQJRA5FQsIVo91wP/pkeof9NurKVrWc89/8zJP3MPRKnaOuRIVATmNR7jeK7HOIjrbrSJQKsvDvXNUpXSQaTGEMEBmYoqVLxOauSvof0C/gZ8SyQ6Qj7nXfq7b1g47Zf2FiXS3hTkUSXbd/r8dmnvY+S2tlHeS0ysBMwOGr8YT3vVdru7n+2nptLza+2ACFbgbYB6hZ0EWgaUHbnSOzE8N8oVhwUjDja6SAnKH7nQiFayAJBtEC2V9K6ULBStRGudM65Nhueif6GulYXEd5CIaF5WTs2KkI1KAb4zvr859YfQHw4LoD0NruU+i/TJP7reuO6F7olgY5i1CePSwChS+DmuJRQpnObbmUgU1jUQqdRshPm0MqVP95mSCUaZYnUKiKyVAw2QqQT5ljHzJnA+Ff2tF8m/3E7kamEs7Z5udaR2s6elvjdCEtPFSti2qZ5e/YnktPFfSqRbY4nAm2KnU7+3ffch2/des7Op941yxQDBoslYaMKUGng3BnJF4IR2ybmqeOQrWcbhYyxwSGVhU7gv2uuwktUQHncpwoX1qhjpjbVh+mbkZOl8rM0oWeVKtsx3xak/PMe16Fij6lOZ0B+uJa416iOJUvXBMETKIPoaj1cNQ6hMiA9V0UGkGmZ6YS2tb1DnQaSAjZQpTaYM8tfKfgN5VBEfEu9swWm/9+zAfc4K3OvsjPsblZg+YbvYuU2fi3XHpCaVWHlYW1vbttU0sLFjiPteGw36JTQh/kgT4yUTB+cThEgwLDR5ShBR5cqEBTnnihapTS1mgsqCcVpQr0C6cbqQS3VchFChSno3pwvRWuf0a5JMtM5fVcu1stCeBYQDCtb8O1Rulsk3Kjc1C98H3xOKHb4Xq1R0HU69qj486pIGvl64poa0CqHaGGbN2ZQihd8xYT00P8Z6BUUKTZBRGgGFkBHiQxFPbBhBpECioqrUUChTBiBSiHpwPSryH/Sz94hg/T3R1UKEysvYafcgdA2Jp73PalckJlZehuq1O3a2fsFqd78/Ots8gSbeWbSjuDHmu8/Qc0wIJlZm91EO6pXZpQFMrqBc0YIF52kWuujCJ6g8sCqgyUCUFGBswOkhHwsV30EcDlmqipKCaKFW1rmrklxRvGudSnzPJyOs8BRA/u8VK/I/N8J/+DnUO1S9P26l6ve3NxFRvpa4dvr65V/nSoUhU4VeM8D1wpqExscgU6k5bthMG8H6mV5Y0+WFOxKJQs++QqpUbp3TZMogug4OKOAXoiqVyacKvNdp0/5A3E8tsIPUQQQr0dHw1Vj3+E9qFyQmVt62feeOX4j5qXFW2j3C8t1OmhQ3xDPe32nCvAf1Cj0IsRPRE6akgUXGKFfRsGCUXAnBEkQBR2dIllGyAJAGUyvriOUoRtrAig1OwZ1NROM8nZcFNQfJ3CAhULBMbhael8JJQ3wufEbz2efeNo7Dfj6RSORS/fqqOu7diAR1XBNcIzOfKhlmLTGn9owiZVQpc60m0VhCo2PkSRlVik/w6fpSSSJTyA8FiYquYfmK1KASqEIAoaPNt6pHNZ78Q0toZb0X7GzqbiJ6ywhnIipizWj9jnY1YmKVZSMzyU+PDpr+x+rwbFS8tX1vHgH5V+8jPIiCbkq5Kn31KroImbCg5FwJPgiFlCyA1Sxykjkli0jWwShKenFjeCyRjVMiPQzTa2rDznWKYEVJywch+rtDjY0+j1aocEoShBEqHQgViCXy0VD5PnddCIWuY6XDrC24RgjxgUi1zHFDJ0eikGyu1iWjShU8wZdHqMx6NiTA+g+VSuVQqW4egbfeClJPcx4V6lH5busYf/wPcGgqNkXyqMTERiTa3W9bHc5udtr7re2nLqfJcxdNpmdArKBeQcXiCVXCBAsLEe/26BGNm5H8iUUO+TVmlykES7A5RNUsqDRG0cJr3CR6WSOTD5ww/DXUrGvrwt/doIgWyAnCaKiZBQVI5S2Zulm9Fa2oqgXkk6CBgCFPrE4RjLKGn0FxS6+p4cR95JWhgvoRyxt1Wxo1b3AN8q9POYPXCUArUEaRwiN+ziE9uiZINJ+0AMnmTrgzrTFYZ1pRBkGTKXNybwytQ/HADWN6bUJ/vmFVpAqAw33Io0IkQ+VRvU8k65/0GdfE/FQ3febDcfpc8qjExPIM9a9QqI0mx0gr7U2wsu7JNOEvt3z331CvcIRWEavSVq+wYGERw/NoKQYshtGFM39BFQgM8pUsjB0QLEMy4Gih5iAn60CoWUsbOWyIU3M9jaJV8js3iiZy04tIGRjik4dCBGlrUeh9DbnC6yB+IIJt19RxuBOfH98FuVRRYlmpKlWOYBH20j8D2YQiBSKVK4HAeVJuWEMkCjWloqpUXK+jZsNnUDSkyqhUIFYI/5EfoM/2HvmER+hxIeFwO3DHWFnnm4h+aFciJiZWyFSBUW90IpM62KYdiZXxbot30Q4l8N4zvZ5QwV3LwSUHs5DhORY7KFf5YUEhV4K+oJeaRdh9gVK0MJ6Qj3TIskY+QYdWL6peVl342+tVbhaUIVQtZ0VrjTpxiErmIDogPUZNyilb+aDfMQTNAD/L/z38/0YhA6FCmA9ECn8XFejR3w8qG2pSodAnQp1QaPak78EEMvJ9yxFm/kdVKaNI4XXcW9xT1EIDkdo1V0/KDb3Zaj0xJ/fGQpHKuLze9FKjAL0W5a9Pww6QPiJSptahzrN9nn5+Hz1eSZ/5vLjf8tMdOlq/q12GmJjYlhjI1ZhMy7fsdneMnXEOi3e6v7cC7u+0Hknt3BoHE65E1SssbEa5GouE9m61OIpyJegPomqWUbJ6qVkLe9QsKFlTCIdeDLLVqBUt1TD6t0iE10QrINID8hMN2eUTKIOo4lXodYDJFgG/k70FuVOqrx/6KCJ8+YsVDfyZoFCh0CeTKv2dAHzH/O9dTsgRKwOQKr4GTjiZiNQuOk8KJRDc2Y7Kk2JVSh2OgSoVzZMyGzmDKKkqOmKlVSqoU1yCB7m2PpEqP3UdfdYzLd/dtSpIbT86mPg/I9ukWbKYWJ9tzNT6b1m+swcRqxmEa2iCPWBnUy/imC2rV91EsjABS4xkYVHjhY4esbOEbD9xPu1GyXlgQYXEj8dCi69AsDUwhCs/hKjys9Tv7LuoOZyiFS202VFV4BE6rAvPIqKF8OF5q2rD6ZpwRYGwIhQnVImH+gTFC8/xsw4oUfi9m1SOF/7/qfQ+eD9UmEd9ruOJ1B2+XNWigjoT/Zz8uSPfpdQRJUubUqRwb0yeFBQpnN6bMNftlXSeq3BORArrSSE1Cshfd4oR2CRjs6yiEbyWvxPvan2cSNUdVtqbb6e9o6raWxIS8hMTGyCbPHnEh6qnN3y9Ku3ErMDZzfbdM+KBu8oO3P8o9apFEasSDA1GlSuVc6WVK+3seBHWC65A0B9sRKyYVKkyDntcqJLfo4qWys9S4UMoSDh1CGULJOikK+o5X+tXeCQgrIjipSBgUJ+geOE51K9fX13Hv4vQHppPH0+kDaoUEtEPofeEcoa/x+oUfQb12XqS0/GZ879LKcPM6Si5wiP67oHkcs89KFJzVVFOo0jV6npSUKXy86SiilSOYGF90WtLUQPfAzlUtEHmNjS++76dcR6OZ7358Yx7SCwzfsfq6c52Y8+b+BntEsTExAbSUOzNDpqseNo5hgjWYivt3mNl3CetTOotTnLH5ATRKiGShcUPiyGeQ7lSCe1KucJCLMqVYLDBihagiYwhXwYmrIjXoGwdRITr4GVN6pEA4oXCpcdcSsRpZT2340HvQ+RI4TX+XSJqIFD7EnnD3zTva/4G/239OfI/XymhEHEywOvme4NEQZHiKueaTCHpHHlSWAPye+7lK1EG+etJScCQKWyMac3WSeovWIH7EBGr66yMMx1hv7FB0//opV9MTGwwjZPb293v08Rrool4NBGrBbTAPEALz3u50GBnaeVfsXLVi1zRQjtf7dpzCzUhfxEXCAYKhlgZomPys1S4UOX3cJFS+r18wmD6HCJBHuQJwHP8DK/hd1iV0X+jl1pGz6PkKv9zlRqixCp6jfAzzOdcsrluE4MUgAaE9rpUwjnIFNYAhPiQJwXyFFWjgJJSpAqBNr7YCFfrjTCt5SBV11gZry2e9iZZ2UZ79HlCqsTEhsVGtbvfjmVoIvredCvN4cG/0e7nRU5y1wpWrkxDoQleRDALKB7H8mlBLMDKCZkFO38RFwiGCkZN+kBocpRDod+JoNDfKXbkiBOQR5zwOr4XSCIUZ86TIrAqxXlSuudet+q5x7WkiDwlImtAFPlrRMkCChXyqLAm4+ARUjcC7x36+TO2795vp5uX2GnnKCvdOLp6+qRP6OVdTExsuGzU9NavJ9qbE7F296eWnzqbJuyVNFmfgmo1Zu4ERa5KJDQYVa5QisGcFtxd58CYBT260AsEQwkmRVHypGFUp0Lo9bt571dKyBEqIEKqALyOk3vot8fJ5jRvVZsYEKmeEghGkQKhylU31/M+CqNKRdeHkgW+Kw4b0Vpc3T0e343rUdEGeAk9nlCVbnas9vrvV0+vFlIlJlZMNjIz+dNVwfgqmrSH02S9iHBffGbLs3Y29ZbZLWGnVAoky5ArPi04Sy3U0bBg/oIvEAgGDlEClVOkNHkyipTJk4IqtRthl/nNul2MEzqoJUVkCkQKXRYQ0sN8LisVanNA3pTOo0LldPrZhniQetlOe48TVtu+l6G1eq/R053t9BIuJiZWjPaN6ZM+EZvm/MDucMbT5D2JdkkX0W7pftoZvQPlCkXnuDaKXuiKFWbXiufY4aIVxW4LsLA7uUrLAoFgYJEjVJpIgVBFmxiDUIFI7UokCmF6lWzucLJ5w0xzeg9VztXJvRyhormMAp3F2DJmUACFCptZFPmcS2suEyv3OXrtBjudOh+Eykp7SbQyGxGO2EYv32JiYsVs32pLfrwq7f1fPONNsgNnhp1xb7Z993Ga8K/Gs9567KRYveIk9+JVsLAA40g1FmvshNGV3oRS4ADyHYNAINg8cgQKIMLE0K8BJrQJVQo5jqxK0cbGnNxT4T2HE84Rst8SRars1SpNpnht5bxW+lknogXe81bGfZDW3+V0DY5B030cQBJCJSZWohZPe9+wM821tFs6KB5402iy30DPn0l0pUKu7ItESrMIFFoshhlmZ4sj1+hCjwKByOEwzsE4AoFAsGUwhMqE+IwiBXIFMqVqSanQHpLNTWgP9aSQJ4V5yL33cHIPZILmJ1SoqCJVEapUPlAxfaZqRYN11QrcN+2sdy+RrYusIHUymuxbnc0/luR0MbEyMDR4toPGLybaWxJWmnZMaWeZ7TsP02LwH8I70V0W518VIcli5Yoeo+RKlCuBoDAMeSoEvG7ypAwMmVIVzlUDY2dWz8k9ECgzF03CeRSGQFUMiTJQ9adya2c8izwq7w0iVU/SBvZmO+NOpd/bxeps/Q5qEI5oG7GtXpbFxMTKwbBTqpqe2t5qb9rVTjunEllZSjupB2gBeJtPq6DhJ3IBQK4KLSLDCN79EnAsO9nlKXJ1gVauaKdtnIlxLAJBpYIJFM0Jo0gZVQqPeB3hPZRA4PIHnGyuchjRvJjrSUVO75mTe6JIFQCuTZcqaQOViqvAZ9xn6HqtsdNuFlXTES2omuH+t16CxcTEytGgXsXaxn/SmtH4nXinNznup3wiVuts33uaFoo3aWFYj7wrBqtXxUOyeBGnxVwpV0Su5rpctFGUK0ElwihQ+cBrmBObUqWQJ9UyV5/cIxJVQ3PJJJoDIAiYY0CvuZeH6NysGODasEKl10e1CX3X9t1XuXxC2r2U1tJfVaWdejvT8rXt0t7HaNmVXCoxsUqxscHE/6GFotH2UwcTuZphB+ig7j6JBaN6zngGF7IrJnKld8twAMmZWrnSOVdmR26ci0BQjmACpRWogooUESi0ioEiZZLNuZ7ULIdLl0CVwuk99N2LNjCOqlGiSBUG1kZulqzzU2ltfJ02o/dxYnraO8vqaN6zaoZbFU97n9XLrJiYWEVZW9u2iPuPat/p89zgmetfeUsJj1oZ703alb2fyyEAQLCI0BRacIYSZrHHzjpHrnRY0Dge81wgKGUYFcog+ppRpXIn+DShYkUqknAOdRckCmE95EpFVan8OZWP6LyrWOBamTWQQBvQDfTzd2idfIY2pWtpjWyna7Wn1dH649i5kz83ctnkj+oVVkxMrKINJMt3fmD5qT1s3/sd4bJ4p3eflXFf4ROEuR6EqMdSYPEZYmDRzylXkZwrOBrs3As5IoGgFGDG7qYUKZAoVUuqp8J5ayThnBUpzpHqCfGZ+VIoR6rQ/BJo0LVD3T9W8GeNx89Aqv5JP78xnva64n7qSLvDa6zuav26XknFxMTEeizWPeUjOD24g986yu50fmYFzgzLd9fYgfO07bvv9px8KQ71Ck4BgOOo1TlXUudKUGowRGpT49UoU0g6B6HaWYf3vNloVq6SzWuISI0lEgVFKqdK5c8VTaSiiM4nQQRRpR75VF2pDXT93qLXHqbrtogej7Lbm2urp7d+fWQm+em2sE1O+4mJiX2wof6V5Tc2Eak6ys643USs1hKR+pftexty6lURVHCHc8gpVwgLErlCw1dRrgTFihyR0ipUVJHCzxHaQ6K5ypNSbWJApFLIk4r03avpRD9NNfYxFzalSAmB2jqATOW6VNAjrXFv2l2ph+h6XgE13/KdPewZ7o+S85Mf18ulmJiY2OZt8rLJH0ICZjyd/MYYFBj1nePtwL2YCNZfCdi58YmYntODGy9QQwHjOADkjbBypRPaRbkSlAqYUBEmX+BwiM/03GtGdXNNoliR0qoUyFRUleI5kEemgPz5ItgEsH7lVCpdz482kXQ9X6Z17w9WJuVXBc7PqoLG7aHq69N+YmJiYn0z7MzivjPKSjftbaed82mhuZwWo/tp4X4NO7oxcyeEiVmtajEqtGgNAeBEsEvnhHZNrnaTnCvBMMCMtQ9SpExYb1faACDZfOJcHd6jcYukc5MnZRoYY3xLHalBAsgU8qhm4yT0BL1RTD1Nr62ja3tBzHdPHJ12vFHTGySPSkxMbOCsenr1JxIdDV+NI/8q4+5u++5UWthvo0ciV7TDQwd3tSDp3V/e4jXIMA4GgCOCcpWS04KCYgKH+BwOVYNMteLk3mxTS0r13EOyOZCfJwUSVYhQAflzQbCF4HXKqFQE5JBi/fLdJy3fXcFdKrJeMtY9/n9xcnrE5Mkf0suhmJiY2MDamM7mr8T9VAN2crQILY53pu6khekpSOecm8A1XvQiVWhBG0TA0eSUK3JYrVCuTM4VwagJBR2fQLAFMGMov5ZUTpEiGEUKY8/Uk1J991yuco48KYT4VLsYNzduRZEaAoCwEpFCrmg11HZ0mwi8l2nNuJ8I1So77QVWh7M/bSB/hILKetkTExMTG0QLR2yjal95/0cLUVM82/JLWpSW0+L0mB2472OhyhEr3hXmLWyDCOOIAOz4e7W/IWdnHGO+sxQItgY5chUBfo5SCEg6RxkElEAAiWo0J/fQuFjnShlVChsAHrf5hEpI1eCA1yOlUPEhHIIVuK/SuoXDOedVBamf2UHKwmk/SU4XExMbFuMGzzPcH9kd3r7cHsf3rqdF62Erm3oFie1YuFChmOtfDTHBihEUuXJVKQZRrgRbgBxZ2owihbAexhTypFiVIvDpPZzci5RBGJN1mUBtRJ70OC00fgUDDCJTXI9Kr0d03d+j9elftC7dBdWdNogn2JmWWjvY+Yt6aRMTExMbPiNy9XFrmvPNRHtLghzGXnY21R7LIP/Ke5nzFrpoMRvi0gzGaQFMrrhCu3KEUeeZ71QFAiBHrgAQKgJ+HlWkTAkEbl5MJAqhZ6hSCO+ZmlIYe2Y8GlIlxGqIgXuQVa1ouHyC775P+Hs86y21/dTxiQ6nOdHR+t1R7cnP6yVNTExMrHhsx7T3ZYQHqwL3ZDtwl9Dzu2hx+xfhfV7Y0AUeJIsWul6L3yCBHRoBigErV5xzpVQHUa4qF1HSlK9I4XXTtBh5UiBSu85XrWKiZKq+2w1raUyBRBkClSNNEeIk5GkYQPeDFXNac5RKxYdrXqfXHiXcEO9wfSvt7m21u9+fLEnpYmJixW7V053/2iHtjaQdoRP3vWMhtdu+9xhyrpDYDmKFHIdeC+EgIercTM4VHKM5LSjEqvKQI1VAHqlSxTl715JSRTlVPSkQKZzeM3lSGFM4uYfxtZEiFSFXhcamYBCB+0LrTI9K5bwTz9Amz3c66L7slci0JKys882RbdLXT0xMrIQMRUbtIPU9LGRW2umy0t5tdqblMXI0r/JukhY8AM8HO0zIDo4cHZygUq5w7F0pE1FHW8gRC0oPuXsaIU5Mngh4HffdnNybxKf3UOW8pwwCyJRqYKxCe2Mybm4cQQE1hAnIH2uC4QE2a0ymsK7MbMG9ed8KUs/Saw8RobrKCpwzoabbF0gelZiYWAlbcnXyw7GOpv+10i1jYx3egbTQpW3fuxUncdAyAgX5VP7V4CpY7AS1ggCVAcqDR84TicdQKeBwhVyVB6KkyhCraBPj3S9UtaRYkeKTe0g2d7ieFIhUbV6elKklFVWkcqqUHlv5400w9OgJ/Y1XJ5J973Erk1phZ71TY2l3J7u9eQeo6XppEhMTEyt92yHtfRmd4O0O9ze0EK4kPEw7zOfsjPe+ke3xONj5V3CEyLnCiS04VfRj253IFZyu5F2VBnLkCdCkKapIgSxH86QmE5ECmTJJ5yDVrEgRmTK1pKCaGqIkhKkEANJrlG9aO4hAhUSkXiEi/E/bT91upb1ZduAeZGcm/CjWHfuIXobExMTEysuwY1TtcbwJ8cA9OdGZutjOuP+MQx1AYVHsNlGaodBCOkAwThNKBJxq8yylXiC3Bo6aHTQ95jtzQXGgEKHqUaQcIlTq9OfOOtkcJArJ5iBSyJMy4b2cIqUJlShSJQaUUJjZolpqEbmi+/Uy3atb4r7XYadTB9Eak0StvZHLJI9KTEysAgz5V4mupu/afvN+RKzm2b77Bytwn7SzqdeQK8FFRrt0kjs5voILaz8B54lH9GNr7FaVsXECjEOD2nELwRoe5MiTgb4XAF43ipSqJ9WjTCG0yyE+JlMI7zlcAgHNi02Sef44EJQOTB4Vt9DqpOcZ711aJ5630u4jRKxWWr57SqzdrYtNG/8lvdSIiYmJVY6F4YhtrBmN34kFTrMduIeS00vT4zoiWa9xu4nZrbSADl5zZ6NM4PlYIlfIscGJQYQG4bSNGpLv9AWDiyiZMveAoV8HmQIBxn1C82IcRPBmQ3lUzYv59B6RKdV7Txfn1PdbWsaUMOg+5op80trAocCM+3ciWMviRKjifmpnK+2N5r5+YmJiYhVtbW3b2kHjF6t8t8ZOO6faafdqcnpoj/MSLajvch4FdqlcvX3gSZZxrEhqR96VMwu5OMqBR9vgRBUTQf8RvaasSAH6NdQZy1elJnM9qUgZBLpPKMwZrSVlEs0LQUhUCYLmO6tUXGhYKdjxrPeGFbj/tn3n7njGmU1rxs93nNH6nWRbG/r6baMWFTExMTGxEd+fM/YziWlOzGp39qCd51m0I73E9rmg33rkX/Fpn0EozcAOV6sXcM7Iv0E+zvi5uoEzOXaoJVHVRNA/GDJl1CiTI4Wfg0ypsF5PUU4UdnVm9TQvBpkyeVK4Z7h3+YoUq1L6/ha674LiBxMpfdIv0Y3cS/cVO+NyYno87RwTTzc7ozP139JLiJiYmJhYviH36lttyY/HfOcHVtbby/bdbs6/Snsv2FnvTZb/sXPVu9eBJlkGY+h967o8DjGhvhEUEzj8nMKiUYg0CBTyr5WBeR2qFK5pTpUiqHYxzbmkc9Nzb8dOdU8SdG+gShVSpgyJEjJVwsB8hkqF/CmoVAS6l+9zo2TffdxKO9faQfPpiY5U89ig6X/0aT9RqcTExMS2xBJd7rfttOPF/NSRlu/NtjKp22nxfRkngPgkEBSsAc6/gkM2+TcqNOixc0foCUf19yCCBXLA6opWWKJkQtBDoPIVKaNKQQEEUUVRTlzTCfNUqyEXeVLdPaf3EJYdR4TK1JLCPYmqUaJIlSFwyIDzqMaHUKnpZxusjPcPerySyNU5CPsl2psTO3a2fkEvE2JiYmJiW2xtbdtWT6/+xJjO5q+g/hUtsG12xr3eyrhPIs/C7ky9n9vdcu7FwJMsPKJ1CZw8kqOR34NcH6gsUFx6EQn970pC9LvnX4NonpQBCBX67pk8Ke65N5OuLxQpHdbjXClNpqLKlCFRUZjXBCUM3GvMX1aptAqdSb1NRPpFwj124F6QyKQOrgpS24/MJD8tbWjExMTEBsDGzpn4mapMcyKecQ6gRXcq4fJ4p/eI7bvvJvgEoc7BGMDkdrQuMaoIHD3UE5wcRIgKxMCUZjCKDKtYeeSiHJEjUfo7b6RI0WtKkcIJS7pWc52wlYATl6bvHq6j6rvncSkEvt50rTfKkQLoNSFRZQqQKiJTUJ9NFwbaOL1Ar91qdXiz4x3esVbgTkx0tX5XLwViYmJiYgNlyL2yL2j8YryrdZQdNO8bz7qorPwny3dfigcpPj1olCtWr7DzLbSYbwWiTh3qCdQUkAEc64figiP/CA+CYBkFqxf5iPysVBH9Lvnfh1UpPMf3J+BaoJYUaoKldAkEQ6JMQc58VSr/WkdhXhOUGcxpP8xTEOvO1HoaD+/QRulfRKavpd85FfWo7PNbvpbMJD+dbEvixJ+YmJiY2GDZqHb323bgjCecFPfdBfFM6jYiWs+BXCn1SrfHIee90aLeB7Cj1yoK/o2wFSp4Q31JzUaekFJnJl/gMNGAmmNUnFLLxcqRKPrc+YoUfobvh2Tz3Mk9zpNSzYtNlXNFpnDCsqe6uVGkCtWSyr/egjIGkSm0oIHSDJXZCpy37U7v0XjWu8H2vQz9e4qV9exY9/hP6ukuJiYmJjbYhh1sPO19Fgnu6FiPAoG0271K7Xjd95hQRRSsgQgR5ispIAtQXqDEgESAUKBEAxQbEI+ogrURaYn8rBiwJZ/LECqE+FAGAeE9hPa4554O60XzpFiV0tcqd/00kcq/loIyB42FqEqlatJ561GrzgrcP1oZZw49P5Qwpmqm+9/IrdRTXUxMTExsqA2hAjtIWXbaPYgW5iwRq1X0+DdayN/mbvdQsAa4gjsIgVFg8AiSBXWmrtsLndkqTIg8LBS0RC4WErdBToz6Y5QgwChamyM2A4Xc34p8hqgihd/B54UihZN7UOJApBDew/fC98ud3NO1pAopUpIfJWBgfHS1sIqMqunoC0p4gYjV3VbGXchtaDKNO9lB4/di3VOkWbKYmJhYMVisbfwn7UzL1+xg/Bhy5FNoF4wd8J+stPsqq1Vmp4znjAIOYCthSAMIBP5tcrCg2jDJIuIBFQshMpQVMKcJ84nOpjBQJGtL3sf8zh6mgTF9XtSSQpjThPZwcm8cfTd8P5MrBUJlVClzLfJVqeg1E1QQMMe0SgX1GP+20s77tu9AVb4ORYDjWbd1dMbZbvvOHb8wsm2knPYTExMTKzZDWwt0tKfFfOd42jnN6vCWWhnvLsIzWNhNfRycPmKCVcgh9BEgEVBqWK2h5yAeICJ1ulQD8o/GayVr55yahbysZi6OCdLF+VmEqIpkVKWthfn/zXsY8oS/Y3Kk8PehSOHzIE8K9aRM373cyT36Dvgu0e+X+576uxa6HoLKBW9i0EgdeVT0SPPvTfr5o7TRuTHuu512u3NYzE+NGzVf+vqJiYmJFb0hnBDrHv+lMdOcH1jp5gm27/6GnD8KDD5Ji/sGTmw3fQd5V72xY+gLQDAYEbIBNQfqDlQeNHpGGxbkI6HHHVq0pIjIQBkC2QLBmXSBzs8igAgNFHBqD4Rqd3p/5ICBSLEiRX8/p0jpPCmE9nqpUvq75NSoCKEyiF4HQQWD55NWh1E5nR5p3r1Cc/BP9DiLxsqU2IzUuHja+8bY8yZ+Rk9ZMTExMbFSMSS4Wx2NNp80SnsziRCsiXem/hbPeK9z/RwiWdhRc7iikKPoJ5h4EAmJqjyGbI0jkgVFCKQGOUsgWh4RHYQOQXqgIIFw4dQdSNfWAKE85EXh/weQHwW1DEQKOVLouVdPULWkXG4Vg88a/ZxCngRbDJBw5FFBEeY8KiJUGe8FIlR/pnm3zGp3TiNiNTHuN/+/tra2bfX0FBMTExMrRUNye6y76X/t9uZaO+0dZmW9WfGMexc5hJfV0W/Vk2wg1SuDHDHJIyx4zeRk9ShaqkYWVC2DWgJytUC80FpnS4DfhSIGZQz/PxLMAbxfL0WKkK9ICakSbDV43tA8ArHCIRH823efo9duoI3NWUSsJiTam364Q9r7cnK11KMSExMTKx9rS37YmtH6nVja3cnONP+aCMMyy3fvIafwYoKIFedeYbc9gPWvPghR4hIlNQY4XYefEwkk8oXTd1uGMfS7IEz8NyLvFwUTJ0D//fzPJhBsDqz46jwqPWfeoo3KY3bgriMyNZ9+5yi73R0jIT8xMTGxMjbsmH/S2fyVRLbph1bWm0Dkoo3LM/jei1y0kPOvUnyKMN+RDDS2hFgxCdK/D2VpS5B7/8h75UOIlaBfgNJJmxFWe4lUWYH7dizw7qd5M9fOOIdVpZ16HCJBKyo99cTExMTEyt04ROg78ViHd6yd9hYRubrbztCOG/lX5DByFdxBsoZAwdocciRsMyj0/woE/QaS0jmPSlVN5wT1jPe85TsP0Li7sirjnmt1OLv9xG/+fyPaRkgelZiYmFglGhcXnZb6nuW7TVbaPYIcRZcduH+0ffddNIUFuSo1YgUU+v8Fgv6AiRQRK1Nwl+bJc/HAuxqqb1WHt8uoTPMOVTPc/x6xbPKH9PQSExMTE6tYC0dsY2Wdb1Zl3da4755NTuM6uzP110RX6gV6vp4Tc6FecS7J4IcJBYJiAMgUh8ihUCFEHniv0ePjRKbuoY3IwniHc2Qi7cSkr5+YmJiYWEFD/pWV9kbbaXf3eJA6ixzLVbbvPQUH0ys0WMAJCQRlBc6jwrifEFbPGQ8lFEU+74xnUtm4nzoy1uE029PQhkZIlZiYmJjYZqx5avOnEtNaYzHfOdIO3N/TDv2PdpYJ1htoz2GSdplkFUGYUCAYECCPSielA0yuulr+Y2dT/yBidY3tu2fYQauLAp8jpB6VmJiYmNjWGPoPxlC93U+lrCB1NBGsuVYmdXcscN80Jwi5NU62gIMSCEoQ2CgkulXbJxzgsAL3RfrZDfFM6lyouDrs9yU9RcTExMTExLbe0CLHyu70zdHp5gkx3/ud5bvX0+79H1bGfYUczgY+KQUFi4uMSphQUEKAIkVkqmcM0/jNpt5Cb03aQNxvB84lcb/52ES6NTZp+qRP6CkhJiYmJibWf/txR8NXq9Je9ei0u3fMT02l3fwqO0g9g+KiY+ZMUPlXKsFXICgNZIlYIew3q1XlUfnO+zSm/0yYW+U7x8d9Z2ero/nH1dOrhVSJiYmJiQ2CtY3Ydru099mqTEsilvGOtdKpZbafejCeSb1gBSlUnlatPST/SlCs0CoVj9EuHqPraZPwKr32tJ121llpd1rcd1tHdTV8ffKyyR+lUb+NGvxiYmJiYmKDZDgJVRWkto+3p3a2095J5JQuIIJ1NzmoN5GfMmbuxJBr/UhoUFBk4JN+3a2ssnL4Okg9bWXc62zfba9KNx1EpKpmzNTmr+ihLiYmJiYmNjRGu/kPJduSHx+TafkWGs1afupcO3Bvtnz33/GultfjWW89nBicF4cIhWQJhgMmj4rHIQ5b0PPAe5cI1Ss0bv9iBd6yWNY7ysp69qj25Odj3bGP6CEuJiYmJiY2PIYdfqLD25Ec1QFxhFI6U9eQQ3uK1YE56pQVnyCU0KBgiMFhv+7WsHruhDAxa3xoZdy36ef3235qsdWROoU2ArvGu7yRI1XYT0xMTExMrChsm+3S3seauid/bmx7yw5EoA6LZ7xlVuD+lfAKPX9XqQYEemT1SkiWYLCAelSR8RbPehvszpa3bB+9/dw76LGDfm+XRPtO3/7J1OZPJduSH9bjWExMTExMrPgM9a/iQfNk23d/EwucC4lY3RUPvNercfqKawRJBXfBIIEIO9TR6llQSpHnRz/Luk8SyVpl+V4Xjclf2B1eY6Jjwlf1cBUTExMTEytuQ55KPO19NtHlfruq03W5/6DvrLXSzkuc38KKgjo5qBSsPOcoEGwNMH6MStUzpt4nEvWa5buPWIG31O50f1Htp8aNDSb+D1Qq9MfUw1VMTExMTKx0LNbd9LlYh7djPO0eYfnObDtw1+IkVpwcIdQrKAso0CjkStBXIOSHU6icy9eNk37eazSe7iUSv4xI1VmEPe2M+yMv7X1MD0sxMTExMbHSNSgEYzqbvxLzU+MSmdTxlu+usNPeo5bvvRUPUhu4UKPkXwm2BjRGQM55zGRBzOkxcNfbvvsi6lHR+Do/7qd2jvnjf7BjZ+sXJDldTExMTKzsLLm67cNxv3VU3Hf2iXekzrbSRLAC988o0IiWIjhBiJNbIFlCrgSbBMJ9Oo8Kvf1s39tAP/8X4RYiVXOsDvfoeNqpj02Tvn5iYmJiYmVuyfnJj6M8Q3VmwnZWe+vEuO+eS8Rqne27L3F+DCpi45GVKyFYgggwFnIqlXq0fPdty/f+SgT9YhpHR49JO2NHTW/4+tjzJn6GhpvkUYmJiYmJVY6Nat/p87HArbMC55fkIBeQs1xrd6YeJyf5LnJm0MONK7jDkRZytILKAMJ+nVCo9KlStKIJ3P/EA+9+K+1daXe4U+MZd+942hsZSlK6mJiYmFglW+zcps9Zna3fsbJekpzoUVbWvcgOnIetwH2b8666dGkGUa8qEzmVqoVJNqtUGe8FIuJriFRNi/stP7WmeaOrZrj/jU4AeliJiYmJiYlVtrWFbdvaQep7VtC8JxGr8+zAvZoc68N2NvUKn/rqbmVwWxIhWGUPEChWLXHfcWo08N6xO1NPEqG6i0j3RbbvHI88KqlHJSYmJiYmtgkb2Tb5o1AerLQ32vK9vay0k6bH22zUv0I4qAsKFjlZVrAKO2RBiYMVKhArrVARkSYy9RaRqYfsjLsk7rsn2hnHs6c1fg+hZKlHJSYmJiYmtgVmZ1q+Fk83O3aH8ysiVou1UvEvcrrv4AQhq1c60b2ggxaUFkCmiEQZlYqT0zOpl+m1h6FeWoFznuU372V1Nv841j3+k3qYiImJiYmJiW2hbWMHjV9Ee5xYh9diZdwTbN9dbPvkaH2XyRUTKynNUB5ALTPcTybLHlSqF+jntxCZnkHE+udVQUNVPO19o3p69Sf0+BATExMTExPri31j+qRPoHI2woPkZDuIWF1PDvevVuC9BFJlVA4hWaUFlNTg+mVcj4r7+r1L9/Ypwh/tdPMSqJVEsJp+0tn8FT0UxMTExMTExAbC0I7EyjrfTLQ3J0CwYoF3vuWnVhG5epZDSGhnQk5aVeAu7MgFRQTOoyJiNas1HDN3Aof+rIz313jGXYjE9FhHU0uivemH1dOd/9JDQExMTExMTGwwLNad/FKV79bYafc4hAetwP0zOeZn7az3LkJJuTCh5F8VFziPSqlUORLc2fIKEePH6PVb6T4GduD8zGp3v/+t+VI6QUxMTExMbMgMzZ1RENJKexOsjHsKkarlsYz3dzhwLiyqk9t7OXbBsIJDf90tqlkyiFXg/YfI71pCmkjyQTG/eVyso+l/Y91TPqJvs5iYmJiYmNhQGpKZkX9VFXj7VmW8Livw1lm++7id8V7lUBPyr/jYvuRfDQdwD3IqIu5B1nvHzqaeo/v0gO17K+N+6hTUo7KDnb+ob6mYmJiYmJjYcNrIZSM/Gveb/9+owK2rSrsH2b7TYQfuWjtIvYLE6Oo5E8I4HLuEBocWOFhApKq6m8jtrNbQCtz1VsZ7xOr0lsYC71QrSO1mt7fssP05rV/Qt1JMTExMTEysmAwlGuxMc23cd0+x0UfO9/5OhOp5O6Na5LB6JflXgweTlI48qp7r/CrdhydigXsrIVuV8X5udbrfj7VJPSoxMTExMbGiN+4/mPZG22l3dztwT49nWxZavveAFbjvj5k3IayeO0HlX0locMChSFUrX+NE9/iQCNVLhNVQEasCZ0pV2qkf1e5+e0Rb27b6domJiYmJiYkVvZHjRoXumO/8IB60To6nPbTHuSOe8Z5PdLW+TiRgAxQsVq8k/6p/QJPkTrqO5loGqXeJYL1M5PZxu8O7Em1oEh3ejrFpyS8l25If1ndITExMTExMrBStenrr1xOBW2enncPimVSWnP5qU/8KJ9QARQgKkAbBBwOhPyJUqEXF9aiIsBKxetjOtiy30qmzrPbUHnZ78w7JTPLT+naIiYmJiYmJlbhtgwbPO6a9L8dntNbEO9wTcSKN8KgVuK8SqXqXe9NBwQKQFyQK1qbBCpVWqUBI8e+ulrfswP0PXdO77bQ3E0Vc41O9kT+Z2vwpUanExMTExMTK1JAwDQUl5rs/tdLemfS43OpMIf/qbZxc4xpLpj1OIVJR6VAkSil9c1CPqpV+7v6HSNZaK+3Oot85ym533dFTW76lL7mYmJiYmJhYOVusO/aRUe3JzyeyLT+0fGcPK5PyY4F7O8KDIFjxrLc+p14BrGBVqIqFUN9Gah4/oq/fG3S9nrQD5zo+hdneUjtmavNX+LSfJKeLiYmJiYlVnsXT3jeq0p5TlXF/YaHAqO/eFA+8J+zADcfMUTWwTKVwJhWFyEe5Qof8qnU/Pz7p14Vr4L5kZ1N30+9cQuRqasxvPtCe0WRVT5/0CX1ZxcTExMTExCrS2tq2RR6QnUl+zco6Y4ko/MJOO4ss33mQnr9MeIcI1/uFlBuj3pSFkoXvoJSoXuCfZbwN8az3rhV4r9uB8zgUKvr933GBz4z7I1RNT7ZJbz8xMTExMTGxiI1cNvmjVkfzj1H/yupoOiXuO12276wkcnEnkY9/ETYgr2jM/ImsZCEXK9eqpZTJlVamuKgn8sy0UocCn0Sm3qTv9lciVjfQ8/lx3z2brsnBKMKamD3hq/rSiYmJiYmJiYltbNulvY/t2Nn6hVHTG76OJHfLd3e1/dRv7CB1MZGQv1i+95qdTb1vZ731vYhJAaVHAa/r3xtOmM+hP1fhz6t/B61nfO8t2/eettPenVbam5XIEJkK3DGJdvfbO6S9L0PlGxGO2EZfNjExMTExMTGxzVts2vgvVbW3JLh8gO+1WX7L7Hi2ZUU8k7qZfoZGwk8RcXkH/fBQ1Z1zkfTJwlz7HIQODXEpRHoGC5pIMXnCZ6DPgs9kVKkxOn8MZRPoe7xF/8/TVuA9gDwzIlMLrbQ7jf79S6vdnVg93dlOiJSYmJiYmJhYf20bqDNjOpu/gkbPVnri6ERHa4sVpI6w0+4My0+tIFJyn+1zPSwmL0YVYlJjiE0+Ir/TA0OGtha936fg3wPM79BzBsiX771DBPEZ+vx/oseVdtrpIDI1hYhVMtHR9N1YR9P/Eqn6L5yk1NdDTExMTExMTGzgDKffiFx91/LdJrvD2zceeKcRMZlLxOVyuzN1E/38LjtwHyTi8pgVuC/S83dAuqpnqdwldcJOVXzPYVZrTuXaYuD3Cfy+5n2QH0Xvz3+Dfo48KaVguW8TYXqRPufjRMbuI9xKP7uaiOFFRKLSdto71epw9o91OM3WjMbviDolJiYmJiYmNmSGSu6j2nf6/Oig6X+qM852o4OUlfBTqUR2/P5EVk4h0jLDDpwLrcBZReTqQXp8DicMWVFiZUs/RhWlgQDek0tDILznvmennZfo8QnC/fQ5bqLP9HsiWudZWfdowq7xtFdtz3B/VJX2/g/fZftzWr8g6pSYmJiYmJjYsBsICfoSWmlv9JiM12hn3N2JyBxl+e7Zlu90WWkXeUsriORcRSSHCJd3C722lkjYOqhcyNmix0eI+DxM+EtB+PQaQM8VYfPuped38nsorLEyqevodxDWWxRHNXQO7zln0mtHc0HUtJe0Ot3vj50z8TP6o4uJiYmJiYmJFaG1tW0b6x7/SZwstDMtX0t0ud8enW36IZ8w7PDs2IzUOLu91SVCtGfMdw8hMnU4EaOj4r7TZme8TDzjLogH3nwiSnMKwnfn0uPceMabDbIWC7zziTCdjPegxyPsjHNwVeDtksh4O+LvgeRVBY3bx3znB8gRw2eKdTd9DqUl9CcWExMTExMTEytti3VP/twOHa3fHd3e8sPqmantiSy5icCbYgfOSUSuTiDidGwh2L5zPJGn4+Od3jEgZaOJoNkzm2vxHqNmuT+yOlu/E+ueIqE8MTGxYbARI/4/XA51HwKyBJcAAAAASUVORK5CYII=;" vertex="1" parent="HwRneCmfS8zgWGRZoJI7-148">
          <mxGeometry x="15.219999999999999" width="38.78" height="43" as="geometry" />
        </mxCell>
      </root>
    </mxGraphModel>
  </diagram>
</mxfile>
